{"glyphs":{"0":{"ha":790,"x_min":0,"x_max":0,"o":"m 395 972 b 733 634 581 972 733 821 l 733 338 b 603 71 733 230 682 133 b 593 64 600 69 597 67 b 395 0 538 24 469 0 b 57 338 209 0 57 152 l 57 634 b 187 901 57 742 108 839 b 197 908 190 903 193 906 b 395 972 252 948 321 972 m 706 338 l 706 634 b 395 945 706 805 566 945 b 272 919 351 945 310 936 b 212 885 251 910 231 899 b 205 880 210 883 207 882 b 156 832 187 866 170 850 b 84 634 111 778 84 709 l 84 338 b 395 27 84 167 224 27 b 518 53 439 27 480 36 b 578 87 539 62 560 74 b 585 92 580 89 583 91 b 634 140 603 107 620 123 b 706 338 679 194 706 263 m 395 895 b 655 634 539 895 655 778 l 655 338 b 617 201 655 288 641 241 b 598 175 611 192 605 183 b 552 131 585 159 569 144 b 550 129 552 130 551 130 b 496 98 533 117 515 106 b 468 88 487 94 478 91 b 395 78 445 81 420 78 b 135 338 251 78 135 195 l 135 634 b 174 771 135 684 149 731 b 192 797 179 780 185 789 b 238 842 205 814 221 829 b 240 843 238 842 239 843 b 295 874 257 856 275 866 b 322 884 303 878 312 881 b 395 895 345 891 370 895 m 482 122 b 526 146 497 128 512 136 l 506 193 l 495 219 l 275 732 l 263 760 l 242 809 b 205 768 228 797 215 783 b 187 739 198 759 192 749 b 162 634 171 708 162 672 l 162 338 b 395 105 162 210 267 105 b 455 113 416 105 436 108 b 482 122 464 115 473 118 m 628 338 l 628 634 b 395 867 628 763 524 867 b 335 859 374 867 354 864 b 309 850 326 857 317 854 b 264 827 293 844 278 836 l 284 779 l 295 753 l 515 240 l 527 212 l 548 163 b 586 204 562 175 575 189 b 603 233 592 213 598 223 b 628 338 619 265 628 300 m 395 817 b 578 634 496 817 578 735 l 578 338 b 574 301 578 325 576 313 b 561 262 571 287 567 274 l 545 298 l 339 779 l 328 804 b 355 812 337 808 346 810 b 395 817 368 815 381 817 m 550 356 l 550 634 b 395 789 550 720 481 789 b 366 787 385 789 375 788 l 550 356 m 451 193 l 462 168 b 435 160 453 165 444 162 b 395 155 422 157 409 155 b 212 338 294 155 212 237 l 212 634 b 216 671 212 647 214 659 b 229 711 219 685 223 698 l 245 674 m 395 183 b 424 186 405 183 415 184 l 240 616 l 240 338 b 395 183 240 252 309 183 "},"1":{"ha":461,"x_min":0,"x_max":0,"o":"m 349 959 b 393 881 376 942 393 913 l 393 91 b 301 0 393 41 352 0 b 210 91 251 0 210 41 l 210 733 l 145 700 b 75 695 123 689 98 688 b 22 741 52 703 33 719 b 63 864 0 786 18 841 l 260 963 b 349 959 289 977 322 975 m 365 881 b 335 935 365 903 354 924 b 273 938 316 947 293 948 l 75 839 b 47 754 44 824 31 785 b 84 721 54 738 67 727 b 133 725 100 716 117 717 l 217 767 b 224 769 219 768 221 769 b 231 767 226 769 229 768 b 237 755 235 764 237 760 l 237 91 b 301 27 237 56 266 27 b 365 91 337 27 365 56 m 308 892 b 315 881 312 890 315 886 l 315 91 b 301 78 315 84 309 78 b 288 91 294 78 288 84 l 288 859 l 110 770 b 92 776 103 766 95 769 b 98 794 88 783 91 791 l 295 893 b 308 892 299 895 304 895 "},"2":{"ha":764,"x_min":0,"x_max":0,"o":"m 631 183 b 722 91 681 183 722 142 b 631 0 722 41 681 0 l 137 0 b 55 52 102 0 70 20 b 65 148 40 83 44 121 l 501 700 b 502 702 501 700 502 701 b 515 736 510 711 515 723 b 461 789 515 765 491 789 l 335 789 b 229 683 276 789 229 742 b 137 592 229 633 188 592 b 46 683 87 592 46 633 b 335 972 46 843 175 972 l 461 972 b 697 736 591 972 697 866 b 643 586 697 681 678 628 l 326 183 l 631 183 m 631 27 b 695 91 666 27 695 56 b 631 155 695 127 666 155 l 297 155 b 285 163 292 155 287 158 b 287 178 283 168 283 173 l 622 603 b 622 603 622 603 622 603 b 670 736 653 640 670 688 b 461 945 670 851 576 945 l 335 945 b 73 683 190 945 73 828 b 137 619 73 648 102 619 b 201 683 173 619 201 648 b 335 817 201 757 261 817 l 461 817 b 542 736 506 817 542 781 b 523 684 542 717 535 699 b 522 683 523 684 522 683 l 87 131 b 80 63 72 112 69 85 b 137 27 90 42 113 27 l 631 27 m 631 105 b 644 91 638 105 644 99 b 631 78 644 84 638 78 l 137 78 b 125 85 132 78 127 81 b 126 100 123 90 123 96 l 562 652 b 562 652 562 652 562 652 b 592 736 581 675 592 705 b 461 867 592 808 533 867 l 335 867 b 151 683 233 867 151 785 b 137 670 151 676 145 670 b 124 683 130 670 124 676 b 335 895 124 800 218 895 l 461 895 b 620 736 549 895 620 823 b 583 635 620 699 607 663 l 166 105 l 631 105 "},"3":{"ha":783,"x_min":0,"x_max":0,"o":"m 728 683 b 649 486 728 607 698 538 b 728 289 698 434 728 365 b 439 0 728 130 598 0 l 340 0 b 51 289 181 0 51 130 b 143 380 51 339 92 380 b 234 289 193 380 234 339 b 340 183 234 230 282 183 l 439 183 b 545 289 497 183 545 230 b 439 395 545 347 497 395 l 340 395 b 249 486 290 395 249 436 b 340 578 249 537 290 578 l 439 578 b 545 683 497 578 545 625 b 439 789 545 742 497 789 l 340 789 b 234 683 282 789 234 742 b 143 592 234 633 193 592 b 51 683 92 592 51 633 b 340 972 51 843 181 972 l 439 972 b 728 683 598 972 728 843 m 700 289 b 630 467 700 358 673 420 b 610 486 623 474 617 480 b 630 505 617 492 623 498 b 700 683 673 552 700 615 b 439 945 700 828 583 945 l 340 945 b 79 683 196 945 79 828 b 143 619 79 648 108 619 b 207 683 178 619 207 648 b 340 817 207 757 267 817 l 439 817 b 572 683 512 817 572 757 b 508 569 572 635 546 593 b 439 550 487 557 464 550 l 340 550 b 276 486 305 550 276 521 b 340 422 276 451 305 422 l 439 422 b 508 403 464 422 487 415 b 572 289 546 380 572 337 b 439 155 572 215 512 155 l 340 155 b 207 289 267 155 207 215 b 143 353 207 324 178 353 b 79 289 108 353 79 324 b 340 27 79 145 196 27 l 439 27 b 700 289 583 27 700 145 m 567 456 b 589 437 575 450 582 444 b 650 289 627 399 650 346 b 439 78 650 172 555 78 l 340 78 b 129 289 224 78 129 172 b 143 302 129 296 135 302 b 156 289 150 302 156 296 b 340 105 156 187 239 105 l 439 105 b 622 289 540 105 622 187 b 564 423 622 342 600 390 b 539 442 556 430 548 437 b 439 472 511 461 476 472 l 340 472 b 326 486 333 472 326 479 b 340 500 326 494 333 500 l 439 500 b 539 530 476 500 511 511 b 564 549 548 536 556 542 b 622 683 600 583 622 630 b 439 867 622 785 540 867 l 340 867 b 156 683 239 867 156 785 b 143 670 156 676 150 670 b 129 683 135 670 129 676 b 340 895 129 800 224 895 l 439 895 b 650 683 555 895 650 800 b 589 535 650 626 627 573 b 567 516 582 528 575 522 b 514 486 551 504 533 494 b 567 456 533 479 551 469 "},"4":{"ha":722,"x_min":0,"x_max":0,"o":"m 617 380 b 708 289 667 380 708 339 b 617 197 708 238 667 197 l 511 197 l 511 91 b 419 0 511 41 470 0 b 328 91 369 0 328 41 l 328 197 l 123 197 b 49 235 94 197 66 212 b 37 318 32 259 27 290 l 234 910 b 280 963 242 933 258 952 b 350 968 302 973 326 975 b 402 922 373 960 392 944 b 407 852 413 900 415 875 l 250 380 l 328 380 l 328 486 b 419 578 328 537 369 578 b 511 486 470 578 511 537 l 511 380 l 617 380 m 617 225 b 681 289 652 225 681 253 b 617 353 681 324 652 353 l 483 353 l 483 486 b 419 550 483 521 455 550 b 355 486 384 550 355 521 l 355 353 l 231 353 b 220 358 227 353 223 355 b 218 371 217 362 217 367 l 381 861 b 341 942 393 894 374 930 b 321 945 334 944 327 945 b 292 938 311 945 301 943 b 260 901 277 930 265 917 l 63 309 b 71 251 56 290 59 268 b 123 225 83 235 103 225 l 355 225 l 355 91 b 419 27 355 56 384 27 b 483 91 455 27 483 56 l 483 225 l 617 225 m 617 302 b 630 289 624 302 630 296 b 617 275 630 281 624 275 l 433 275 l 433 91 b 419 78 433 84 427 78 b 406 91 412 78 406 84 l 406 275 l 123 275 b 112 281 119 275 115 277 b 110 293 110 284 109 289 l 308 885 b 325 894 310 892 318 896 b 334 876 332 891 336 884 l 142 302 l 406 302 l 406 486 b 419 500 406 494 412 500 b 433 486 427 500 433 494 l 433 302 l 617 302 "},"5":{"ha":797,"x_min":0,"x_max":0,"o":"m 643 627 b 735 535 694 627 735 586 l 735 91 b 643 0 735 41 694 0 l 150 0 b 58 91 99 0 58 41 b 150 183 58 142 99 183 l 552 183 l 552 444 l 150 444 b 58 535 99 444 58 485 l 58 881 b 150 972 58 931 99 972 l 643 972 b 735 881 694 972 735 931 b 643 789 735 830 694 789 l 241 789 l 241 627 l 643 627 m 707 91 l 707 535 b 643 599 707 571 678 599 l 227 599 b 214 613 220 599 214 606 l 214 803 b 227 817 214 811 220 817 l 643 817 b 707 881 678 817 707 846 b 643 945 707 916 678 945 l 150 945 b 86 881 114 945 86 916 l 86 535 b 150 471 86 500 114 471 l 565 471 b 579 458 573 471 579 465 l 579 169 b 565 155 579 162 573 155 l 150 155 b 86 91 114 155 86 127 b 150 27 86 56 114 27 l 643 27 b 707 91 678 27 707 56 m 643 549 b 657 535 651 549 657 543 l 657 91 b 643 78 657 84 651 78 l 150 78 b 136 91 142 78 136 84 b 150 105 136 99 142 105 l 629 105 l 629 522 l 150 522 b 136 535 142 522 136 528 l 136 881 b 150 895 136 888 142 895 l 643 895 b 657 881 651 895 657 888 b 643 867 657 873 651 867 l 163 867 l 163 549 l 643 549 "},"6":{"ha":779,"x_min":0,"x_max":0,"o":"m 457 578 b 745 289 616 578 745 448 b 457 0 745 130 616 0 l 333 0 b 44 289 174 0 44 130 l 44 309 b 45 323 44 313 44 318 b 69 503 46 383 54 443 b 73 517 70 508 72 512 b 207 784 101 614 145 704 l 322 936 b 450 954 353 976 410 984 b 468 825 490 923 498 866 l 352 674 b 292 578 329 644 309 611 l 457 578 m 457 27 b 718 289 601 27 718 145 b 457 550 718 433 601 550 l 270 550 b 259 556 265 550 261 552 b 258 570 256 560 256 565 b 330 690 277 612 302 653 l 446 842 b 434 932 467 870 462 910 b 395 945 422 941 408 945 b 344 920 376 945 357 936 l 228 768 b 100 509 169 690 126 603 b 99 508 99 509 99 508 b 96 498 98 505 97 501 b 96 497 96 497 96 497 b 72 322 81 439 73 380 b 72 309 72 318 72 313 l 72 289 b 333 27 72 145 189 27 l 457 27 m 457 422 b 590 289 530 422 590 362 b 457 155 590 215 530 155 l 333 155 b 200 289 260 155 200 215 l 200 309 b 200 320 200 312 200 316 b 208 411 200 350 203 381 b 222 422 210 417 215 422 l 457 422 m 457 183 b 562 289 515 183 562 230 b 457 395 562 347 515 395 l 234 395 b 227 320 230 370 228 344 b 227 309 227 316 227 312 l 227 289 b 333 183 227 230 275 183 l 457 183 m 457 500 b 668 289 573 500 668 405 b 457 78 668 172 573 78 l 333 78 b 122 289 217 78 122 172 l 122 309 b 122 321 122 313 122 317 b 146 487 123 377 131 433 b 147 492 146 489 146 491 b 268 737 171 580 212 664 l 384 889 b 403 892 389 895 397 896 b 406 873 409 887 410 879 l 290 721 b 178 500 239 654 201 579 l 457 500 m 457 105 b 640 289 558 105 640 187 b 457 472 640 390 558 472 l 170 472 b 150 321 157 423 151 372 b 150 309 150 317 150 313 l 150 289 b 333 105 150 187 232 105 l 457 105 "},"7":{"ha":765,"x_min":0,"x_max":0,"o":"m 719 925 b 716 832 735 896 734 861 l 557 578 l 614 578 b 706 486 665 578 706 537 b 614 395 706 436 665 395 l 443 395 l 223 43 b 145 0 206 16 177 0 b 97 14 128 0 112 5 b 68 140 54 41 41 97 l 227 395 l 146 395 b 54 486 95 395 54 436 b 146 578 54 537 95 578 l 342 578 l 474 789 l 146 789 b 54 881 95 789 54 830 b 146 972 54 931 95 972 l 639 972 b 719 925 672 972 703 954 m 693 847 b 695 912 706 867 706 892 b 639 945 684 932 662 945 l 146 945 b 82 881 110 945 82 916 b 146 817 82 846 110 817 l 499 817 b 511 810 504 817 508 814 b 510 796 513 805 513 800 l 374 578 l 357 550 l 146 550 b 82 486 110 550 82 521 b 146 422 82 451 110 422 l 277 422 l 91 125 b 112 37 73 95 82 56 b 145 27 122 31 134 27 b 200 57 168 27 188 39 l 411 395 l 428 422 l 614 422 b 678 486 650 422 678 451 b 614 550 678 521 650 550 l 508 550 l 693 847 m 639 895 b 651 887 644 895 649 892 b 651 874 653 883 653 878 l 466 578 l 448 550 l 417 500 l 614 500 b 628 486 622 500 628 494 b 614 472 628 479 622 472 l 400 472 l 368 422 l 157 84 b 146 78 155 80 150 78 b 138 80 143 78 141 78 b 134 99 132 84 130 92 l 319 395 l 336 422 l 368 472 l 146 472 b 132 486 138 472 132 479 b 146 500 132 494 138 500 l 385 500 l 416 550 l 433 578 l 614 867 l 146 867 b 132 881 138 867 132 873 b 146 895 132 888 138 895 l 639 895 "},"8":{"ha":788,"x_min":0,"x_max":0,"o":"m 643 486 b 732 281 700 433 732 359 b 451 0 732 126 606 0 l 337 0 b 56 281 182 0 56 126 b 144 486 56 359 88 433 b 56 691 88 539 56 613 b 337 972 56 846 182 972 l 451 972 b 732 691 606 972 732 846 b 643 486 732 613 700 539 m 451 27 b 704 281 590 27 704 141 b 613 476 704 356 671 427 b 609 486 610 478 609 482 b 613 497 609 490 610 494 b 704 691 671 545 704 616 b 451 945 704 831 590 945 l 337 945 b 83 691 197 945 83 831 b 174 497 83 616 116 545 b 179 486 177 494 179 490 b 174 476 179 482 177 478 b 83 281 116 427 83 356 b 337 27 83 141 197 27 l 451 27 m 490 481 b 654 281 585 462 654 378 b 451 78 654 169 563 78 l 337 78 b 133 281 225 78 133 169 b 297 481 133 378 202 462 l 324 486 l 297 491 b 133 691 202 510 133 594 b 337 895 133 803 225 895 l 451 895 b 654 691 563 895 654 803 b 490 491 654 594 585 510 l 464 486 l 490 481 m 394 500 l 485 518 b 627 691 567 535 627 607 b 451 867 627 788 548 867 l 337 867 b 161 691 240 867 161 788 b 302 518 161 607 220 535 m 451 105 b 627 281 548 105 627 184 b 485 454 627 365 567 437 l 394 472 l 302 454 b 161 281 220 437 161 365 b 337 105 161 184 240 105 l 451 105 m 396 552 b 394 552 395 552 395 552 b 391 552 393 552 392 552 l 312 568 b 211 691 253 579 211 631 b 337 817 211 760 267 817 l 451 817 b 576 691 520 817 576 760 b 475 568 576 631 534 579 l 396 552 m 394 579 l 470 595 b 549 691 516 604 549 644 b 451 789 549 745 505 789 l 337 789 b 238 691 282 789 238 745 b 317 595 238 644 272 604 m 475 405 b 576 270 537 392 582 334 b 448 155 570 205 514 155 l 337 155 b 212 267 272 155 219 204 b 314 405 204 332 250 392 l 391 420 b 396 420 393 421 395 421 l 475 405 m 547 264 b 470 378 557 318 521 367 l 394 393 b 394 393 394 393 394 393 l 317 378 b 240 264 266 367 230 318 b 339 183 248 217 291 183 l 449 183 b 547 264 497 183 539 217 "},"9":{"ha":779,"x_min":0,"x_max":0,"o":"m 445 817 b 579 683 519 817 579 757 l 579 664 b 579 652 579 660 579 656 b 570 562 578 622 575 592 b 557 550 569 555 563 550 l 322 550 b 189 683 249 550 189 610 b 322 817 189 757 249 817 l 445 817 m 551 683 b 445 789 551 742 504 789 l 322 789 b 216 683 264 789 216 742 b 322 578 216 625 264 578 l 545 578 b 551 653 549 603 551 628 b 551 664 551 656 551 660 m 445 972 b 734 683 605 972 734 843 l 734 664 b 734 650 734 659 734 654 b 709 469 733 589 725 529 b 705 455 708 464 707 460 b 572 188 678 358 633 268 l 456 36 b 384 0 439 13 413 0 b 328 19 364 0 344 6 b 293 79 309 33 296 55 b 311 147 290 103 296 127 l 427 299 b 487 395 450 329 470 361 l 322 395 b 33 683 163 395 33 524 b 322 972 33 843 163 972 l 445 972 m 707 664 l 707 683 b 445 945 707 828 590 945 l 322 945 b 61 683 178 945 61 828 b 322 422 61 539 178 422 l 509 422 b 520 416 513 422 518 420 b 521 403 523 412 523 407 b 448 282 501 360 477 319 l 333 130 b 320 83 322 117 318 100 b 345 40 323 66 331 51 b 384 27 356 32 370 27 b 435 53 404 27 422 37 l 550 204 b 679 463 609 282 653 369 b 679 464 679 463 679 464 b 682 475 681 468 682 471 b 683 476 682 475 682 475 b 707 650 698 533 706 592 b 707 664 707 655 707 659 m 445 895 b 656 683 562 895 656 800 l 656 664 b 656 651 656 659 656 655 b 633 485 655 595 647 539 b 632 480 633 483 632 482 b 510 235 608 392 566 309 l 395 83 b 384 78 392 80 388 78 b 375 81 381 78 378 79 b 373 100 369 85 368 94 l 488 252 b 601 472 539 318 577 393 l 322 472 b 111 683 206 472 111 567 b 322 895 111 800 206 895 l 445 895 m 629 683 b 445 867 629 785 547 867 l 322 867 b 138 683 221 867 138 785 b 322 500 138 582 221 500 l 609 500 b 629 651 621 550 628 600 b 629 664 629 655 629 660 "},"\u0000":{"ha":0,"x_min":0,"x_max":0,"o":""},"\n":{"ha":0,"x_min":0,"x_max":0,"o":""},"\r":{"ha":0,"x_min":0,"x_max":0,"o":""}," ":{"ha":421,"x_min":0,"x_max":0,"o":""},"!":{"ha":317,"x_min":0,"x_max":0,"o":"m 158 997 b 249 905 208 997 249 956 l 249 289 b 158 197 249 238 208 197 b 67 289 108 197 67 238 l 67 905 b 158 997 67 956 108 997 m 222 289 l 222 905 b 158 969 222 941 193 969 b 94 905 123 969 94 941 l 94 289 b 158 225 94 253 123 225 b 222 289 193 225 222 253 m 158 919 b 172 905 166 919 172 913 l 172 289 b 158 275 172 281 166 275 b 144 289 151 275 144 281 l 144 905 b 158 919 144 913 151 919 m 158 183 b 249 91 208 183 249 142 b 158 0 249 41 208 0 b 67 91 108 0 67 41 b 158 183 67 142 108 183 m 158 27 b 222 91 193 27 222 56 b 158 155 222 127 193 155 b 94 91 123 155 94 127 b 158 27 94 56 123 27 m 171 97 b 171 94 171 96 171 95 b 172 91 172 93 172 92 b 168 82 172 88 170 84 b 158 78 165 79 162 78 b 148 82 154 78 151 79 b 144 91 146 84 144 88 b 145 94 144 92 144 93 b 145 97 145 95 145 96 b 147 99 146 97 146 98 b 148 101 147 100 148 100 b 158 105 151 104 154 105 b 168 101 162 105 165 104 b 169 99 168 100 169 100 b 171 97 170 98 170 97 "},"#":{"ha":733,"x_min":0,"x_max":0,"o":"m 421 422 l 412 395 l 407 380 l 398 353 l 311 353 l 320 380 l 325 395 l 334 422 m 383 395 l 354 395 l 349 380 l 378 380 m 600 395 l 576 395 l 570 378 b 642 289 611 369 642 333 b 551 197 642 238 601 197 l 510 197 l 465 63 b 378 0 453 25 418 0 b 349 5 369 0 359 2 b 297 51 326 12 308 29 b 292 120 286 72 284 97 l 317 197 l 288 197 l 243 63 b 156 0 231 25 196 0 b 127 5 147 0 137 2 b 75 51 104 12 86 29 b 70 120 64 72 62 97 l 98 204 b 40 289 64 218 40 250 b 132 380 40 339 81 380 l 156 380 l 162 397 b 90 486 121 406 90 442 b 181 578 90 537 131 578 l 222 578 l 267 712 b 313 765 275 736 291 754 b 383 770 335 776 359 778 b 435 724 406 762 425 746 b 440 655 446 703 448 678 l 415 578 l 444 578 l 489 712 b 535 765 497 736 513 754 b 605 770 557 776 581 778 b 657 724 628 762 647 746 b 662 655 668 703 670 678 l 635 571 b 692 486 668 557 692 524 b 600 395 692 436 651 395 m 551 353 l 533 353 l 542 380 l 547 395 l 556 422 l 600 422 b 664 486 636 422 664 451 b 626 545 664 512 649 535 b 600 550 618 548 609 550 l 599 550 l 608 577 l 636 663 b 633 712 642 679 641 697 b 596 744 625 727 612 739 b 576 747 589 746 582 747 b 547 741 566 747 556 745 b 515 704 532 733 520 720 l 473 578 l 464 550 l 377 550 l 386 578 l 414 663 b 411 712 420 679 419 697 b 374 744 403 727 390 739 b 354 747 367 746 360 747 b 325 741 344 747 334 745 b 293 704 310 733 298 720 l 251 578 l 242 550 l 181 550 b 117 486 146 550 117 521 b 171 423 117 454 140 428 b 181 422 174 422 177 422 l 199 422 l 190 395 l 185 380 l 176 353 l 132 353 b 68 289 96 353 68 324 b 106 230 68 263 84 240 b 132 225 114 227 123 225 l 133 225 l 96 112 b 99 63 90 95 91 78 b 136 31 107 47 120 36 b 156 27 143 29 149 27 b 217 71 184 27 208 45 l 259 197 l 268 225 l 355 225 l 346 197 l 318 112 b 321 63 312 95 313 78 b 358 31 329 47 342 36 b 378 27 365 29 372 27 b 439 71 406 27 430 45 l 481 197 l 490 225 l 551 225 b 615 289 586 225 615 253 b 562 352 615 320 592 347 b 551 353 558 352 555 353 m 480 353 l 463 302 l 551 302 b 565 289 559 302 565 296 b 551 275 565 281 559 275 l 454 275 l 437 225 l 428 197 l 391 87 b 378 78 389 81 384 78 b 374 78 377 78 375 78 b 365 96 367 81 363 89 l 399 197 l 408 225 l 425 275 l 232 275 l 215 225 l 206 197 l 169 87 b 156 78 167 81 162 78 b 152 78 155 78 153 78 b 143 96 145 81 141 89 l 177 197 l 186 225 l 203 275 l 132 275 b 122 279 128 275 125 276 b 118 289 120 281 118 285 b 130 302 118 296 123 302 b 132 302 131 302 131 302 l 212 302 l 229 353 l 238 380 l 243 395 l 252 422 l 269 472 l 181 472 b 167 486 173 472 167 479 b 181 500 167 494 173 500 l 278 500 l 295 550 l 304 578 l 341 688 b 358 696 343 695 351 699 b 367 679 365 694 369 686 l 333 578 l 324 550 l 307 500 l 500 500 l 517 550 l 526 578 l 563 688 b 580 696 565 695 573 699 b 589 679 587 694 591 686 l 555 578 l 546 550 l 529 500 l 600 500 b 610 496 604 500 607 498 b 614 486 612 494 614 490 b 602 473 614 479 609 473 b 600 472 601 473 601 472 l 520 472 l 503 422 l 494 395 l 489 380 m 474 422 l 491 472 l 298 472 l 281 422 l 272 395 l 267 380 l 258 353 l 241 302 l 434 302 l 451 353 l 460 380 l 465 395 "},"(":{"ha":381,"x_min":0,"x_max":0,"o":"m 237 486 b 321 132 237 365 265 243 b 325 63 331 110 333 86 b 280 10 318 39 301 21 b 210 5 258 -1 233 -3 b 157 50 187 12 168 29 b 157 51 157 50 157 50 b 54 486 90 185 54 336 b 54 486 54 486 54 486 b 54 486 54 486 54 486 b 157 922 54 637 90 787 b 157 922 157 922 157 922 b 210 968 168 944 187 960 b 280 963 233 975 258 973 b 325 910 301 952 318 933 b 321 840 333 887 331 862 b 237 486 265 729 237 608 m 299 71 b 301 107 303 83 304 95 b 296 120 300 112 298 116 b 287 140 293 127 290 133 b 286 142 286 140 286 141 b 282 150 284 144 283 147 b 281 152 281 151 281 152 b 277 161 279 155 278 158 b 276 163 277 162 276 162 b 272 172 275 166 274 169 b 271 174 272 172 272 173 b 268 183 270 177 269 180 b 267 185 268 183 267 184 b 264 193 266 188 265 191 b 263 196 263 194 263 195 b 260 204 262 199 261 201 b 259 207 259 205 259 206 b 256 215 258 210 257 212 b 255 218 256 216 255 217 b 252 226 254 221 253 223 b 251 229 252 227 251 228 b 248 237 250 232 249 234 b 248 240 248 238 248 239 b 245 248 247 243 246 246 b 244 251 245 249 244 250 b 242 259 243 254 243 257 b 241 262 242 260 241 261 b 239 271 240 265 239 268 b 238 274 238 272 238 273 b 236 282 237 276 236 279 b 235 285 235 283 235 284 b 233 293 234 288 234 290 b 232 296 233 294 232 295 b 230 304 232 299 231 302 b 230 308 230 305 230 306 b 228 315 229 310 228 313 b 227 319 228 317 227 318 b 226 327 227 321 226 324 b 225 330 225 328 225 329 b 223 338 224 333 224 335 b 223 342 223 339 223 340 b 221 349 222 344 222 347 b 221 353 221 351 221 352 b 220 361 220 356 220 358 b 219 365 219 362 219 363 b 218 372 219 367 218 370 b 217 376 218 373 218 375 b 216 383 217 379 217 381 b 216 388 216 385 216 386 b 215 395 216 390 215 392 b 215 399 215 396 215 398 b 214 406 214 402 214 404 b 213 411 214 408 214 409 b 213 418 213 413 213 415 b 212 422 213 419 213 421 b 212 429 212 425 212 427 b 212 434 212 431 212 432 b 211 440 212 436 211 438 b 211 446 211 442 211 444 b 211 452 211 448 211 450 b 211 457 211 454 211 455 b 210 463 210 459 210 461 b 210 469 210 465 210 467 b 210 475 210 471 210 473 b 210 480 210 477 210 478 b 210 486 210 482 210 484 b 210 492 210 488 210 490 b 210 498 210 494 210 496 b 210 504 210 500 210 502 b 210 509 210 505 210 507 b 211 515 210 511 210 513 b 211 520 211 517 211 519 b 211 527 211 523 211 525 b 211 532 211 528 211 530 b 212 538 211 534 212 536 b 212 543 212 540 212 542 b 212 550 212 546 212 548 b 213 555 213 552 213 553 b 213 561 213 557 213 559 b 214 566 214 563 214 565 b 215 573 214 568 214 571 b 215 578 215 575 215 576 b 216 585 215 580 216 582 b 216 589 216 586 216 587 b 217 596 217 591 217 594 b 218 600 218 597 218 599 b 219 608 218 603 219 605 b 220 612 219 609 219 610 b 221 619 220 614 220 617 b 221 623 221 620 221 622 b 223 631 222 625 222 628 b 223 634 223 632 223 633 b 225 642 224 637 224 639 b 226 646 225 643 225 644 b 227 653 226 648 227 651 b 228 657 227 655 228 656 b 230 665 228 659 229 662 b 230 668 230 666 230 667 b 232 676 231 671 232 673 b 233 679 232 677 233 678 b 235 687 234 682 234 685 b 236 691 235 688 235 689 b 238 699 236 693 237 696 b 239 702 238 700 238 701 b 241 710 239 704 240 707 b 242 713 241 711 242 712 b 244 721 243 716 243 718 b 245 724 244 722 245 723 b 248 732 246 727 247 730 b 248 735 248 733 248 734 b 251 743 249 738 250 741 b 252 746 251 744 252 745 b 255 755 253 749 254 752 b 256 757 255 755 256 756 b 259 766 257 760 258 763 b 260 768 259 766 259 767 b 263 777 261 771 262 774 b 264 779 263 777 263 778 b 267 787 265 782 266 785 b 268 790 267 788 268 789 b 271 798 269 793 270 795 b 272 801 272 799 272 800 b 276 809 274 803 275 806 b 277 811 276 810 277 811 b 281 820 278 814 279 817 b 282 822 281 821 281 821 b 286 831 283 825 284 828 b 287 833 286 831 286 832 b 296 852 290 839 293 846 b 301 865 298 856 300 861 b 299 901 304 877 303 889 b 267 938 294 917 283 930 b 239 945 258 943 249 945 b 219 942 232 945 225 944 b 189 921 207 938 197 930 b 182 909 186 917 184 914 b 175 897 179 905 177 901 b 159 860 170 885 164 872 b 158 859 158 859 158 859 b 153 847 156 855 155 851 b 152 845 153 847 153 846 b 148 835 151 842 150 838 b 147 832 148 834 147 833 b 143 822 146 829 145 825 b 142 819 143 821 142 820 b 139 810 141 816 140 813 b 137 806 138 808 138 807 b 134 797 136 803 135 800 b 133 793 134 795 133 794 b 130 784 132 790 131 787 b 128 780 129 783 129 781 b 126 771 127 777 127 774 b 124 766 125 770 125 768 b 122 758 123 764 123 761 b 120 753 121 757 121 755 b 118 745 119 751 119 748 b 116 740 117 744 117 742 b 114 732 116 738 115 735 b 113 727 114 731 113 729 b 111 719 112 725 112 722 b 110 714 110 718 110 716 b 108 706 109 711 108 709 b 106 701 107 704 107 703 b 105 693 106 698 105 696 b 103 688 104 691 104 689 b 102 680 103 685 102 682 b 101 674 101 678 101 676 b 99 667 100 672 100 669 b 98 661 99 665 98 663 b 97 653 98 658 97 656 b 96 648 96 651 96 650 b 94 640 95 645 95 643 b 93 634 94 638 94 636 b 92 627 93 632 93 629 b 91 621 92 625 92 623 b 90 613 91 618 91 616 b 89 607 90 611 90 609 b 89 600 89 605 89 602 b 88 594 88 598 88 596 b 87 586 88 591 87 589 b 86 581 87 584 87 582 b 86 573 86 578 86 575 b 85 567 85 571 85 569 b 84 559 85 564 85 562 b 84 554 84 557 84 556 b 83 546 84 551 84 548 b 83 540 83 544 83 542 b 83 532 83 537 83 535 b 82 527 83 530 83 528 b 82 518 82 524 82 521 b 82 513 82 516 82 515 b 82 504 82 510 82 507 b 82 500 82 502 82 501 b 82 486 82 495 82 491 b 82 473 82 482 82 477 b 82 468 82 471 82 470 b 82 459 82 465 82 462 b 82 454 82 457 82 456 b 82 446 82 451 82 448 b 83 440 83 444 83 442 b 83 432 83 438 83 435 b 83 427 83 430 83 428 b 84 419 84 424 84 421 b 84 413 84 417 84 415 b 85 405 85 410 85 408 b 86 399 85 403 85 401 b 86 392 86 397 86 394 b 87 386 87 390 87 388 b 88 378 87 383 88 381 b 89 372 88 376 88 374 b 89 365 89 370 89 367 b 90 359 90 363 90 361 b 91 351 91 356 91 354 b 92 346 92 349 92 348 b 93 338 93 343 93 341 b 94 332 94 336 94 334 b 96 325 95 330 95 327 b 97 319 96 323 96 321 b 98 311 97 316 98 314 b 99 306 98 309 99 308 b 101 298 100 303 100 301 b 102 292 101 296 101 294 b 103 285 102 290 103 287 b 105 279 104 283 104 281 b 106 271 105 277 106 274 b 108 266 107 270 107 268 b 110 258 108 263 109 261 b 111 253 110 256 110 255 b 113 245 112 250 112 248 b 114 240 113 243 114 242 b 116 232 115 237 116 235 b 118 227 117 230 117 229 b 120 219 119 224 119 222 b 122 214 121 217 121 216 b 124 206 123 211 123 208 b 126 201 125 204 125 203 b 128 193 127 198 127 195 b 130 188 129 191 129 190 b 133 180 131 185 132 183 b 134 175 133 178 134 177 b 137 167 135 172 136 170 b 139 163 138 165 138 164 b 142 154 140 160 141 157 b 143 150 142 152 143 151 b 147 140 145 147 146 144 b 148 137 147 139 148 138 b 152 127 150 134 151 131 b 153 125 153 126 153 126 b 158 113 155 121 156 117 b 158 112 158 113 158 113 b 175 75 164 100 170 87 b 182 63 177 71 179 67 b 189 51 184 59 186 55 b 219 31 197 42 207 35 b 239 27 225 28 232 27 b 267 34 249 27 258 30 b 299 71 283 42 294 55 m 249 102 b 251 98 249 101 250 99 b 252 92 252 96 252 94 b 245 79 253 87 250 82 b 245 79 245 79 245 79 b 245 79 245 79 245 79 b 242 78 244 79 243 78 b 242 78 242 78 242 78 b 240 78 241 78 241 78 b 240 78 240 78 240 78 b 239 78 239 78 239 78 b 237 78 238 78 238 78 b 237 78 237 78 237 78 b 235 78 236 78 235 78 b 234 79 234 78 234 78 b 232 79 234 79 233 79 b 232 80 232 79 232 80 b 230 81 231 80 231 80 b 230 81 230 81 230 81 b 228 83 229 82 229 82 b 228 83 228 83 228 83 b 226 85 227 84 227 85 b 223 92 225 88 224 90 b 221 97 222 94 221 96 b 220 98 221 97 221 97 b 216 107 219 101 218 104 b 215 109 216 107 216 108 b 210 120 213 113 212 117 b 210 121 210 121 210 121 b 205 132 208 125 206 129 b 203 136 204 133 204 135 b 200 144 202 139 201 141 b 198 149 199 145 199 147 b 195 156 197 151 196 153 b 193 161 194 157 194 159 b 190 168 192 163 191 165 b 188 173 190 169 189 171 b 186 180 188 175 187 177 b 184 185 185 181 185 183 b 182 192 183 187 182 189 b 180 197 181 194 180 195 b 178 204 179 199 178 202 b 176 209 177 206 176 208 b 174 216 175 212 174 214 b 172 222 173 218 172 220 b 170 228 171 224 171 226 b 168 234 169 230 169 232 b 166 240 168 236 167 238 b 165 246 166 242 165 244 b 163 253 164 248 164 251 b 161 259 162 255 162 257 b 160 265 161 261 160 263 b 158 271 159 267 159 269 b 157 278 158 273 157 275 b 155 283 156 280 156 281 b 154 290 155 286 154 288 b 152 296 153 292 153 294 b 151 303 152 298 151 300 b 150 308 151 305 150 306 b 148 315 149 311 149 313 b 147 321 148 317 148 319 b 146 328 147 323 147 325 b 145 334 146 330 145 332 b 144 340 145 336 144 338 b 143 346 144 342 143 344 b 142 353 143 348 142 351 b 141 359 142 355 141 357 b 140 366 141 361 140 363 b 139 371 140 368 140 370 b 138 378 139 374 139 376 b 138 384 138 380 138 382 b 137 391 137 386 137 389 b 136 397 137 393 137 395 b 136 404 136 399 136 402 b 135 410 136 406 135 408 b 135 417 135 412 135 414 b 134 422 134 419 134 420 b 134 430 134 425 134 427 b 133 435 134 431 133 433 b 133 443 133 438 133 440 b 133 448 133 444 133 446 b 132 456 133 450 132 453 b 132 461 132 457 132 459 b 132 469 132 464 132 467 b 132 473 132 471 132 472 b 132 486 132 478 132 482 b 132 486 132 486 132 486 b 132 486 132 486 132 486 b 132 499 132 490 132 495 b 132 503 132 500 132 501 b 132 512 132 506 132 509 b 132 516 132 513 132 515 b 133 524 132 519 133 522 b 133 530 133 526 133 528 b 133 537 133 532 133 535 b 134 543 133 539 134 541 b 134 550 134 545 134 547 b 135 555 134 552 134 554 b 135 563 135 558 135 560 b 136 568 135 565 136 566 b 136 575 136 571 136 573 b 137 581 137 577 137 579 b 138 588 137 583 137 586 b 138 594 138 590 138 592 b 139 601 139 596 139 598 b 140 607 140 603 140 605 b 141 614 140 609 141 611 b 142 619 141 615 142 617 b 143 626 142 622 143 624 b 144 632 143 628 144 630 b 145 639 144 634 145 636 b 146 645 145 641 146 643 b 147 651 147 647 147 649 b 148 657 148 653 148 655 b 150 664 149 659 149 662 b 151 670 150 666 151 668 b 152 676 151 672 152 674 b 154 682 153 678 153 680 b 155 689 154 684 155 687 b 157 695 156 691 156 693 b 158 701 157 697 158 699 b 160 707 159 703 159 705 b 161 714 160 709 161 712 b 163 719 162 716 162 718 b 165 726 164 722 164 724 b 166 732 165 728 166 730 b 168 738 167 734 168 736 b 170 744 169 740 169 742 b 172 751 171 746 171 748 b 174 756 172 753 173 754 b 176 763 174 758 175 761 b 178 768 176 765 177 767 b 180 775 178 771 179 773 b 182 781 180 777 181 779 b 184 787 182 783 183 785 b 186 793 185 789 185 791 b 188 799 187 795 188 797 b 190 805 189 801 190 803 b 193 811 191 807 192 809 b 195 816 194 813 194 815 b 198 824 196 819 197 821 b 200 828 199 825 199 827 b 203 836 201 831 202 834 b 205 840 204 838 204 839 b 210 851 206 844 208 847 b 210 852 210 851 210 852 b 215 863 212 856 213 860 b 216 866 216 864 216 865 b 220 875 218 869 219 872 b 221 875 221 875 221 875 b 223 880 221 877 222 878 b 226 887 224 882 225 885 b 228 889 227 888 227 888 b 228 890 228 889 228 889 b 230 891 229 890 229 891 b 230 891 230 891 230 891 b 232 893 231 892 231 892 b 232 893 232 893 232 893 b 234 894 233 893 234 893 b 235 894 234 894 234 894 b 237 894 235 894 236 894 b 237 894 237 894 237 894 b 239 895 238 894 238 895 b 240 895 239 895 239 895 b 240 894 240 895 240 894 b 242 894 241 894 241 894 b 242 894 242 894 242 894 b 245 893 243 894 244 894 b 245 893 245 893 245 893 b 245 893 245 893 245 893 b 252 880 250 891 253 885 b 251 875 252 878 252 876 b 249 870 250 873 249 872 b 245 863 248 868 246 865 b 245 862 245 863 245 863 b 243 857 244 861 243 859 b 240 852 242 856 241 854 b 237 846 239 850 238 848 b 235 840 237 844 236 842 b 232 835 234 838 233 837 b 230 829 232 833 231 831 b 228 824 229 827 228 825 b 225 817 227 821 226 819 b 223 812 224 816 223 814 b 220 806 222 810 221 808 b 218 801 220 804 219 802 b 216 794 217 798 217 796 b 214 789 215 792 215 791 b 211 782 213 787 212 785 b 210 777 211 781 210 779 b 207 771 209 775 208 773 b 206 766 207 769 206 767 b 203 759 205 763 204 761 b 202 754 203 757 202 756 b 200 747 201 752 200 749 b 198 742 199 745 199 744 b 196 735 197 740 197 738 b 195 730 195 734 195 732 b 193 723 194 728 193 726 b 191 718 192 722 192 720 b 189 711 191 716 190 714 b 188 706 189 710 188 708 b 186 699 187 704 187 702 b 185 694 186 698 185 696 b 183 687 184 692 184 690 b 182 682 183 686 182 684 b 180 675 182 680 181 678 b 179 670 180 674 180 672 b 178 663 179 668 178 666 b 177 658 178 662 177 660 b 175 651 176 656 176 654 b 175 646 175 650 175 648 b 173 639 174 644 174 641 b 172 634 173 637 173 636 b 171 627 172 632 172 629 b 170 622 171 625 171 623 b 169 615 170 619 170 617 b 169 609 169 613 169 611 b 168 603 168 607 168 605 b 167 597 167 601 167 599 b 166 590 167 595 166 593 b 165 585 166 589 166 587 b 165 578 165 583 165 580 b 164 573 164 576 164 574 b 163 566 164 570 164 568 b 163 560 163 564 163 562 b 162 554 163 558 163 556 b 162 548 162 552 162 550 b 162 541 162 546 162 544 b 161 536 161 539 161 538 b 161 529 161 533 161 531 b 161 523 161 527 161 525 b 160 517 160 521 160 519 b 160 511 160 515 160 513 b 160 505 160 509 160 507 b 160 498 160 503 160 501 b 160 492 160 496 160 494 b 160 486 160 490 160 488 b 160 480 160 484 160 482 b 160 474 160 478 160 476 b 160 468 160 472 160 470 b 160 461 160 466 160 463 b 160 455 160 459 160 457 b 161 449 160 453 160 451 b 161 443 161 447 161 445 b 161 437 161 441 161 439 b 162 431 161 435 161 433 b 162 424 162 429 162 426 b 162 419 162 422 162 420 b 163 412 163 416 163 414 b 163 406 163 410 163 408 b 164 400 164 404 164 402 b 165 394 164 398 164 396 b 165 387 165 392 165 390 b 166 382 166 386 166 384 b 167 375 166 380 167 377 b 168 370 167 373 167 371 b 169 363 168 367 168 365 b 169 357 169 361 169 359 b 170 351 170 355 170 353 b 171 345 171 349 171 347 b 172 338 172 343 172 341 b 173 333 173 337 173 335 b 175 326 174 331 174 328 b 175 321 175 324 175 323 b 177 314 176 319 176 316 b 178 309 177 312 178 311 b 179 302 178 307 179 304 b 180 297 180 300 180 299 b 182 290 181 294 182 292 b 183 285 182 288 183 286 b 185 278 184 282 184 280 b 186 273 185 276 186 274 b 188 266 187 270 187 268 b 189 261 188 264 189 262 b 191 254 190 258 191 256 b 193 249 192 252 192 251 b 195 242 193 247 194 244 b 196 237 195 240 195 239 b 198 230 197 235 197 232 b 200 225 199 228 199 227 b 202 218 200 223 201 221 b 203 213 202 217 203 215 b 206 207 204 211 205 209 b 207 202 206 205 207 203 b 210 195 208 199 209 197 b 211 190 210 193 211 192 b 214 183 212 188 213 185 b 216 178 215 182 215 180 b 218 172 217 176 217 174 b 220 167 219 170 220 168 b 223 160 221 164 222 162 b 225 155 223 158 224 157 b 228 149 226 153 227 151 b 230 144 228 147 229 145 b 232 137 231 141 232 139 b 235 132 233 136 234 134 b 237 126 236 130 237 128 b 240 121 238 124 239 122 b 243 115 241 119 242 117 b 245 110 243 113 244 111 b 245 109 245 110 245 110 b 249 102 246 107 248 105 "},")":{"ha":381,"x_min":0,"x_max":0,"o":"m 223 922 b 326 486 290 787 326 637 b 326 486 326 486 326 486 b 326 486 326 486 326 486 b 223 51 326 336 290 185 b 223 50 223 50 223 50 b 170 5 212 29 193 12 b 101 10 147 -3 122 -1 b 55 63 79 21 62 39 b 60 132 47 86 49 110 b 143 486 115 243 143 365 b 60 840 143 608 115 729 b 55 910 49 862 47 887 b 101 963 62 933 79 952 b 170 968 122 973 147 975 b 223 922 193 960 212 944 b 223 922 223 922 223 922 m 299 473 b 299 486 299 477 299 482 b 299 500 299 491 299 495 b 298 504 299 501 298 502 b 298 513 298 507 298 510 b 298 518 298 515 298 516 b 298 527 298 521 298 524 b 297 532 298 528 298 530 b 297 540 297 535 297 537 b 297 546 297 542 297 544 b 296 554 297 548 296 551 b 296 559 296 555 296 557 b 295 567 296 562 295 564 b 295 573 295 569 295 571 b 294 581 294 575 294 578 b 293 586 294 582 293 584 b 292 594 293 589 293 591 b 292 600 292 596 292 598 b 291 607 291 602 291 605 b 290 613 290 609 290 611 b 289 621 290 616 289 618 b 288 627 289 623 288 625 b 287 634 288 629 287 632 b 286 640 287 636 286 638 b 285 648 285 642 285 645 b 284 653 284 649 284 651 b 282 661 283 656 283 658 b 281 667 282 663 281 665 b 280 674 281 669 280 672 b 278 680 279 676 279 678 b 277 687 278 682 277 685 b 276 693 276 689 276 691 b 274 701 275 696 274 698 b 273 706 273 703 273 704 b 271 714 272 709 271 711 b 269 719 270 716 270 718 b 267 727 269 722 268 725 b 266 732 267 729 266 731 b 264 740 265 735 264 738 b 262 745 263 742 263 744 b 260 753 262 748 261 751 b 258 758 259 755 259 757 b 256 766 258 761 257 764 b 255 771 256 768 255 770 b 252 779 254 774 253 777 b 250 784 251 781 251 783 b 248 793 249 787 248 790 b 246 797 247 794 247 795 b 243 806 245 800 244 803 b 242 810 242 807 242 808 b 238 819 240 813 239 816 b 237 822 238 820 237 821 b 233 832 236 825 234 829 b 232 835 233 833 232 834 b 228 845 231 838 229 842 b 227 847 228 846 227 847 b 222 859 225 851 224 855 b 222 860 222 859 222 859 b 205 897 216 872 211 885 b 199 909 203 901 201 905 b 191 921 197 914 194 917 b 162 942 184 930 173 938 b 141 945 155 944 148 945 b 113 938 132 945 122 943 b 81 901 98 930 86 917 b 79 865 77 889 76 877 b 84 852 81 861 82 856 b 94 833 87 846 91 839 b 95 831 94 832 94 831 b 98 822 96 828 97 825 b 99 820 99 821 99 821 b 103 811 101 817 102 814 b 104 809 104 811 104 810 b 108 801 105 806 107 803 b 109 798 108 800 108 799 b 112 790 110 795 111 793 b 113 787 112 789 113 788 b 116 779 114 785 115 782 b 117 776 117 778 117 777 b 120 768 118 774 119 771 b 121 765 121 767 121 766 b 124 757 122 763 123 760 b 125 754 125 756 125 755 b 128 746 126 752 127 749 b 129 743 128 745 129 744 b 132 735 130 741 131 738 b 133 732 132 734 132 733 b 135 724 133 729 134 727 b 136 721 135 723 136 722 b 138 713 137 718 138 716 b 139 710 139 712 139 711 b 142 702 140 707 141 704 b 142 699 142 701 142 700 b 144 691 143 696 144 693 b 145 687 145 689 145 688 b 147 679 146 685 147 682 b 148 676 147 678 148 677 b 150 668 149 673 149 671 b 151 665 150 667 150 666 b 152 657 151 662 152 659 b 153 653 153 656 153 654 b 155 646 154 651 154 648 b 155 642 155 644 155 643 b 157 634 156 639 156 637 b 157 630 157 633 157 632 b 159 623 158 628 158 625 b 159 619 159 622 159 620 b 161 612 160 617 160 614 b 161 608 161 610 161 609 b 162 600 162 605 162 603 b 163 596 162 599 163 597 b 164 589 163 594 163 591 b 164 585 164 587 164 586 b 165 578 165 582 165 580 b 166 573 165 576 165 575 b 166 566 166 571 166 568 b 167 561 166 565 167 563 b 167 555 167 559 167 557 b 168 550 167 553 168 551 b 168 543 168 548 168 545 b 169 538 168 542 168 540 b 169 532 169 536 169 534 b 169 527 169 530 169 528 b 169 520 169 525 169 523 b 170 515 170 519 170 517 b 170 509 170 513 170 511 b 170 504 170 507 170 505 b 170 498 170 502 170 500 b 170 492 170 496 170 494 b 170 486 170 490 170 488 b 170 480 170 484 170 482 b 170 475 170 478 170 477 b 170 469 170 473 170 471 b 170 463 170 467 170 465 b 170 457 170 461 170 459 b 169 452 170 455 170 454 b 169 446 169 450 169 448 b 169 440 169 444 169 442 b 169 434 169 438 169 436 b 168 429 168 432 168 431 b 168 422 168 427 168 425 b 167 417 168 421 167 419 b 167 411 167 415 167 413 b 166 406 167 409 166 408 b 166 399 166 404 166 402 b 165 395 165 398 165 396 b 164 388 165 392 165 390 b 164 383 164 386 164 385 b 163 376 163 381 163 379 b 162 372 163 375 162 373 b 161 365 162 370 162 367 b 161 361 161 363 161 362 b 159 353 160 358 160 356 b 159 349 159 352 159 351 b 157 342 158 347 158 344 b 157 338 157 340 157 339 b 155 330 156 335 156 333 b 155 327 155 329 155 328 b 153 319 154 324 154 321 b 152 315 153 318 153 317 b 151 307 152 313 151 310 b 150 304 150 306 150 305 b 148 296 149 301 149 299 b 147 293 148 295 147 294 b 145 285 147 290 146 288 b 144 282 145 284 145 283 b 142 274 144 279 143 276 b 142 271 142 273 142 272 b 139 262 141 268 140 265 b 138 259 139 261 139 260 b 136 251 138 257 137 254 b 135 248 136 250 135 249 b 133 240 134 246 133 243 b 132 237 132 239 132 238 b 129 229 131 234 130 232 b 128 226 129 228 128 227 b 125 218 127 223 126 221 b 124 215 125 217 125 216 b 121 207 123 212 122 210 b 120 204 121 206 121 205 b 117 196 119 201 118 199 b 116 193 117 195 117 194 b 113 185 115 190 114 188 b 112 182 113 184 112 183 b 109 174 111 180 110 177 b 108 172 108 173 108 172 b 104 163 107 169 105 166 b 103 161 104 162 104 162 b 99 152 102 158 101 155 b 98 150 99 152 99 151 b 95 142 97 147 96 144 b 94 139 94 141 94 140 b 84 120 91 133 87 126 b 79 107 82 116 81 112 b 81 71 76 95 77 83 b 113 34 86 55 98 42 b 141 27 122 30 132 27 b 162 31 148 27 155 28 b 191 51 173 35 184 42 b 199 63 194 55 197 59 b 205 75 201 67 203 71 b 222 112 211 87 216 100 b 222 113 222 113 222 113 b 227 125 224 117 225 121 b 228 127 227 126 228 126 b 232 137 229 131 231 134 b 233 140 232 138 233 139 b 237 150 234 144 236 147 b 238 154 237 151 238 152 b 242 163 239 157 240 160 b 243 167 242 164 242 165 b 246 175 244 170 245 172 b 248 180 247 177 247 178 b 250 188 248 182 249 185 b 252 193 251 190 251 191 b 255 201 253 195 254 198 b 256 206 255 203 256 204 b 258 214 257 208 258 211 b 260 219 259 216 259 217 b 262 227 261 222 262 224 b 264 232 263 229 263 230 b 266 240 264 235 265 237 b 267 245 266 242 267 243 b 269 253 268 248 269 250 b 271 258 270 255 270 256 b 273 266 271 261 272 263 b 274 271 273 268 273 270 b 276 279 274 274 275 277 b 277 285 276 281 276 283 b 278 292 277 287 278 290 b 280 298 279 294 279 296 b 281 306 280 301 281 303 b 282 311 281 308 282 309 b 284 319 283 314 283 316 b 285 325 284 321 284 323 b 286 332 285 327 285 330 b 287 338 286 334 287 336 b 288 346 287 341 288 343 b 289 351 288 348 289 349 b 290 359 289 354 290 356 b 291 365 290 361 290 363 b 292 372 291 367 291 370 b 292 378 292 374 292 376 b 293 386 293 381 293 383 b 294 392 293 388 294 390 b 295 399 294 394 294 397 b 295 405 295 401 295 403 b 296 413 295 408 296 410 b 296 419 296 415 296 417 b 297 427 296 421 297 424 b 297 432 297 428 297 430 b 297 440 297 435 297 438 b 298 446 298 442 298 444 b 298 454 298 448 298 451 b 298 459 298 456 298 457 b 298 468 298 462 298 465 b 299 473 298 470 299 471 m 248 503 b 248 499 248 501 248 500 b 248 486 248 495 248 490 b 248 486 248 486 248 486 b 248 486 248 486 248 486 b 248 473 248 482 248 478 b 248 469 248 472 248 471 b 248 461 248 466 248 464 b 248 456 248 459 248 457 b 247 448 248 453 248 450 b 247 443 247 446 247 444 b 247 435 247 440 247 438 b 247 430 247 433 247 431 b 246 422 246 427 246 425 b 246 417 246 420 246 419 b 245 410 245 414 245 412 b 244 404 245 408 245 406 b 244 397 244 402 244 399 b 243 391 244 395 243 393 b 242 384 243 389 243 386 b 242 378 242 382 242 380 b 241 371 241 376 241 374 b 240 366 241 369 240 368 b 239 359 240 363 239 361 b 238 353 239 357 239 355 b 237 346 238 351 238 348 b 236 340 237 344 237 342 b 235 333 236 338 236 336 b 234 328 235 332 234 330 b 233 321 234 325 233 323 b 232 315 232 319 232 317 b 230 308 231 313 231 311 b 229 303 230 306 230 304 b 228 296 229 300 228 298 b 226 290 227 294 227 292 b 225 283 226 288 225 286 b 224 278 225 281 224 280 b 222 271 223 275 223 273 b 221 265 221 269 221 267 b 219 259 220 263 219 261 b 217 253 218 257 218 255 b 215 246 217 251 216 248 b 214 240 215 244 214 242 b 212 234 213 238 213 236 b 210 228 211 232 211 230 b 208 222 210 226 209 224 b 207 216 208 220 207 218 b 204 209 206 214 205 212 b 203 204 204 208 203 206 b 200 197 202 202 201 199 b 198 192 200 195 199 194 b 196 185 198 189 197 187 b 194 180 196 183 195 181 b 192 173 193 177 193 175 b 190 168 191 171 190 169 b 187 161 189 165 188 163 b 185 156 186 159 186 157 b 182 148 184 153 183 151 b 180 144 182 147 181 145 b 177 136 179 141 178 139 b 175 132 176 135 176 133 b 171 121 174 128 172 125 b 170 120 171 121 170 121 b 165 109 169 117 167 113 b 164 107 165 108 164 107 b 160 98 163 104 161 101 b 160 97 160 97 160 97 b 157 92 159 96 158 94 b 154 85 156 90 155 88 b 152 83 153 84 153 84 b 152 83 152 83 152 83 b 150 81 152 82 151 82 b 150 81 150 81 150 81 b 148 80 150 80 149 80 b 148 79 148 79 148 79 b 146 78 147 79 147 79 b 146 78 146 78 146 78 b 143 78 145 78 144 78 b 143 78 143 78 143 78 b 141 78 142 78 142 78 b 141 78 141 78 141 78 b 140 78 141 78 141 78 b 138 78 140 78 139 78 b 138 78 138 78 138 78 b 135 79 137 78 136 79 b 135 79 135 79 135 79 b 135 79 135 79 135 79 b 128 92 130 82 127 87 b 129 98 128 94 128 96 b 132 102 130 99 131 101 b 135 109 133 105 134 107 b 135 110 135 109 135 110 b 138 115 136 111 137 113 b 140 121 138 117 139 119 b 143 126 141 122 142 124 b 145 132 144 128 145 130 b 148 137 146 134 147 136 b 150 143 149 139 150 141 b 153 149 151 145 152 147 b 155 155 154 151 154 153 b 157 160 156 157 157 158 b 160 167 158 162 159 164 b 162 172 161 168 161 170 b 164 178 163 174 164 176 b 166 183 165 180 166 182 b 169 190 167 185 168 188 b 171 195 169 191 170 193 b 173 202 171 197 172 199 b 175 207 173 203 174 205 b 177 213 175 209 176 211 b 178 218 177 215 178 217 b 181 225 179 221 180 223 b 182 230 181 227 182 228 b 184 237 183 232 184 235 b 186 242 185 239 185 240 b 188 249 186 244 187 247 b 189 254 188 251 189 252 b 191 261 190 256 190 258 b 192 266 191 262 192 264 b 194 273 193 268 193 270 b 195 278 194 274 195 276 b 197 285 196 280 196 282 b 198 290 197 286 198 288 b 200 297 199 292 199 294 b 201 302 200 298 200 300 b 202 309 201 304 202 307 b 203 314 203 311 203 312 b 205 321 204 316 204 319 b 206 326 205 323 205 324 b 207 333 206 328 207 331 b 208 338 207 335 208 337 b 209 345 208 341 209 343 b 210 351 209 347 210 349 b 211 357 210 353 211 355 b 212 363 211 359 211 361 b 213 370 212 365 212 367 b 213 375 213 371 213 373 b 214 382 214 377 214 380 b 215 387 214 384 215 385 b 216 394 215 390 215 392 b 216 400 216 396 216 398 b 217 406 216 402 217 404 b 217 412 217 408 217 410 b 218 419 217 414 218 416 b 218 424 218 420 218 422 b 219 431 218 426 219 429 b 219 437 219 433 219 435 b 219 443 219 439 219 441 b 220 449 219 445 220 447 b 220 455 220 451 220 453 b 220 461 220 457 220 459 b 220 468 220 463 220 466 b 220 474 220 470 220 472 b 220 480 220 476 220 478 b 220 486 220 482 220 484 b 220 492 220 488 220 490 b 220 498 220 494 220 496 b 220 505 220 500 220 503 b 220 511 220 507 220 509 b 220 517 220 513 220 515 b 220 523 220 519 220 521 b 219 529 220 525 219 527 b 219 536 219 531 219 533 b 219 541 219 538 219 539 b 218 548 219 544 218 546 b 218 554 218 550 218 552 b 217 560 218 556 217 558 b 217 566 217 562 217 564 b 216 573 217 568 216 570 b 216 578 216 574 216 576 b 215 585 215 580 215 583 b 214 590 215 587 214 589 b 213 597 214 593 214 595 b 213 603 213 599 213 601 b 212 609 212 605 212 607 b 211 615 211 611 211 613 b 210 622 211 617 210 619 b 209 627 210 623 209 625 b 208 634 209 629 208 632 b 207 639 208 636 207 637 b 206 646 207 641 206 644 b 205 651 205 648 205 650 b 203 658 204 654 204 656 b 202 663 203 660 203 662 b 201 670 202 666 201 668 b 200 675 200 672 200 674 b 198 682 199 678 199 680 b 197 687 198 684 197 686 b 195 694 196 690 196 692 b 194 699 195 696 194 698 b 192 706 193 702 193 704 b 191 711 192 708 191 710 b 189 718 190 714 190 716 b 188 723 189 720 188 722 b 186 730 187 726 186 728 b 184 735 185 732 185 734 b 182 742 184 738 183 740 b 181 747 182 744 181 745 b 178 754 180 749 179 752 b 177 759 178 756 177 757 b 175 766 176 761 175 763 b 173 771 174 767 173 769 b 171 777 172 773 171 775 b 169 782 170 779 169 781 b 166 789 168 785 167 787 b 164 794 166 791 165 792 b 162 800 164 796 163 798 b 160 806 161 802 161 804 b 157 812 159 808 158 810 b 155 817 157 814 156 816 b 153 824 154 819 154 821 b 150 829 152 825 151 827 b 148 835 150 831 149 833 b 145 840 147 837 146 838 b 143 846 145 842 144 844 b 140 852 142 848 141 850 b 138 857 139 854 138 856 b 135 862 137 859 136 861 b 135 863 135 863 135 863 b 132 870 134 865 133 868 b 129 875 131 871 130 873 b 128 880 128 876 128 878 b 135 893 127 885 130 891 b 135 893 135 893 135 893 b 135 893 135 893 135 893 b 138 894 136 893 137 894 b 138 894 138 894 138 894 b 140 894 139 894 140 894 b 141 894 141 894 141 894 b 141 895 141 895 141 895 b 143 894 142 895 142 894 b 143 894 143 894 143 894 b 146 894 144 894 145 894 b 146 894 146 894 146 894 b 148 893 147 893 147 893 b 148 893 148 893 148 893 b 150 891 149 892 150 892 b 150 891 150 891 150 891 b 152 889 151 891 152 890 b 152 889 152 889 152 889 b 154 887 153 888 153 888 b 157 880 155 885 156 882 b 160 875 158 878 159 877 b 160 875 160 875 160 875 b 164 866 161 872 163 869 b 165 863 164 865 165 864 b 170 852 167 860 169 856 b 171 851 170 852 171 851 b 175 840 172 847 174 844 b 177 836 176 839 176 838 b 180 828 178 834 179 831 b 182 824 181 827 182 825 b 185 816 183 821 184 819 b 187 811 186 815 186 813 b 190 805 188 809 189 807 b 192 799 190 803 191 801 b 194 793 193 797 193 795 b 196 787 195 791 196 789 b 198 781 197 785 198 783 b 200 775 199 779 200 777 b 203 768 201 773 202 771 b 204 763 203 767 204 765 b 207 756 205 761 206 758 b 208 751 207 754 208 752 b 210 744 209 748 210 746 b 212 738 211 742 211 740 b 214 732 213 736 213 734 b 215 726 214 730 215 728 b 217 719 216 724 217 722 b 219 714 218 718 218 716 b 221 707 219 711 220 709 b 222 701 221 705 221 703 b 224 695 223 699 223 697 b 225 689 224 693 225 691 b 226 682 225 687 226 684 b 228 676 227 680 227 678 b 229 670 228 674 229 672 b 230 664 230 668 230 666 b 232 657 231 662 231 659 b 233 651 232 655 232 653 b 234 645 233 649 234 647 b 235 639 234 643 235 641 b 236 632 236 636 236 634 b 237 626 237 630 237 628 b 238 619 238 624 238 622 b 239 613 239 617 239 615 b 240 607 239 611 240 609 b 241 601 240 605 241 603 b 242 594 241 598 241 596 b 242 588 242 592 242 590 b 243 581 243 586 243 583 b 244 575 243 579 244 577 b 244 568 244 573 244 571 b 245 563 245 566 245 565 b 246 555 245 560 245 558 b 246 550 246 554 246 552 b 247 543 246 547 246 545 b 247 537 247 541 247 539 b 247 530 247 535 247 532 b 247 524 247 528 247 526 b 248 516 248 522 248 519 b 248 512 248 515 248 513 b 248 503 248 509 248 506 "},"+":{"ha":444,"x_min":0,"x_max":0,"o":"m 321 380 b 412 289 371 380 412 339 b 321 197 412 238 371 197 l 313 197 l 313 190 b 222 99 313 140 272 99 b 131 190 172 99 131 140 l 131 197 l 123 197 b 32 289 73 197 32 238 b 123 380 32 339 73 380 l 131 380 l 131 387 b 222 479 131 438 172 479 b 313 387 272 479 313 438 l 313 380 l 321 380 m 321 225 b 385 289 356 225 385 253 b 321 353 385 324 356 353 l 286 353 l 286 387 b 222 451 286 423 257 451 b 158 387 187 451 158 423 l 158 353 l 123 353 b 59 289 88 353 59 324 b 123 225 59 253 88 225 l 158 225 l 158 190 b 222 126 158 155 187 126 b 286 190 257 126 286 155 l 286 225 l 321 225 m 321 302 b 334 289 328 302 334 296 b 321 275 334 281 328 275 l 236 275 l 236 190 b 222 176 236 183 230 176 b 208 190 214 176 208 183 l 208 275 l 123 275 b 110 289 116 275 110 281 b 123 302 110 296 116 302 l 208 302 l 208 387 b 222 401 208 395 214 401 b 236 387 230 401 236 395 l 236 302 l 321 302 "},",":{"ha":294,"x_min":0,"x_max":0,"o":"m 222 241 b 247 115 264 214 275 157 l 198 41 b 122 0 181 15 153 0 b 71 15 104 0 86 5 b 46 142 29 43 18 100 l 95 216 b 222 241 123 258 180 269 m 225 130 b 207 219 244 159 236 199 b 171 229 196 226 184 229 b 118 201 151 229 130 219 l 69 127 b 86 38 49 98 57 58 b 122 27 97 31 109 27 b 175 56 143 27 163 38 l 225 130 m 179 177 b 183 158 185 173 187 164 l 133 84 b 122 78 131 80 126 78 b 114 80 119 78 117 78 b 111 99 108 84 106 93 l 160 173 b 179 177 164 179 173 181 "},"-":{"ha":436,"x_min":0,"x_max":0,"o":"m 317 380 b 408 289 367 380 408 339 b 317 197 408 238 367 197 l 119 197 b 28 289 69 197 28 238 b 119 380 28 339 69 380 l 317 380 m 317 225 b 381 289 352 225 381 253 b 317 353 381 324 352 353 l 119 353 b 55 289 84 353 55 324 b 119 225 55 253 84 225 l 317 225 m 317 302 b 330 289 324 302 330 296 b 317 275 330 281 324 275 l 119 275 b 105 289 112 275 105 281 b 119 302 105 296 112 302 l 317 302 "},".":{"ha":239,"x_min":0,"x_max":0,"o":"m 119 183 b 211 91 170 183 211 142 b 119 0 211 41 170 0 b 28 91 69 0 28 41 b 119 183 28 142 69 183 m 119 27 b 183 91 154 27 183 56 b 119 155 183 127 154 155 b 55 91 84 155 55 127 b 119 27 55 56 84 27 m 132 97 b 133 94 132 96 132 95 b 133 91 133 93 133 92 b 133 89 133 91 133 90 b 132 86 132 88 132 87 b 131 84 131 85 131 85 b 129 82 130 83 130 82 b 119 78 126 79 123 78 b 110 82 116 78 112 79 b 108 84 109 82 108 83 b 107 86 107 85 107 85 b 106 89 106 87 106 88 b 105 91 106 90 105 91 b 106 94 105 92 106 93 b 107 97 106 95 106 96 b 108 99 107 97 107 98 b 110 101 108 100 109 100 b 119 105 112 104 116 105 b 129 101 123 105 126 104 b 131 99 130 100 130 100 b 132 97 131 98 131 97 "},":":{"ha":261,"x_min":0,"x_max":0,"o":"m 130 183 b 222 91 181 183 222 142 b 130 0 222 41 181 0 b 39 91 80 0 39 41 b 130 183 39 142 80 183 m 130 27 b 194 91 166 27 194 56 b 130 155 194 127 166 155 b 66 91 95 155 66 127 b 130 27 66 56 95 27 m 143 97 b 144 94 143 96 144 95 b 144 91 144 93 144 92 b 144 89 144 91 144 90 b 143 86 144 88 143 87 b 142 84 143 85 142 85 b 140 82 141 83 141 82 b 138 80 139 81 139 80 b 136 79 137 80 136 79 b 133 78 135 78 134 78 b 130 78 132 78 131 78 b 128 78 129 78 129 78 b 125 79 127 78 126 78 b 123 80 124 79 123 80 b 121 82 122 80 121 81 b 119 84 120 82 119 83 b 118 86 118 85 118 85 b 117 89 117 87 117 88 b 117 91 117 90 117 91 b 117 94 117 92 117 93 b 118 97 117 95 117 96 b 119 99 118 97 118 98 b 121 101 119 100 120 100 b 123 103 121 102 122 102 b 125 104 123 103 124 104 b 128 105 126 104 127 105 b 133 105 129 105 131 105 b 136 104 134 105 135 104 b 138 103 136 104 137 103 b 140 101 139 102 139 102 b 142 99 141 100 141 100 b 143 97 142 98 143 97 m 130 296 b 39 387 80 296 39 337 b 130 479 39 438 80 479 b 222 387 181 479 222 438 b 130 296 222 337 181 296 m 130 451 b 66 387 95 451 66 423 b 130 323 66 352 95 323 b 194 387 166 323 194 352 b 130 451 194 423 166 451 m 118 382 b 117 385 117 383 117 384 b 117 387 117 386 117 387 b 117 390 117 388 117 389 b 118 393 117 391 117 392 b 119 395 118 393 118 394 b 121 397 119 396 120 396 b 123 399 121 398 122 398 b 125 400 123 399 124 400 b 128 401 126 400 127 401 b 133 401 129 401 131 401 b 136 400 134 401 135 400 b 138 399 136 400 137 399 b 140 397 139 398 139 398 b 142 395 141 396 141 396 b 143 393 142 394 143 393 b 144 390 143 392 144 391 b 144 387 144 389 144 388 b 144 385 144 387 144 386 b 143 382 144 384 143 383 b 142 380 143 381 142 381 b 140 378 141 379 141 378 b 130 374 137 375 134 374 b 128 374 129 374 129 374 b 125 375 127 374 126 374 b 123 376 124 375 123 376 b 121 378 122 377 121 377 b 119 380 120 378 119 379 b 118 382 118 381 118 381 "},";":{"ha":310,"x_min":0,"x_max":0,"o":"m 228 241 b 253 115 269 214 281 157 l 204 41 b 127 0 187 15 158 0 b 77 15 109 0 92 5 b 51 142 35 43 23 100 l 101 216 b 159 255 114 236 135 250 b 228 241 183 260 207 255 m 230 130 b 212 219 250 159 242 199 b 177 229 202 226 189 229 b 164 228 173 229 168 229 b 124 201 148 225 133 215 l 74 127 b 92 38 55 98 63 58 b 127 27 103 31 115 27 b 181 56 149 27 169 38 l 230 130 m 184 177 b 188 158 191 173 192 164 l 139 84 b 127 78 136 80 132 78 b 120 80 125 78 122 78 b 116 99 114 84 112 93 l 165 173 b 184 177 170 179 178 181 m 177 296 b 85 387 126 296 85 337 b 177 479 85 438 126 479 b 268 387 227 479 268 438 b 177 296 268 337 227 296 m 177 451 b 113 387 142 451 113 423 b 177 323 113 352 142 323 b 241 387 212 323 241 352 b 177 451 241 423 212 451 m 169 376 b 167 378 168 377 168 377 b 163 387 165 380 163 384 b 163 390 163 388 163 389 b 164 393 164 391 164 392 b 165 395 165 393 165 394 b 167 397 166 396 166 396 b 177 401 170 400 173 401 b 186 397 180 401 184 400 b 188 395 187 396 188 396 b 189 393 189 394 189 393 b 190 390 190 392 190 391 b 191 387 190 389 191 388 b 190 385 191 387 190 386 b 189 382 190 384 190 383 b 188 380 189 381 189 381 b 186 378 188 379 187 378 b 177 374 184 375 180 374 b 174 374 176 374 175 374 b 172 375 173 374 172 374 b 169 376 171 375 170 376 "},"=":{"ha":458,"x_min":0,"x_max":0,"o":"m 130 324 b 39 416 80 324 39 365 b 130 507 39 466 80 507 l 328 507 b 419 416 378 507 419 466 b 328 324 419 365 378 324 l 130 324 m 130 480 b 66 416 95 480 66 451 b 130 352 66 381 95 352 l 328 352 b 392 416 363 352 392 381 b 328 480 392 451 363 480 l 130 480 m 130 406 b 117 419 123 406 117 412 b 130 433 117 427 123 433 l 328 433 b 341 419 335 433 341 427 b 328 406 341 412 335 406 l 130 406 m 328 278 b 419 186 378 278 419 237 b 328 95 419 136 378 95 l 130 95 b 39 186 80 95 39 136 b 130 278 39 237 80 278 l 328 278 m 328 122 b 392 186 363 122 392 151 b 328 250 392 222 363 250 l 130 250 b 66 186 95 250 66 222 b 130 122 66 151 95 122 l 328 122 m 328 200 b 341 186 335 200 341 194 b 328 173 341 179 335 173 l 130 173 b 117 186 123 173 117 179 b 130 200 117 194 123 200 l 328 200 "},"?":{"ha":739,"x_min":0,"x_max":0,"o":"m 376 97 b 377 94 376 96 376 95 b 377 91 377 93 377 92 b 373 82 377 88 375 84 b 371 80 372 81 371 80 b 368 79 370 80 369 79 b 366 78 368 78 367 78 b 363 78 365 78 364 78 b 353 82 360 78 356 79 b 349 91 351 84 349 88 b 350 94 349 92 349 93 b 350 97 350 95 350 96 b 352 99 351 97 351 98 b 353 101 352 100 353 100 b 366 105 357 104 361 106 b 368 104 367 105 368 104 b 371 103 369 104 370 103 b 373 101 371 102 372 102 b 374 99 373 100 374 100 b 376 97 375 98 375 97 m 363 183 b 455 91 413 183 455 142 b 363 0 455 41 413 0 b 272 91 313 0 272 41 b 363 183 272 142 313 183 m 363 27 b 427 91 398 27 427 56 b 363 155 427 127 398 155 b 299 91 328 155 299 127 b 363 27 299 56 328 27 m 412 972 b 701 683 572 972 701 843 l 701 609 b 486 395 701 491 605 395 b 455 363 469 395 455 380 l 455 289 b 363 197 455 238 413 197 b 272 289 313 197 272 238 l 272 363 b 486 578 272 481 368 578 b 518 609 504 578 518 592 l 518 683 b 412 789 518 742 471 789 l 314 789 b 208 683 255 789 208 742 b 116 592 208 633 167 592 b 25 683 66 592 25 633 b 314 972 25 843 155 972 l 412 972 m 674 609 l 674 683 b 412 945 674 828 557 945 l 314 945 b 52 683 170 945 52 828 b 116 619 52 648 81 619 b 180 683 152 619 180 648 b 314 817 180 757 240 817 l 412 817 b 546 683 486 817 546 757 l 546 609 b 486 550 546 577 519 550 b 299 363 383 550 299 466 l 299 289 b 363 225 299 253 328 225 b 427 289 398 225 427 253 l 427 363 b 486 422 427 395 454 422 b 674 609 590 422 674 506 m 412 895 b 623 683 529 895 623 800 l 623 609 b 486 472 623 534 562 472 b 377 363 426 472 377 423 l 377 289 b 363 275 377 281 371 275 b 349 289 356 275 349 281 l 349 363 b 486 500 349 438 411 500 b 596 609 547 500 596 549 l 596 683 b 412 867 596 785 514 867 l 314 867 b 130 683 212 867 130 785 b 116 670 130 676 124 670 b 103 683 109 670 103 676 b 314 895 103 800 197 895 l 412 895 "},"A":{"ha":789,"x_min":0,"x_max":0,"o":"m 776 123 b 723 6 794 76 770 24 b 690 0 712 2 701 0 b 605 59 653 0 618 24 l 553 197 l 236 197 l 184 59 b 136 8 175 36 158 18 b 98 0 124 3 111 0 b 66 6 88 0 77 2 b 13 123 19 24 -5 76 l 86 320 l 87 320 l 309 913 b 394 972 322 948 356 972 b 480 913 432 972 467 948 l 702 320 l 702 320 l 776 123 m 713 31 b 750 114 746 44 763 81 l 699 250 l 677 311 l 676 311 l 653 372 l 454 903 b 394 945 445 928 421 945 b 334 903 368 945 344 928 l 135 372 l 112 311 l 112 311 l 90 250 l 38 114 b 76 31 26 81 43 44 b 125 33 92 25 109 26 b 158 69 140 40 152 53 l 206 197 l 217 225 l 572 225 l 582 197 l 630 69 b 690 27 640 44 664 27 b 713 31 698 27 706 29 m 514 380 l 524 353 l 265 353 l 275 380 l 382 664 b 394 673 384 670 389 673 b 407 664 400 673 405 670 m 485 380 l 394 621 l 304 380 m 703 96 b 695 79 706 89 702 81 b 690 78 694 78 692 78 b 678 87 685 78 680 81 l 635 199 l 626 225 l 607 275 l 182 275 l 163 225 l 153 199 l 111 87 b 94 79 109 80 101 76 b 86 96 86 81 83 89 l 128 209 l 138 235 l 182 353 l 192 380 l 382 886 b 394 895 384 891 389 895 b 407 886 400 895 405 891 l 597 380 l 607 353 l 651 235 l 661 209 m 597 302 l 578 353 l 567 380 l 394 842 l 221 380 l 211 353 l 192 302 "},"B":{"ha":789,"x_min":0,"x_max":0,"o":"m 743 683 b 665 486 743 607 713 538 b 743 289 713 434 743 365 b 454 0 743 130 613 0 l 158 0 b 67 91 108 0 67 41 l 67 881 b 158 972 67 931 108 972 l 454 972 b 743 683 613 972 743 843 m 715 289 b 645 467 715 358 689 420 b 625 486 639 474 632 480 b 645 505 632 492 639 498 b 715 683 689 552 715 615 b 454 945 715 828 598 945 l 158 945 b 94 881 123 945 94 916 l 94 91 b 158 27 94 56 123 27 l 454 27 b 715 289 598 27 715 145 m 523 569 b 454 550 503 557 479 550 l 236 550 b 222 564 228 550 222 556 l 222 803 b 236 817 222 811 228 817 l 454 817 b 587 683 528 817 587 757 b 523 569 587 635 562 593 m 249 578 l 454 578 b 560 683 513 578 560 625 b 454 789 560 742 513 789 l 249 789 m 583 456 b 604 437 590 450 597 444 b 665 289 642 399 665 346 b 454 78 665 172 570 78 l 158 78 b 144 91 151 78 144 84 l 144 881 b 158 895 144 888 151 895 l 454 895 b 665 683 570 895 665 800 b 604 535 665 626 642 573 b 583 516 598 528 590 522 b 529 486 566 504 548 494 b 583 456 548 479 566 469 m 172 500 l 454 500 b 555 530 491 500 526 511 b 579 549 563 536 572 542 b 638 683 615 583 638 630 b 454 867 638 785 555 867 l 172 867 m 454 105 b 638 289 555 105 638 187 b 579 423 638 342 615 390 b 555 442 572 430 563 437 b 454 472 526 461 491 472 l 172 472 l 172 105 l 454 105 m 523 403 b 587 289 562 380 587 337 b 454 155 587 215 528 155 l 236 155 b 222 169 228 155 222 162 l 222 408 b 236 422 222 416 228 422 l 454 422 b 523 403 479 422 503 415 m 454 183 b 560 289 513 183 560 230 b 454 395 560 347 513 395 l 249 395 l 249 183 l 454 183 "},"C":{"ha":767,"x_min":0,"x_max":0,"o":"m 636 380 b 728 289 687 380 728 339 b 439 0 728 130 598 0 l 340 0 b 51 289 181 0 51 130 l 51 683 b 340 972 51 843 181 972 l 439 972 b 728 683 598 972 728 843 b 636 592 728 633 687 592 b 545 683 586 592 545 633 b 439 789 545 742 497 789 l 340 789 b 234 683 282 789 234 742 l 234 289 b 340 183 234 230 282 183 l 439 183 b 545 289 497 183 545 230 b 636 380 545 339 586 380 m 439 27 b 700 289 583 27 700 145 b 636 353 700 324 671 353 b 572 289 601 353 572 324 b 439 155 572 215 512 155 l 340 155 b 207 289 267 155 207 215 l 207 683 b 340 817 207 757 267 817 l 439 817 b 572 683 512 817 572 757 b 636 619 572 648 601 619 b 700 683 671 619 700 648 b 439 945 700 828 583 945 l 340 945 b 79 683 196 945 79 828 l 79 289 b 340 27 79 145 196 27 l 439 27 m 636 302 b 650 289 644 302 650 296 b 439 78 650 172 555 78 l 340 78 b 129 289 224 78 129 172 l 129 683 b 340 895 129 800 224 895 l 439 895 b 650 683 555 895 650 800 b 636 670 650 676 644 670 b 622 683 629 670 622 676 b 439 867 622 785 540 867 l 340 867 b 156 683 239 867 156 785 l 156 289 b 340 105 156 187 239 105 l 439 105 b 622 289 540 105 622 187 b 636 302 622 296 629 302 "},"D":{"ha":794,"x_min":0,"x_max":0,"o":"m 450 972 b 743 680 612 972 743 841 l 743 293 b 450 0 743 131 612 0 l 158 0 b 67 91 108 0 67 41 l 67 881 b 158 972 67 931 108 972 l 450 972 m 715 680 b 450 945 715 826 597 945 l 158 945 b 94 881 123 945 94 916 l 94 91 b 158 27 94 56 123 27 l 450 27 b 715 293 597 27 715 146 m 450 895 b 665 680 569 895 665 798 l 665 293 b 450 78 665 174 569 78 l 158 78 b 144 91 151 78 144 84 l 144 881 b 158 895 144 888 151 895 l 450 895 m 638 680 b 450 867 638 783 554 867 l 172 867 l 172 105 l 450 105 b 638 293 554 105 638 189 m 450 817 b 587 680 526 817 587 755 l 587 293 b 450 155 587 217 526 155 l 236 155 b 222 169 228 155 222 162 l 222 803 b 236 817 222 811 228 817 l 450 817 m 560 680 b 450 789 560 740 511 789 l 249 789 l 249 183 l 450 183 b 560 293 511 183 560 232 "},"E":{"ha":767,"x_min":0,"x_max":0,"o":"m 636 380 b 728 289 687 380 728 339 b 439 0 728 130 598 0 l 340 0 b 51 289 181 0 51 130 l 51 683 b 340 972 51 843 181 972 l 439 972 b 728 683 598 972 728 843 b 636 592 728 633 687 592 b 545 683 586 592 545 633 b 439 789 545 742 497 789 l 340 789 b 234 683 282 789 234 742 l 234 578 l 538 578 b 629 486 588 578 629 537 b 538 395 629 436 588 395 l 234 395 l 234 289 b 340 183 234 230 282 183 l 439 183 b 545 289 497 183 545 230 b 636 380 545 339 586 380 m 439 27 b 700 289 583 27 700 145 b 636 353 700 324 671 353 b 572 289 601 353 572 324 b 439 155 572 215 512 155 l 340 155 b 207 289 267 155 207 215 l 207 422 l 538 422 b 601 486 573 422 601 451 b 538 550 601 521 573 550 l 207 550 l 207 683 b 340 817 207 757 267 817 l 439 817 b 572 683 512 817 572 757 b 636 619 572 648 601 619 b 700 683 671 619 700 648 b 439 945 700 828 583 945 l 340 945 b 79 683 196 945 79 828 l 79 289 b 340 27 79 145 196 27 l 439 27 m 636 302 b 650 289 644 302 650 296 b 439 78 650 172 555 78 l 340 78 b 129 289 224 78 129 172 l 129 683 b 340 895 129 800 224 895 l 439 895 b 650 683 555 895 650 800 b 636 670 650 676 644 670 b 622 683 629 670 622 676 b 439 867 622 785 540 867 l 340 867 b 156 683 239 867 156 785 l 156 500 l 538 500 b 551 486 545 500 551 494 b 538 472 551 479 545 472 l 156 472 l 156 289 b 340 105 156 187 239 105 l 439 105 b 622 289 540 105 622 187 b 636 302 622 296 629 302 "},"F":{"ha":749,"x_min":0,"x_max":0,"o":"m 447 972 b 736 683 606 972 736 843 b 645 592 736 633 695 592 b 553 683 594 592 553 633 b 447 789 553 742 506 789 l 348 789 b 243 683 290 789 243 742 l 243 578 l 546 578 b 637 486 596 578 637 537 b 546 395 637 436 596 395 l 243 395 l 243 91 b 151 0 243 41 202 0 b 60 91 101 0 60 41 l 60 683 b 348 972 60 843 189 972 l 447 972 m 645 619 b 709 683 680 619 709 648 b 447 945 709 828 591 945 l 348 945 b 87 683 204 945 87 828 l 87 91 b 151 27 87 56 116 27 b 215 91 186 27 215 56 l 215 422 l 546 422 b 610 486 581 422 610 451 b 546 550 610 521 581 550 l 215 550 l 215 683 b 348 817 215 757 275 817 l 447 817 b 581 683 521 817 581 757 b 645 619 581 648 609 619 m 447 895 b 658 683 564 895 658 800 b 645 670 658 676 652 670 b 631 683 637 670 631 676 b 447 867 631 785 548 867 l 348 867 b 165 683 247 867 165 785 l 165 500 l 546 500 b 560 486 553 500 560 494 b 546 472 560 479 553 472 l 165 472 l 165 91 b 151 78 165 84 159 78 b 137 91 144 78 137 84 l 137 683 b 348 895 137 800 232 895 l 447 895 "},"G":{"ha":778,"x_min":0,"x_max":0,"o":"m 636 578 b 728 486 687 578 728 537 l 728 289 b 439 0 728 130 598 0 l 340 0 b 51 289 181 0 51 130 l 51 683 b 340 972 51 843 181 972 l 439 972 b 728 683 598 972 728 843 b 636 592 728 633 687 592 b 545 683 586 592 545 633 b 439 789 545 742 497 789 l 340 789 b 234 683 282 789 234 742 l 234 289 b 340 183 234 230 282 183 l 439 183 b 545 289 497 183 545 230 l 545 395 l 439 395 b 347 486 388 395 347 436 b 439 578 347 537 388 578 l 636 578 m 700 486 b 636 550 700 521 671 550 l 439 550 b 375 486 404 550 375 521 b 439 422 375 451 404 422 l 558 422 b 572 408 566 422 572 416 l 572 289 b 561 236 572 270 568 252 b 439 155 541 189 494 155 l 340 155 b 207 289 267 155 207 215 l 207 683 b 340 817 207 757 267 817 l 439 817 b 572 683 512 817 572 757 b 636 619 572 648 601 619 b 700 683 671 619 700 648 b 439 945 700 828 583 945 l 340 945 b 79 683 196 945 79 828 l 79 289 b 340 27 79 145 196 27 l 439 27 b 689 215 557 27 657 106 b 700 289 696 238 700 263 m 636 500 b 650 486 644 500 650 494 l 650 289 b 640 225 650 266 646 245 b 629 198 637 216 633 206 b 439 78 595 127 523 78 l 340 78 b 129 289 224 78 129 172 l 129 683 b 340 895 129 800 224 895 l 439 895 b 650 683 555 895 650 800 b 636 670 650 676 644 670 b 622 683 629 670 622 676 b 439 867 622 785 540 867 l 340 867 b 156 683 239 867 156 785 l 156 289 b 340 105 156 187 239 105 l 439 105 b 602 204 510 105 571 145 b 613 229 606 212 610 221 b 622 289 619 248 622 268 l 622 472 l 439 472 b 425 486 431 472 425 479 b 439 500 425 494 431 500 l 636 500 "},"H":{"ha":810,"x_min":0,"x_max":0,"o":"m 651 972 b 743 881 702 972 743 931 l 743 91 b 651 0 743 41 702 0 b 560 91 601 0 560 41 l 560 395 l 249 395 l 249 91 b 158 0 249 41 208 0 b 67 91 108 0 67 41 l 67 881 b 158 972 67 931 108 972 b 249 881 208 972 249 931 l 249 578 l 560 578 l 560 881 b 651 972 560 931 601 972 m 715 881 b 651 945 715 916 687 945 b 587 881 616 945 587 916 l 587 550 l 222 550 l 222 881 b 158 945 222 916 193 945 b 94 881 123 945 94 916 l 94 91 b 158 27 94 56 123 27 b 222 91 193 27 222 56 l 222 422 l 587 422 l 587 91 b 651 27 587 56 616 27 b 715 91 687 27 715 56 m 651 895 b 665 881 659 895 665 888 l 665 91 b 651 78 665 84 659 78 b 638 91 644 78 638 84 l 638 472 l 172 472 l 172 91 b 158 78 172 84 166 78 b 144 91 151 78 144 84 l 144 881 b 158 895 144 888 151 895 b 172 881 166 895 172 888 l 172 500 l 638 500 l 638 881 b 651 895 638 888 644 895 "},"I":{"ha":317,"x_min":0,"x_max":0,"o":"m 158 972 b 249 881 208 972 249 931 l 249 91 b 158 0 249 41 208 0 b 67 91 108 0 67 41 l 67 881 b 158 972 67 931 108 972 m 222 881 b 158 945 222 916 193 945 b 94 881 123 945 94 916 l 94 91 b 158 27 94 56 123 27 b 222 91 193 27 222 56 m 158 895 b 172 881 166 895 172 888 l 172 91 b 158 78 172 84 166 78 b 144 91 151 78 144 84 l 144 881 b 158 895 144 888 151 895 "},"J":{"ha":744,"x_min":0,"x_max":0,"o":"m 593 972 b 685 881 644 972 685 931 l 685 289 b 396 0 685 130 555 0 l 297 0 b 8 289 138 0 8 130 b 100 380 8 339 49 380 b 191 289 150 380 191 339 b 297 183 191 230 239 183 l 396 183 b 502 289 454 183 502 230 l 502 881 b 593 972 502 931 543 972 m 657 881 b 593 945 657 916 628 945 b 529 881 558 945 529 916 l 529 289 b 396 155 529 215 469 155 l 297 155 b 164 289 224 155 164 215 b 100 353 164 324 135 353 b 36 289 64 353 36 324 b 297 27 36 145 153 27 l 396 27 b 657 289 540 27 657 145 m 593 895 b 607 881 601 895 607 888 l 607 289 b 396 78 607 172 512 78 l 297 78 b 86 289 181 78 86 172 b 100 302 86 296 92 302 b 113 289 107 302 113 296 b 297 105 113 187 196 105 l 396 105 b 579 289 497 105 579 187 l 579 881 b 593 895 579 888 586 895 "},"K":{"ha":767,"x_min":0,"x_max":0,"o":"m 729 139 b 740 70 742 118 746 94 b 699 13 735 46 720 26 b 652 0 685 5 668 0 b 573 44 619 0 590 16 l 362 390 l 249 256 l 249 91 b 158 0 249 41 208 0 b 67 91 108 0 67 41 l 67 881 b 158 972 67 931 108 972 b 249 881 208 972 249 931 l 249 541 l 581 939 b 710 951 614 978 671 983 b 742 889 729 935 740 913 b 722 822 745 865 737 841 l 485 539 l 729 139 m 714 76 b 706 125 718 93 715 110 l 467 516 l 452 541 l 470 563 l 701 840 b 715 887 712 853 717 870 b 692 930 714 904 706 919 b 652 945 680 940 666 945 b 602 922 633 945 615 937 l 353 623 l 289 546 l 222 466 l 222 881 b 158 945 222 916 193 945 b 94 881 123 945 94 916 l 94 91 b 158 27 94 56 123 27 b 222 91 193 27 222 56 l 222 266 l 249 298 l 347 415 l 365 437 l 380 413 l 597 58 b 652 27 609 39 629 27 b 685 37 663 27 675 31 b 714 76 699 46 710 60 m 663 99 b 659 80 667 92 665 84 b 651 78 656 78 654 78 b 640 84 647 78 642 80 l 414 453 l 399 478 l 371 523 l 337 483 l 319 460 l 249 377 l 222 344 l 172 284 l 172 91 b 158 78 172 84 166 78 b 144 91 151 78 144 84 l 144 881 b 158 895 144 888 151 895 b 172 881 166 895 172 888 l 172 327 l 222 387 l 304 485 l 323 508 l 397 597 l 416 620 l 641 890 b 660 891 646 895 654 896 b 662 872 666 886 667 878 l 439 605 l 422 584 l 390 545 b 392 543 390 544 391 544 l 418 500 l 433 476 "},"L":{"ha":740,"x_min":0,"x_max":0,"o":"m 651 183 b 743 91 702 183 743 142 b 651 0 743 41 702 0 l 158 0 b 67 91 108 0 67 41 l 67 881 b 158 972 67 931 108 972 b 249 881 208 972 249 931 l 249 183 l 651 183 m 651 27 b 715 91 687 27 715 56 b 651 155 715 127 687 155 l 236 155 b 222 169 228 155 222 162 l 222 881 b 158 945 222 916 193 945 b 94 881 123 945 94 916 l 94 91 b 158 27 94 56 123 27 l 651 27 m 651 105 b 665 91 659 105 665 99 b 651 78 665 84 659 78 l 158 78 b 144 91 151 78 144 84 l 144 881 b 158 895 144 888 151 895 b 172 881 166 895 172 888 l 172 105 l 651 105 "},"M":{"ha":1107,"x_min":0,"x_max":0,"o":"m 982 965 b 1039 881 1017 951 1039 918 l 1039 91 b 947 0 1039 41 998 0 b 856 91 897 0 856 41 l 856 660 l 617 421 b 488 421 582 386 524 386 l 249 660 l 249 91 b 158 0 249 41 208 0 b 67 91 108 0 67 41 l 67 881 b 123 965 67 918 89 951 b 223 945 157 979 196 972 l 553 615 l 883 945 b 982 965 909 972 948 979 m 1011 881 b 972 940 1011 907 996 930 b 902 926 948 950 921 944 l 562 586 b 543 586 557 581 548 581 l 203 926 b 134 940 185 944 158 950 b 94 881 110 930 94 907 l 94 91 b 158 27 94 56 123 27 b 222 91 193 27 222 56 l 222 693 b 231 706 222 699 225 704 b 245 703 236 708 242 707 l 508 441 b 598 441 532 416 573 416 l 860 703 b 870 707 863 706 866 707 b 875 706 872 707 873 707 b 883 693 880 704 883 699 l 883 91 b 947 27 883 56 912 27 b 1011 91 983 27 1011 56 m 953 893 b 961 881 958 891 961 886 l 961 91 b 947 78 961 84 955 78 b 934 91 940 78 934 84 l 934 848 l 562 476 b 543 476 557 471 548 471 l 172 848 l 172 91 b 158 78 172 84 166 78 b 144 91 151 78 144 84 l 144 881 b 153 893 144 886 148 891 b 168 891 158 896 164 894 l 553 505 l 938 891 b 953 893 942 894 948 896 "},"N":{"ha":810,"x_min":0,"x_max":0,"o":"m 651 972 b 743 881 702 972 743 931 l 743 91 b 677 4 743 51 716 15 b 651 0 668 1 660 0 b 574 43 620 0 591 16 l 249 562 l 249 91 b 158 0 249 41 208 0 b 67 91 108 0 67 41 l 67 881 b 133 969 67 921 94 957 b 236 929 172 980 214 964 l 560 410 l 560 881 b 651 972 560 931 601 972 m 669 30 b 715 91 696 38 715 63 l 715 881 b 651 945 715 916 687 945 b 587 881 616 945 587 916 l 587 362 b 578 349 587 356 583 351 b 562 355 572 347 565 350 l 212 915 b 140 942 197 939 168 950 b 94 881 113 935 94 909 l 94 91 b 158 27 94 56 123 27 b 222 91 193 27 222 56 l 222 610 b 232 623 222 616 226 621 b 236 624 233 623 235 624 b 247 617 240 624 245 621 l 597 57 b 651 27 609 39 629 27 b 669 30 657 27 663 28 m 651 895 b 665 881 659 895 665 888 l 665 91 b 655 78 665 85 661 80 b 651 78 654 78 653 78 b 640 84 647 78 642 80 l 172 833 l 172 91 b 158 78 172 84 166 78 b 144 91 151 78 144 84 l 144 881 b 154 894 144 887 148 892 b 170 888 160 896 166 893 l 638 139 l 638 881 b 651 895 638 888 644 895 "},"O":{"ha":771,"x_min":0,"x_max":0,"o":"m 385 972 b 723 634 572 972 723 821 l 723 338 b 385 0 723 152 572 0 b 47 338 199 0 47 152 l 47 634 b 385 972 47 821 199 972 m 696 634 b 385 945 696 805 557 945 b 75 634 214 945 75 805 l 75 338 b 385 27 75 167 214 27 b 696 338 557 27 696 167 m 385 895 b 646 634 529 895 646 778 l 646 338 b 385 78 646 195 529 78 b 125 338 242 78 125 195 l 125 634 b 385 895 125 778 242 895 m 618 634 b 385 867 618 763 514 867 b 152 634 257 867 152 763 l 152 338 b 385 105 152 210 257 105 b 618 338 514 105 618 210 m 385 817 b 568 634 486 817 568 735 l 568 338 b 385 155 568 237 486 155 b 203 338 285 155 203 237 l 203 634 b 385 817 203 735 285 817 m 541 634 b 385 789 541 720 471 789 b 230 634 300 789 230 720 l 230 338 b 385 183 230 252 300 183 b 541 338 471 183 541 252 "},"P":{"ha":758,"x_min":0,"x_max":0,"o":"m 454 972 b 743 683 613 972 743 843 b 454 395 743 524 613 395 l 249 395 l 249 91 b 158 0 249 41 208 0 b 67 91 108 0 67 41 l 67 881 b 158 972 67 931 108 972 l 454 972 m 454 422 b 715 683 598 422 715 539 b 454 945 715 828 598 945 l 158 945 b 94 881 123 945 94 916 l 94 91 b 158 27 94 56 123 27 b 222 91 193 27 222 56 l 222 408 b 236 422 222 416 228 422 l 454 422 m 454 817 b 587 683 528 817 587 757 b 454 550 587 610 528 550 l 236 550 b 222 564 228 550 222 556 l 222 803 b 236 817 222 811 228 817 l 454 817 m 454 578 b 560 683 513 578 560 625 b 454 789 560 742 513 789 l 249 789 l 249 578 l 454 578 m 454 895 b 665 683 570 895 665 800 b 454 472 665 567 570 472 l 172 472 l 172 91 b 158 78 172 84 166 78 b 144 91 151 78 144 84 l 144 881 b 158 895 144 888 151 895 l 454 895 m 454 500 b 638 683 555 500 638 582 b 454 867 638 785 555 867 l 172 867 l 172 500 l 454 500 "},"Q":{"ha":778,"x_min":0,"x_max":0,"o":"m 714 132 b 719 63 725 110 726 86 b 673 10 711 39 695 21 b 632 0 660 3 646 0 b 553 45 599 0 570 17 b 385 0 504 16 446 0 b 47 338 199 0 47 152 l 47 634 b 385 972 47 821 199 972 b 723 634 572 972 723 821 l 723 338 b 687 186 723 283 710 232 l 714 132 m 693 71 b 689 120 698 87 697 105 l 671 157 l 656 186 b 671 217 662 196 667 206 b 696 338 687 254 696 295 l 696 634 b 385 945 696 805 557 945 b 75 634 214 945 75 805 l 75 338 b 385 27 75 167 214 27 b 541 69 442 27 495 43 b 564 84 549 74 557 79 l 575 63 b 577 59 575 62 576 61 b 632 27 588 40 609 27 b 661 34 642 27 652 30 b 693 71 676 42 687 55 m 385 895 b 646 634 529 895 646 778 l 646 338 b 639 281 646 318 644 299 b 628 243 636 268 633 255 b 599 189 620 224 610 206 l 624 139 l 637 112 l 644 98 b 638 79 648 91 645 83 b 632 78 636 78 634 78 b 620 85 627 78 622 80 l 617 92 l 604 117 l 580 165 b 541 130 568 152 555 140 b 518 114 534 124 526 119 b 385 78 479 91 434 78 b 125 338 242 78 125 195 l 125 634 b 385 895 125 778 242 895 m 618 338 l 618 634 b 385 867 618 763 514 867 b 152 634 257 867 152 763 l 152 338 b 385 105 152 210 257 105 b 506 139 429 105 471 117 b 529 155 514 144 522 149 b 566 192 543 166 555 178 l 541 243 l 422 480 b 429 498 419 487 422 495 b 447 492 435 502 444 499 l 584 217 b 610 278 596 236 605 256 b 618 324 614 293 617 308 b 618 338 618 329 618 333 m 385 817 b 568 634 486 817 568 735 l 568 362 l 541 417 l 492 515 b 435 550 481 537 458 550 b 406 543 425 550 415 548 b 377 457 374 528 362 489 l 493 226 l 506 201 b 483 184 499 195 491 189 b 385 155 455 166 421 155 b 203 338 285 155 203 237 l 203 634 b 385 817 203 735 285 817 m 541 479 l 541 634 b 385 789 541 720 471 789 b 230 634 300 789 230 720 l 230 338 b 385 183 230 252 300 183 b 471 209 417 183 447 192 l 353 445 b 394 568 330 490 349 545 b 516 527 439 590 494 572 l 541 479 "},"R":{"ha":782,"x_min":0,"x_max":0,"o":"m 733 132 b 692 10 756 87 737 32 b 652 0 680 3 666 0 b 570 51 617 0 585 19 l 398 395 l 249 395 l 249 91 b 158 0 249 41 208 0 b 67 91 108 0 67 41 l 67 881 b 158 972 67 931 108 972 l 454 972 b 743 683 613 972 743 843 b 586 427 743 575 682 476 m 680 34 b 709 120 712 50 724 88 l 555 427 b 555 437 554 430 553 434 b 562 445 556 441 559 444 b 715 683 655 488 715 581 b 454 945 715 828 598 945 l 158 945 b 94 881 123 945 94 916 l 94 91 b 158 27 94 56 123 27 b 222 91 193 27 222 56 l 222 422 l 415 422 l 428 395 l 594 63 b 652 27 605 41 627 27 b 680 34 661 27 671 30 m 587 683 b 507 561 587 629 554 581 b 454 550 490 554 473 550 l 222 550 l 222 803 b 236 817 222 811 228 817 l 454 817 b 587 683 528 817 587 757 m 454 578 b 560 683 513 578 560 625 b 454 789 560 742 513 789 l 249 789 l 249 578 l 454 578 m 664 98 b 658 79 667 91 664 83 b 651 78 656 78 654 78 b 639 85 646 78 642 80 l 482 399 l 470 424 l 446 472 l 172 472 l 172 91 b 158 78 172 84 166 78 b 144 91 151 78 144 84 l 144 881 b 158 895 144 888 151 895 l 454 895 b 665 683 570 895 665 800 b 545 493 665 600 616 527 b 518 482 536 489 527 485 b 476 474 504 478 490 475 l 494 436 l 507 411 m 454 500 b 514 510 475 500 495 503 b 539 521 522 513 531 516 b 638 683 598 551 638 613 b 454 867 638 785 555 867 l 172 867 l 172 500 l 454 500 "},"S":{"ha":763,"x_min":0,"x_max":0,"o":"m 430 578 b 719 289 590 578 719 448 b 430 0 719 130 590 0 l 332 0 b 43 289 173 0 43 130 b 134 380 43 339 84 380 b 226 289 185 380 226 339 b 332 183 226 230 273 183 l 430 183 b 536 289 489 183 536 230 b 430 395 536 347 489 395 l 332 395 b 43 683 173 395 43 524 b 332 972 43 843 173 972 l 430 972 b 719 683 590 972 719 843 b 628 592 719 633 678 592 b 536 683 577 592 536 633 b 430 789 536 742 489 789 l 332 789 b 226 683 273 789 226 742 b 332 578 226 625 273 578 l 430 578 m 430 27 b 692 289 575 27 692 145 b 430 550 692 433 575 550 l 332 550 b 198 683 258 550 198 610 b 332 817 198 757 258 817 l 430 817 b 564 683 504 817 564 757 b 628 619 564 648 593 619 b 692 683 663 619 692 648 b 430 945 692 828 575 945 l 332 945 b 70 683 188 945 70 828 b 332 422 70 539 188 422 l 430 422 b 564 289 504 422 564 362 b 430 155 564 215 504 155 l 332 155 b 198 289 258 155 198 215 b 134 353 198 324 170 353 b 70 289 99 353 70 324 b 332 27 70 145 188 27 l 430 27 m 430 500 b 642 289 547 500 642 405 b 430 78 642 172 547 78 l 332 78 b 121 289 215 78 121 172 b 134 302 121 296 127 302 b 148 289 142 302 148 296 b 332 105 148 187 231 105 l 430 105 b 614 289 532 105 614 187 b 430 472 614 390 532 472 l 332 472 b 121 683 215 472 121 567 b 332 895 121 800 215 895 l 430 895 b 642 683 547 895 642 800 b 628 670 642 676 635 670 b 614 683 620 670 614 676 b 430 867 614 785 532 867 l 332 867 b 148 683 231 867 148 785 b 332 500 148 582 231 500 l 430 500 "},"T":{"ha":671,"x_min":0,"x_max":0,"o":"m 582 972 b 673 881 632 972 673 931 b 582 789 673 830 632 789 l 427 789 l 427 91 b 335 0 427 41 386 0 b 244 91 285 0 244 41 l 244 789 l 89 789 b -3 881 38 789 -3 830 b 89 972 -3 931 38 972 l 582 972 m 582 817 b 646 881 617 817 646 846 b 582 945 646 916 617 945 l 89 945 b 25 881 53 945 25 916 b 89 817 25 846 53 817 l 271 817 l 271 91 b 335 27 271 56 300 27 b 399 91 371 27 399 56 l 399 817 l 582 817 m 582 895 b 596 881 590 895 596 888 b 582 867 596 873 590 867 l 349 867 l 349 91 b 335 78 349 84 343 78 b 322 91 328 78 322 84 l 322 867 l 89 867 b 75 881 81 867 75 873 b 89 895 75 888 81 895 l 582 895 "},"U":{"ha":790,"x_min":0,"x_max":0,"o":"m 642 972 b 733 881 692 972 733 931 l 733 338 b 395 0 733 152 581 0 b 57 338 209 0 57 152 l 57 881 b 148 972 57 931 98 972 b 240 881 199 972 240 931 l 240 338 b 395 183 240 252 309 183 b 550 338 481 183 550 252 l 550 881 b 642 972 550 931 591 972 m 706 881 b 642 945 706 916 677 945 b 578 881 606 945 578 916 l 578 338 b 395 155 578 237 496 155 b 212 338 294 155 212 237 l 212 881 b 148 945 212 916 184 945 b 84 881 113 945 84 916 l 84 338 b 395 27 84 167 224 27 b 706 338 566 27 706 167 m 642 895 b 655 881 649 895 655 888 l 655 338 b 395 78 655 195 539 78 b 135 338 251 78 135 195 l 135 881 b 148 895 135 888 141 895 b 162 881 156 895 162 888 l 162 338 b 395 105 162 210 267 105 b 628 338 524 105 628 210 l 628 881 b 642 895 628 888 634 895 "},"V":{"ha":789,"x_min":0,"x_max":0,"o":"m 723 966 b 776 849 770 949 794 896 l 480 59 b 394 0 467 24 432 0 b 309 59 356 0 322 24 l 13 849 b 66 966 -5 896 19 949 b 136 964 89 975 114 974 b 184 913 158 954 175 936 l 394 352 l 605 913 b 723 966 623 960 675 984 m 750 858 b 713 941 763 891 746 928 b 630 903 680 953 643 936 l 407 308 b 394 299 405 303 400 299 b 382 308 389 299 384 303 l 158 903 b 125 939 152 919 140 932 b 98 945 116 943 107 945 b 76 941 91 945 83 943 b 38 858 43 928 26 891 l 334 69 b 394 27 344 44 368 27 b 454 69 421 27 445 44 l 750 858 m 695 894 b 703 876 702 891 706 883 l 407 87 b 394 78 405 81 400 78 b 382 87 389 78 384 81 l 86 876 b 94 894 83 883 86 891 b 111 886 101 896 109 893 l 394 130 l 678 886 b 695 894 680 893 688 896 "},"W":{"ha":1382,"x_min":0,"x_max":0,"o":"m 1315 966 b 1368 849 1362 949 1386 896 l 1072 59 b 986 0 1059 24 1024 0 b 901 59 949 0 914 24 l 690 620 l 480 59 b 394 0 467 24 432 0 b 309 59 356 0 322 24 l 13 849 b 66 966 -5 896 19 949 b 184 913 113 984 166 960 l 394 352 l 605 913 b 620 939 608 923 614 931 b 620 939 620 939 620 939 b 624 944 622 941 623 942 b 626 946 625 945 625 945 b 627 947 626 946 627 946 b 631 951 629 948 630 949 b 631 951 631 951 631 951 b 658 966 639 957 648 963 b 680 972 666 969 673 971 b 682 972 681 972 681 972 b 686 972 683 972 684 972 b 687 972 686 972 687 972 b 692 972 689 972 690 972 b 694 972 692 972 693 972 b 697 972 695 972 696 972 b 700 972 698 972 699 972 b 703 971 701 972 702 971 b 709 970 705 971 707 971 b 709 970 709 970 709 970 b 713 969 711 970 712 970 b 714 969 713 969 714 969 b 717 968 715 969 716 968 b 719 968 718 968 718 968 b 722 967 720 967 721 967 b 723 966 722 967 722 967 b 723 966 723 966 723 966 b 726 965 724 966 725 965 b 728 964 726 965 727 965 b 728 964 728 964 728 964 b 730 963 729 964 729 964 b 732 962 730 963 731 963 b 734 961 732 962 733 962 b 736 960 734 961 735 961 b 738 959 736 960 737 959 b 739 958 739 959 739 958 b 742 956 740 957 741 957 b 743 956 743 956 743 956 b 748 952 745 954 746 953 b 749 951 748 952 748 951 b 752 948 750 950 751 949 b 754 946 753 947 754 947 b 756 944 755 945 756 945 b 768 929 761 939 765 934 b 768 928 768 928 768 928 b 772 922 770 926 771 924 b 772 922 772 922 772 922 b 775 916 773 920 774 918 b 775 915 775 916 775 915 b 776 913 775 914 776 914 l 986 352 l 1197 913 b 1315 966 1215 960 1267 984 m 1342 858 b 1305 941 1355 891 1338 928 b 1223 903 1272 953 1235 936 l 999 308 b 986 299 997 303 992 299 b 974 308 981 299 976 303 l 773 842 l 750 903 b 750 904 750 904 750 904 b 748 908 749 905 749 907 b 747 910 748 909 748 909 b 746 913 747 911 746 912 b 744 916 745 914 744 915 b 742 918 743 917 743 918 b 740 921 741 919 741 920 b 738 923 739 922 739 923 b 736 925 738 924 737 925 b 734 928 735 926 735 927 b 732 929 733 928 733 929 b 729 932 731 930 730 931 b 727 933 728 932 728 933 b 723 936 726 934 725 935 b 722 936 723 936 723 936 b 717 939 721 937 719 938 b 716 939 717 939 717 939 b 715 940 716 940 715 940 b 713 941 714 940 714 940 b 712 941 713 941 712 941 b 710 942 711 941 711 942 b 709 942 710 942 709 942 b 704 943 708 942 706 943 b 704 943 704 943 704 943 b 689 945 699 944 694 945 b 686 945 688 945 687 945 b 683 944 685 945 684 944 b 681 944 682 944 681 944 b 678 944 680 944 679 944 b 675 943 677 943 676 943 b 673 942 674 943 673 942 b 669 941 671 942 670 942 b 667 940 668 941 667 940 b 663 938 665 940 664 939 b 661 937 662 938 661 938 b 657 935 659 937 658 936 b 655 934 656 935 656 935 b 651 931 654 933 653 932 b 650 931 651 931 651 931 b 646 927 649 929 647 928 b 646 926 646 927 646 927 b 644 925 645 926 645 925 b 631 903 638 919 634 912 l 607 842 l 407 308 b 394 299 405 303 400 299 b 382 308 389 299 384 303 l 158 903 b 98 945 149 929 124 945 b 76 941 91 945 83 944 b 38 858 43 928 26 891 l 334 69 b 394 27 344 44 368 27 b 454 69 421 27 445 44 l 676 660 l 690 699 l 705 660 l 927 69 b 986 27 936 44 960 27 b 1046 69 1013 27 1037 44 l 1342 858 m 1287 894 b 1295 876 1294 891 1298 883 l 999 87 b 986 78 997 81 992 78 b 974 87 981 78 976 81 l 732 731 l 717 770 l 690 842 l 664 770 l 649 731 l 407 87 b 394 78 405 81 400 78 b 382 87 389 78 384 81 l 86 876 b 94 894 83 883 86 891 b 111 886 101 896 109 893 l 394 130 l 634 770 l 649 809 l 678 886 b 678 886 678 886 678 886 b 678 887 678 886 678 887 b 679 888 679 888 679 888 b 680 889 679 889 680 889 b 681 890 680 890 680 890 b 682 891 681 891 681 891 b 683 892 682 892 682 892 b 684 893 683 892 684 893 b 685 893 684 893 685 893 b 686 894 685 894 685 894 b 686 894 686 894 686 894 b 688 894 687 894 687 894 b 689 894 688 894 689 894 b 690 894 690 894 690 894 b 692 894 691 894 691 894 b 693 894 692 894 693 894 b 694 894 694 894 694 894 b 695 894 695 894 695 894 b 696 893 695 894 695 894 b 697 893 696 893 697 893 b 698 892 697 893 698 892 b 699 891 698 892 699 892 b 700 890 699 891 700 891 b 701 889 700 890 701 890 b 702 888 701 889 702 889 b 702 887 702 888 702 888 b 703 886 703 887 703 886 b 703 886 703 886 703 886 l 732 809 l 747 770 l 986 130 l 1270 886 b 1287 894 1272 893 1280 896 "},"X":{"ha":726,"x_min":0,"x_max":0,"o":"m 687 140 b 658 14 714 97 701 41 b 610 0 644 5 627 0 b 532 43 578 0 549 16 l 363 314 l 194 43 b 116 0 177 16 148 0 b 68 14 99 0 82 5 b 39 140 25 41 12 97 l 255 486 l 39 832 b 68 958 12 875 25 932 b 137 970 89 971 113 975 b 194 929 161 964 181 950 l 363 659 l 532 929 b 658 958 559 972 615 985 b 687 832 701 932 714 875 l 471 486 m 644 37 b 664 125 674 56 683 95 l 455 460 l 439 486 l 455 512 l 664 847 b 644 935 683 877 674 916 b 610 945 633 942 621 945 b 555 915 589 945 568 934 l 379 633 l 363 607 l 347 633 l 171 915 b 131 943 162 929 147 939 b 116 945 126 944 121 945 b 82 935 104 945 93 942 b 62 847 53 916 43 877 l 271 512 l 288 486 l 271 460 l 62 125 b 82 37 43 95 53 56 b 116 27 93 31 104 27 b 171 57 139 27 159 39 l 347 340 l 363 365 l 379 340 l 555 57 b 610 27 567 39 588 27 b 644 37 622 27 633 31 m 621 99 b 617 80 625 92 623 84 b 610 78 615 78 612 78 b 598 84 605 78 601 80 l 409 387 l 393 413 l 363 460 l 333 413 l 317 387 l 128 84 b 116 78 125 80 121 78 b 109 80 114 78 111 78 b 105 99 103 84 101 92 l 301 413 l 317 439 l 347 486 l 317 534 l 301 559 l 105 874 b 109 892 101 880 103 888 b 128 888 116 896 124 895 l 317 585 l 333 559 l 363 512 l 393 559 l 409 585 l 598 888 b 617 892 602 894 611 896 b 621 874 623 888 625 880 l 425 559 l 409 534 l 379 486 l 409 439 l 425 413 "},"Y":{"ha":676,"x_min":0,"x_max":0,"o":"m 633 958 b 662 832 676 932 689 875 l 429 460 l 429 91 b 338 0 429 41 388 0 b 247 91 288 0 247 41 l 247 460 l 14 832 b 43 958 -13 875 0 932 b 112 970 64 971 88 975 b 169 929 136 964 156 950 l 338 659 l 507 929 b 633 958 534 972 590 985 m 639 847 b 619 935 658 877 649 916 b 530 915 589 954 549 945 l 350 625 b 338 619 347 621 343 619 b 326 625 333 619 329 621 l 146 915 b 106 943 137 929 122 939 b 91 945 101 944 96 945 b 57 935 79 945 68 942 b 37 847 28 916 18 877 l 249 508 l 274 468 l 274 91 b 338 27 274 56 303 27 b 402 91 373 27 402 56 l 402 468 l 427 508 l 639 847 m 592 892 b 596 874 598 888 600 880 l 398 555 l 383 532 l 352 482 l 352 91 b 338 78 352 84 346 78 b 324 91 330 78 324 84 l 324 482 l 293 532 l 279 555 l 80 874 b 84 892 76 880 78 888 b 103 888 91 896 99 894 l 302 570 l 317 546 l 338 512 l 360 546 l 374 570 l 573 888 b 592 892 577 894 586 896 "},"Z":{"ha":718,"x_min":0,"x_max":0,"o":"m 606 183 b 697 91 656 183 697 142 b 606 0 697 41 656 0 l 112 0 b 32 47 79 0 48 18 b 35 140 16 76 17 112 l 441 789 l 112 789 b 21 881 62 789 21 830 b 112 972 21 931 62 972 l 606 972 b 686 925 639 972 669 954 b 683 832 702 896 701 861 l 277 183 l 606 183 m 606 27 b 670 91 641 27 670 56 b 606 155 670 127 641 155 l 252 155 b 240 162 247 155 243 158 b 241 176 238 167 238 172 l 660 847 b 662 912 672 867 673 892 b 606 945 650 932 629 945 l 112 945 b 48 881 77 945 48 916 b 112 817 48 846 77 817 l 465 817 b 477 810 470 817 475 814 b 477 796 480 805 480 800 l 58 125 b 56 60 46 106 45 81 b 112 27 68 40 89 27 l 606 27 m 606 105 b 619 91 613 105 619 99 b 606 78 619 84 613 78 l 112 78 b 100 85 107 78 103 80 b 101 99 98 89 98 94 l 581 867 l 112 867 b 99 881 105 867 99 873 b 112 895 99 888 105 895 l 606 895 b 618 887 611 895 615 892 b 617 874 620 883 620 878 l 137 105 l 606 105 "},"a":{"ha":789,"x_min":0,"x_max":0,"o":"m 776 123 b 723 6 794 76 770 24 b 690 0 712 2 701 0 b 605 59 653 0 618 24 l 553 197 l 236 197 l 184 59 b 136 8 175 36 158 18 b 98 0 124 3 111 0 b 66 6 88 0 77 2 b 13 123 19 24 -5 76 l 86 320 l 87 320 l 309 913 b 394 972 322 948 356 972 b 480 913 432 972 467 948 l 702 320 l 702 320 l 776 123 m 713 31 b 750 114 746 44 763 81 l 699 250 l 677 311 l 676 311 l 653 372 l 454 903 b 394 945 445 928 421 945 b 334 903 368 945 344 928 l 135 372 l 112 311 l 112 311 l 90 250 l 38 114 b 76 31 26 81 43 44 b 125 33 92 25 109 26 b 158 69 140 40 152 53 l 206 197 l 217 225 l 572 225 l 582 197 l 630 69 b 690 27 640 44 664 27 b 713 31 698 27 706 29 m 514 380 l 524 353 l 265 353 l 275 380 l 382 664 b 394 673 384 670 389 673 b 407 664 400 673 405 670 m 485 380 l 394 621 l 304 380 m 703 96 b 695 79 706 89 702 81 b 690 78 694 78 692 78 b 678 87 685 78 680 81 l 635 199 l 626 225 l 607 275 l 182 275 l 163 225 l 153 199 l 111 87 b 94 79 109 80 101 76 b 86 96 86 81 83 89 l 128 209 l 138 235 l 182 353 l 192 380 l 382 886 b 394 895 384 891 389 895 b 407 886 400 895 405 891 l 597 380 l 607 353 l 651 235 l 661 209 m 597 302 l 578 353 l 567 380 l 394 842 l 221 380 l 211 353 l 192 302 "},"b":{"ha":789,"x_min":0,"x_max":0,"o":"m 743 683 b 665 486 743 607 713 538 b 743 289 713 434 743 365 b 454 0 743 130 613 0 l 158 0 b 67 91 108 0 67 41 l 67 881 b 158 972 67 931 108 972 l 454 972 b 743 683 613 972 743 843 m 715 289 b 645 467 715 358 689 420 b 625 486 639 474 632 480 b 645 505 632 492 639 498 b 715 683 689 552 715 615 b 454 945 715 828 598 945 l 158 945 b 94 881 123 945 94 916 l 94 91 b 158 27 94 56 123 27 l 454 27 b 715 289 598 27 715 145 m 523 569 b 454 550 503 557 479 550 l 236 550 b 222 564 228 550 222 556 l 222 803 b 236 817 222 811 228 817 l 454 817 b 587 683 528 817 587 757 b 523 569 587 635 562 593 m 249 578 l 454 578 b 560 683 513 578 560 625 b 454 789 560 742 513 789 l 249 789 m 583 456 b 604 437 590 450 597 444 b 665 289 642 399 665 346 b 454 78 665 172 570 78 l 158 78 b 144 91 151 78 144 84 l 144 881 b 158 895 144 888 151 895 l 454 895 b 665 683 570 895 665 800 b 604 535 665 626 642 573 b 583 516 598 528 590 522 b 529 486 566 504 548 494 b 583 456 548 479 566 469 m 172 500 l 454 500 b 555 530 491 500 526 511 b 579 549 563 536 572 542 b 638 683 615 583 638 630 b 454 867 638 785 555 867 l 172 867 m 454 105 b 638 289 555 105 638 187 b 579 423 638 342 615 390 b 555 442 572 430 563 437 b 454 472 526 461 491 472 l 172 472 l 172 105 l 454 105 m 523 403 b 587 289 562 380 587 337 b 454 155 587 215 528 155 l 236 155 b 222 169 228 155 222 162 l 222 408 b 236 422 222 416 228 422 l 454 422 b 523 403 479 422 503 415 m 454 183 b 560 289 513 183 560 230 b 454 395 560 347 513 395 l 249 395 l 249 183 l 454 183 "},"c":{"ha":767,"x_min":0,"x_max":0,"o":"m 636 380 b 728 289 687 380 728 339 b 439 0 728 130 598 0 l 340 0 b 51 289 181 0 51 130 l 51 683 b 340 972 51 843 181 972 l 439 972 b 728 683 598 972 728 843 b 636 592 728 633 687 592 b 545 683 586 592 545 633 b 439 789 545 742 497 789 l 340 789 b 234 683 282 789 234 742 l 234 289 b 340 183 234 230 282 183 l 439 183 b 545 289 497 183 545 230 b 636 380 545 339 586 380 m 439 27 b 700 289 583 27 700 145 b 636 353 700 324 671 353 b 572 289 601 353 572 324 b 439 155 572 215 512 155 l 340 155 b 207 289 267 155 207 215 l 207 683 b 340 817 207 757 267 817 l 439 817 b 572 683 512 817 572 757 b 636 619 572 648 601 619 b 700 683 671 619 700 648 b 439 945 700 828 583 945 l 340 945 b 79 683 196 945 79 828 l 79 289 b 340 27 79 145 196 27 l 439 27 m 636 302 b 650 289 644 302 650 296 b 439 78 650 172 555 78 l 340 78 b 129 289 224 78 129 172 l 129 683 b 340 895 129 800 224 895 l 439 895 b 650 683 555 895 650 800 b 636 670 650 676 644 670 b 622 683 629 670 622 676 b 439 867 622 785 540 867 l 340 867 b 156 683 239 867 156 785 l 156 289 b 340 105 156 187 239 105 l 439 105 b 622 289 540 105 622 187 b 636 302 622 296 629 302 "},"d":{"ha":794,"x_min":0,"x_max":0,"o":"m 450 972 b 743 680 612 972 743 841 l 743 293 b 450 0 743 131 612 0 l 158 0 b 67 91 108 0 67 41 l 67 881 b 158 972 67 931 108 972 l 450 972 m 715 680 b 450 945 715 826 597 945 l 158 945 b 94 881 123 945 94 916 l 94 91 b 158 27 94 56 123 27 l 450 27 b 715 293 597 27 715 146 m 450 895 b 665 680 569 895 665 798 l 665 293 b 450 78 665 174 569 78 l 158 78 b 144 91 151 78 144 84 l 144 881 b 158 895 144 888 151 895 l 450 895 m 638 680 b 450 867 638 783 554 867 l 172 867 l 172 105 l 450 105 b 638 293 554 105 638 189 m 450 817 b 587 680 526 817 587 755 l 587 293 b 450 155 587 217 526 155 l 236 155 b 222 169 228 155 222 162 l 222 803 b 236 817 222 811 228 817 l 450 817 m 560 680 b 450 789 560 740 511 789 l 249 789 l 249 183 l 450 183 b 560 293 511 183 560 232 "},"e":{"ha":767,"x_min":0,"x_max":0,"o":"m 636 380 b 728 289 687 380 728 339 b 439 0 728 130 598 0 l 340 0 b 51 289 181 0 51 130 l 51 683 b 340 972 51 843 181 972 l 439 972 b 728 683 598 972 728 843 b 636 592 728 633 687 592 b 545 683 586 592 545 633 b 439 789 545 742 497 789 l 340 789 b 234 683 282 789 234 742 l 234 578 l 538 578 b 629 486 588 578 629 537 b 538 395 629 436 588 395 l 234 395 l 234 289 b 340 183 234 230 282 183 l 439 183 b 545 289 497 183 545 230 b 636 380 545 339 586 380 m 439 27 b 700 289 583 27 700 145 b 636 353 700 324 671 353 b 572 289 601 353 572 324 b 439 155 572 215 512 155 l 340 155 b 207 289 267 155 207 215 l 207 422 l 538 422 b 601 486 573 422 601 451 b 538 550 601 521 573 550 l 207 550 l 207 683 b 340 817 207 757 267 817 l 439 817 b 572 683 512 817 572 757 b 636 619 572 648 601 619 b 700 683 671 619 700 648 b 439 945 700 828 583 945 l 340 945 b 79 683 196 945 79 828 l 79 289 b 340 27 79 145 196 27 l 439 27 m 636 302 b 650 289 644 302 650 296 b 439 78 650 172 555 78 l 340 78 b 129 289 224 78 129 172 l 129 683 b 340 895 129 800 224 895 l 439 895 b 650 683 555 895 650 800 b 636 670 650 676 644 670 b 622 683 629 670 622 676 b 439 867 622 785 540 867 l 340 867 b 156 683 239 867 156 785 l 156 500 l 538 500 b 551 486 545 500 551 494 b 538 472 551 479 545 472 l 156 472 l 156 289 b 340 105 156 187 239 105 l 439 105 b 622 289 540 105 622 187 b 636 302 622 296 629 302 "},"f":{"ha":749,"x_min":0,"x_max":0,"o":"m 447 972 b 736 683 606 972 736 843 b 645 592 736 633 695 592 b 553 683 594 592 553 633 b 447 789 553 742 506 789 l 348 789 b 243 683 290 789 243 742 l 243 578 l 546 578 b 637 486 596 578 637 537 b 546 395 637 436 596 395 l 243 395 l 243 91 b 151 0 243 41 202 0 b 60 91 101 0 60 41 l 60 683 b 348 972 60 843 189 972 l 447 972 m 645 619 b 709 683 680 619 709 648 b 447 945 709 828 591 945 l 348 945 b 87 683 204 945 87 828 l 87 91 b 151 27 87 56 116 27 b 215 91 186 27 215 56 l 215 422 l 546 422 b 610 486 581 422 610 451 b 546 550 610 521 581 550 l 215 550 l 215 683 b 348 817 215 757 275 817 l 447 817 b 581 683 521 817 581 757 b 645 619 581 648 609 619 m 447 895 b 658 683 564 895 658 800 b 645 670 658 676 652 670 b 631 683 637 670 631 676 b 447 867 631 785 548 867 l 348 867 b 165 683 247 867 165 785 l 165 500 l 546 500 b 560 486 553 500 560 494 b 546 472 560 479 553 472 l 165 472 l 165 91 b 151 78 165 84 159 78 b 137 91 144 78 137 84 l 137 683 b 348 895 137 800 232 895 l 447 895 "},"g":{"ha":778,"x_min":0,"x_max":0,"o":"m 636 578 b 728 486 687 578 728 537 l 728 289 b 439 0 728 130 598 0 l 340 0 b 51 289 181 0 51 130 l 51 683 b 340 972 51 843 181 972 l 439 972 b 728 683 598 972 728 843 b 636 592 728 633 687 592 b 545 683 586 592 545 633 b 439 789 545 742 497 789 l 340 789 b 234 683 282 789 234 742 l 234 289 b 340 183 234 230 282 183 l 439 183 b 545 289 497 183 545 230 l 545 395 l 439 395 b 347 486 388 395 347 436 b 439 578 347 537 388 578 l 636 578 m 700 486 b 636 550 700 521 671 550 l 439 550 b 375 486 404 550 375 521 b 439 422 375 451 404 422 l 558 422 b 572 408 566 422 572 416 l 572 289 b 561 236 572 270 568 252 b 439 155 541 189 494 155 l 340 155 b 207 289 267 155 207 215 l 207 683 b 340 817 207 757 267 817 l 439 817 b 572 683 512 817 572 757 b 636 619 572 648 601 619 b 700 683 671 619 700 648 b 439 945 700 828 583 945 l 340 945 b 79 683 196 945 79 828 l 79 289 b 340 27 79 145 196 27 l 439 27 b 689 215 557 27 657 106 b 700 289 696 238 700 263 m 636 500 b 650 486 644 500 650 494 l 650 289 b 640 225 650 266 646 245 b 629 198 637 216 633 206 b 439 78 595 127 523 78 l 340 78 b 129 289 224 78 129 172 l 129 683 b 340 895 129 800 224 895 l 439 895 b 650 683 555 895 650 800 b 636 670 650 676 644 670 b 622 683 629 670 622 676 b 439 867 622 785 540 867 l 340 867 b 156 683 239 867 156 785 l 156 289 b 340 105 156 187 239 105 l 439 105 b 602 204 510 105 571 145 b 613 229 606 212 610 221 b 622 289 619 248 622 268 l 622 472 l 439 472 b 425 486 431 472 425 479 b 439 500 425 494 431 500 l 636 500 "},"h":{"ha":810,"x_min":0,"x_max":0,"o":"m 651 972 b 743 881 702 972 743 931 l 743 91 b 651 0 743 41 702 0 b 560 91 601 0 560 41 l 560 395 l 249 395 l 249 91 b 158 0 249 41 208 0 b 67 91 108 0 67 41 l 67 881 b 158 972 67 931 108 972 b 249 881 208 972 249 931 l 249 578 l 560 578 l 560 881 b 651 972 560 931 601 972 m 715 881 b 651 945 715 916 687 945 b 587 881 616 945 587 916 l 587 550 l 222 550 l 222 881 b 158 945 222 916 193 945 b 94 881 123 945 94 916 l 94 91 b 158 27 94 56 123 27 b 222 91 193 27 222 56 l 222 422 l 587 422 l 587 91 b 651 27 587 56 616 27 b 715 91 687 27 715 56 m 651 895 b 665 881 659 895 665 888 l 665 91 b 651 78 665 84 659 78 b 638 91 644 78 638 84 l 638 472 l 172 472 l 172 91 b 158 78 172 84 166 78 b 144 91 151 78 144 84 l 144 881 b 158 895 144 888 151 895 b 172 881 166 895 172 888 l 172 500 l 638 500 l 638 881 b 651 895 638 888 644 895 "},"i":{"ha":317,"x_min":0,"x_max":0,"o":"m 158 972 b 249 881 208 972 249 931 l 249 91 b 158 0 249 41 208 0 b 67 91 108 0 67 41 l 67 881 b 158 972 67 931 108 972 m 222 881 b 158 945 222 916 193 945 b 94 881 123 945 94 916 l 94 91 b 158 27 94 56 123 27 b 222 91 193 27 222 56 m 158 895 b 172 881 166 895 172 888 l 172 91 b 158 78 172 84 166 78 b 144 91 151 78 144 84 l 144 881 b 158 895 144 888 151 895 "},"j":{"ha":744,"x_min":0,"x_max":0,"o":"m 593 972 b 685 881 644 972 685 931 l 685 289 b 396 0 685 130 555 0 l 297 0 b 8 289 138 0 8 130 b 100 380 8 339 49 380 b 191 289 150 380 191 339 b 297 183 191 230 239 183 l 396 183 b 502 289 454 183 502 230 l 502 881 b 593 972 502 931 543 972 m 657 881 b 593 945 657 916 628 945 b 529 881 558 945 529 916 l 529 289 b 396 155 529 215 469 155 l 297 155 b 164 289 224 155 164 215 b 100 353 164 324 135 353 b 36 289 64 353 36 324 b 297 27 36 145 153 27 l 396 27 b 657 289 540 27 657 145 m 593 895 b 607 881 601 895 607 888 l 607 289 b 396 78 607 172 512 78 l 297 78 b 86 289 181 78 86 172 b 100 302 86 296 92 302 b 113 289 107 302 113 296 b 297 105 113 187 196 105 l 396 105 b 579 289 497 105 579 187 l 579 881 b 593 895 579 888 586 895 "},"k":{"ha":767,"x_min":0,"x_max":0,"o":"m 729 139 b 740 70 742 118 746 94 b 699 13 735 46 720 26 b 652 0 685 5 668 0 b 573 44 619 0 590 16 l 362 390 l 249 256 l 249 91 b 158 0 249 41 208 0 b 67 91 108 0 67 41 l 67 881 b 158 972 67 931 108 972 b 249 881 208 972 249 931 l 249 541 l 581 939 b 710 951 614 978 671 983 b 742 889 729 935 740 913 b 722 822 745 865 737 841 l 485 539 l 729 139 m 714 76 b 706 125 718 93 715 110 l 467 516 l 452 541 l 470 563 l 701 840 b 715 887 712 853 717 870 b 692 930 714 904 706 919 b 652 945 680 940 666 945 b 602 922 633 945 615 937 l 353 623 l 289 546 l 222 466 l 222 881 b 158 945 222 916 193 945 b 94 881 123 945 94 916 l 94 91 b 158 27 94 56 123 27 b 222 91 193 27 222 56 l 222 266 l 249 298 l 347 415 l 365 437 l 380 413 l 597 58 b 652 27 609 39 629 27 b 685 37 663 27 675 31 b 714 76 699 46 710 60 m 663 99 b 659 80 667 92 665 84 b 651 78 656 78 654 78 b 640 84 647 78 642 80 l 414 453 l 399 478 l 371 523 l 337 483 l 319 460 l 249 377 l 222 344 l 172 284 l 172 91 b 158 78 172 84 166 78 b 144 91 151 78 144 84 l 144 881 b 158 895 144 888 151 895 b 172 881 166 895 172 888 l 172 327 l 222 387 l 304 485 l 323 508 l 397 597 l 416 620 l 641 890 b 660 891 646 895 654 896 b 662 872 666 886 667 878 l 439 605 l 422 584 l 390 545 b 392 543 390 544 391 544 l 418 500 l 433 476 "},"l":{"ha":740,"x_min":0,"x_max":0,"o":"m 651 183 b 743 91 702 183 743 142 b 651 0 743 41 702 0 l 158 0 b 67 91 108 0 67 41 l 67 881 b 158 972 67 931 108 972 b 249 881 208 972 249 931 l 249 183 l 651 183 m 651 27 b 715 91 687 27 715 56 b 651 155 715 127 687 155 l 236 155 b 222 169 228 155 222 162 l 222 881 b 158 945 222 916 193 945 b 94 881 123 945 94 916 l 94 91 b 158 27 94 56 123 27 l 651 27 m 651 105 b 665 91 659 105 665 99 b 651 78 665 84 659 78 l 158 78 b 144 91 151 78 144 84 l 144 881 b 158 895 144 888 151 895 b 172 881 166 895 172 888 l 172 105 l 651 105 "},"m":{"ha":1107,"x_min":0,"x_max":0,"o":"m 982 965 b 1039 881 1017 951 1039 918 l 1039 91 b 947 0 1039 41 998 0 b 856 91 897 0 856 41 l 856 660 l 617 421 b 488 421 582 386 524 386 l 249 660 l 249 91 b 158 0 249 41 208 0 b 67 91 108 0 67 41 l 67 881 b 123 965 67 918 89 951 b 223 945 157 979 196 972 l 553 615 l 883 945 b 982 965 909 972 948 979 m 1011 881 b 972 940 1011 907 996 930 b 902 926 948 950 921 944 l 562 586 b 543 586 557 581 548 581 l 203 926 b 134 940 185 944 158 950 b 94 881 110 930 94 907 l 94 91 b 158 27 94 56 123 27 b 222 91 193 27 222 56 l 222 693 b 231 706 222 699 225 704 b 245 703 236 708 242 707 l 508 441 b 598 441 532 416 573 416 l 860 703 b 870 707 863 706 866 707 b 875 706 872 707 873 707 b 883 693 880 704 883 699 l 883 91 b 947 27 883 56 912 27 b 1011 91 983 27 1011 56 m 953 893 b 961 881 958 891 961 886 l 961 91 b 947 78 961 84 955 78 b 934 91 940 78 934 84 l 934 848 l 562 476 b 543 476 557 471 548 471 l 172 848 l 172 91 b 158 78 172 84 166 78 b 144 91 151 78 144 84 l 144 881 b 153 893 144 886 148 891 b 168 891 158 896 164 894 l 553 505 l 938 891 b 953 893 942 894 948 896 "},"n":{"ha":810,"x_min":0,"x_max":0,"o":"m 651 972 b 743 881 702 972 743 931 l 743 91 b 677 4 743 51 716 15 b 651 0 668 1 660 0 b 574 43 620 0 591 16 l 249 562 l 249 91 b 158 0 249 41 208 0 b 67 91 108 0 67 41 l 67 881 b 133 969 67 921 94 957 b 236 929 172 980 214 964 l 560 410 l 560 881 b 651 972 560 931 601 972 m 669 30 b 715 91 696 38 715 63 l 715 881 b 651 945 715 916 687 945 b 587 881 616 945 587 916 l 587 362 b 578 349 587 356 583 351 b 562 355 572 347 565 350 l 212 915 b 140 942 197 939 168 950 b 94 881 113 935 94 909 l 94 91 b 158 27 94 56 123 27 b 222 91 193 27 222 56 l 222 610 b 232 623 222 616 226 621 b 236 624 233 623 235 624 b 247 617 240 624 245 621 l 597 57 b 651 27 609 39 629 27 b 669 30 657 27 663 28 m 651 895 b 665 881 659 895 665 888 l 665 91 b 655 78 665 85 661 80 b 651 78 654 78 653 78 b 640 84 647 78 642 80 l 172 833 l 172 91 b 158 78 172 84 166 78 b 144 91 151 78 144 84 l 144 881 b 154 894 144 887 148 892 b 170 888 160 896 166 893 l 638 139 l 638 881 b 651 895 638 888 644 895 "},"o":{"ha":771,"x_min":0,"x_max":0,"o":"m 385 972 b 723 634 572 972 723 821 l 723 338 b 385 0 723 152 572 0 b 47 338 199 0 47 152 l 47 634 b 385 972 47 821 199 972 m 696 634 b 385 945 696 805 557 945 b 75 634 214 945 75 805 l 75 338 b 385 27 75 167 214 27 b 696 338 557 27 696 167 m 385 895 b 646 634 529 895 646 778 l 646 338 b 385 78 646 195 529 78 b 125 338 242 78 125 195 l 125 634 b 385 895 125 778 242 895 m 618 634 b 385 867 618 763 514 867 b 152 634 257 867 152 763 l 152 338 b 385 105 152 210 257 105 b 618 338 514 105 618 210 m 385 817 b 568 634 486 817 568 735 l 568 338 b 385 155 568 237 486 155 b 203 338 285 155 203 237 l 203 634 b 385 817 203 735 285 817 m 541 634 b 385 789 541 720 471 789 b 230 634 300 789 230 720 l 230 338 b 385 183 230 252 300 183 b 541 338 471 183 541 252 "},"p":{"ha":758,"x_min":0,"x_max":0,"o":"m 454 972 b 743 683 613 972 743 843 b 454 395 743 524 613 395 l 249 395 l 249 91 b 158 0 249 41 208 0 b 67 91 108 0 67 41 l 67 881 b 158 972 67 931 108 972 l 454 972 m 454 422 b 715 683 598 422 715 539 b 454 945 715 828 598 945 l 158 945 b 94 881 123 945 94 916 l 94 91 b 158 27 94 56 123 27 b 222 91 193 27 222 56 l 222 408 b 236 422 222 416 228 422 l 454 422 m 454 817 b 587 683 528 817 587 757 b 454 550 587 610 528 550 l 236 550 b 222 564 228 550 222 556 l 222 803 b 236 817 222 811 228 817 l 454 817 m 454 578 b 560 683 513 578 560 625 b 454 789 560 742 513 789 l 249 789 l 249 578 l 454 578 m 454 895 b 665 683 570 895 665 800 b 454 472 665 567 570 472 l 172 472 l 172 91 b 158 78 172 84 166 78 b 144 91 151 78 144 84 l 144 881 b 158 895 144 888 151 895 l 454 895 m 454 500 b 638 683 555 500 638 582 b 454 867 638 785 555 867 l 172 867 l 172 500 l 454 500 "},"q":{"ha":778,"x_min":0,"x_max":0,"o":"m 714 132 b 719 63 725 110 726 86 b 673 10 711 39 695 21 b 632 0 660 3 646 0 b 553 45 599 0 570 17 b 385 0 504 16 446 0 b 47 338 199 0 47 152 l 47 634 b 385 972 47 821 199 972 b 723 634 572 972 723 821 l 723 338 b 687 186 723 283 710 232 l 714 132 m 693 71 b 689 120 698 87 697 105 l 671 157 l 656 186 b 671 217 662 196 667 206 b 696 338 687 254 696 295 l 696 634 b 385 945 696 805 557 945 b 75 634 214 945 75 805 l 75 338 b 385 27 75 167 214 27 b 541 69 442 27 495 43 b 564 84 549 74 557 79 l 575 63 b 577 59 575 62 576 61 b 632 27 588 40 609 27 b 661 34 642 27 652 30 b 693 71 676 42 687 55 m 385 895 b 646 634 529 895 646 778 l 646 338 b 639 281 646 318 644 299 b 628 243 636 268 633 255 b 599 189 620 224 610 206 l 624 139 l 637 112 l 644 98 b 638 79 648 91 645 83 b 632 78 636 78 634 78 b 620 85 627 78 622 80 l 617 92 l 604 117 l 580 165 b 541 130 568 152 555 140 b 518 114 534 124 526 119 b 385 78 479 91 434 78 b 125 338 242 78 125 195 l 125 634 b 385 895 125 778 242 895 m 618 338 l 618 634 b 385 867 618 763 514 867 b 152 634 257 867 152 763 l 152 338 b 385 105 152 210 257 105 b 506 139 429 105 471 117 b 529 155 514 144 522 149 b 566 192 543 166 555 178 l 541 243 l 422 480 b 429 498 419 487 422 495 b 447 492 435 502 444 499 l 584 217 b 610 278 596 236 605 256 b 618 324 614 293 617 308 b 618 338 618 329 618 333 m 385 817 b 568 634 486 817 568 735 l 568 362 l 541 417 l 492 515 b 435 550 481 537 458 550 b 406 543 425 550 415 548 b 377 457 374 528 362 489 l 493 226 l 506 201 b 483 184 499 195 491 189 b 385 155 455 166 421 155 b 203 338 285 155 203 237 l 203 634 b 385 817 203 735 285 817 m 541 479 l 541 634 b 385 789 541 720 471 789 b 230 634 300 789 230 720 l 230 338 b 385 183 230 252 300 183 b 471 209 417 183 447 192 l 353 445 b 394 568 330 490 349 545 b 516 527 439 590 494 572 l 541 479 "},"r":{"ha":782,"x_min":0,"x_max":0,"o":"m 733 132 b 692 10 756 87 737 32 b 652 0 680 3 666 0 b 570 51 617 0 585 19 l 398 395 l 249 395 l 249 91 b 158 0 249 41 208 0 b 67 91 108 0 67 41 l 67 881 b 158 972 67 931 108 972 l 454 972 b 743 683 613 972 743 843 b 586 427 743 575 682 476 m 680 34 b 709 120 712 50 724 88 l 555 427 b 555 437 554 430 553 434 b 562 445 556 441 559 444 b 715 683 655 488 715 581 b 454 945 715 828 598 945 l 158 945 b 94 881 123 945 94 916 l 94 91 b 158 27 94 56 123 27 b 222 91 193 27 222 56 l 222 422 l 415 422 l 428 395 l 594 63 b 652 27 605 41 627 27 b 680 34 661 27 671 30 m 587 683 b 507 561 587 629 554 581 b 454 550 490 554 473 550 l 222 550 l 222 803 b 236 817 222 811 228 817 l 454 817 b 587 683 528 817 587 757 m 454 578 b 560 683 513 578 560 625 b 454 789 560 742 513 789 l 249 789 l 249 578 l 454 578 m 664 98 b 658 79 667 91 664 83 b 651 78 656 78 654 78 b 639 85 646 78 642 80 l 482 399 l 470 424 l 446 472 l 172 472 l 172 91 b 158 78 172 84 166 78 b 144 91 151 78 144 84 l 144 881 b 158 895 144 888 151 895 l 454 895 b 665 683 570 895 665 800 b 545 493 665 600 616 527 b 518 482 536 489 527 485 b 476 474 504 478 490 475 l 494 436 l 507 411 m 454 500 b 514 510 475 500 495 503 b 539 521 522 513 531 516 b 638 683 598 551 638 613 b 454 867 638 785 555 867 l 172 867 l 172 500 l 454 500 "},"s":{"ha":763,"x_min":0,"x_max":0,"o":"m 430 578 b 719 289 590 578 719 448 b 430 0 719 130 590 0 l 332 0 b 43 289 173 0 43 130 b 134 380 43 339 84 380 b 226 289 185 380 226 339 b 332 183 226 230 273 183 l 430 183 b 536 289 489 183 536 230 b 430 395 536 347 489 395 l 332 395 b 43 683 173 395 43 524 b 332 972 43 843 173 972 l 430 972 b 719 683 590 972 719 843 b 628 592 719 633 678 592 b 536 683 577 592 536 633 b 430 789 536 742 489 789 l 332 789 b 226 683 273 789 226 742 b 332 578 226 625 273 578 l 430 578 m 430 27 b 692 289 575 27 692 145 b 430 550 692 433 575 550 l 332 550 b 198 683 258 550 198 610 b 332 817 198 757 258 817 l 430 817 b 564 683 504 817 564 757 b 628 619 564 648 593 619 b 692 683 663 619 692 648 b 430 945 692 828 575 945 l 332 945 b 70 683 188 945 70 828 b 332 422 70 539 188 422 l 430 422 b 564 289 504 422 564 362 b 430 155 564 215 504 155 l 332 155 b 198 289 258 155 198 215 b 134 353 198 324 170 353 b 70 289 99 353 70 324 b 332 27 70 145 188 27 l 430 27 m 430 500 b 642 289 547 500 642 405 b 430 78 642 172 547 78 l 332 78 b 121 289 215 78 121 172 b 134 302 121 296 127 302 b 148 289 142 302 148 296 b 332 105 148 187 231 105 l 430 105 b 614 289 532 105 614 187 b 430 472 614 390 532 472 l 332 472 b 121 683 215 472 121 567 b 332 895 121 800 215 895 l 430 895 b 642 683 547 895 642 800 b 628 670 642 676 635 670 b 614 683 620 670 614 676 b 430 867 614 785 532 867 l 332 867 b 148 683 231 867 148 785 b 332 500 148 582 231 500 l 430 500 "},"t":{"ha":671,"x_min":0,"x_max":0,"o":"m 582 972 b 673 881 632 972 673 931 b 582 789 673 830 632 789 l 427 789 l 427 91 b 335 0 427 41 386 0 b 244 91 285 0 244 41 l 244 789 l 89 789 b -3 881 38 789 -3 830 b 89 972 -3 931 38 972 l 582 972 m 582 817 b 646 881 617 817 646 846 b 582 945 646 916 617 945 l 89 945 b 25 881 53 945 25 916 b 89 817 25 846 53 817 l 271 817 l 271 91 b 335 27 271 56 300 27 b 399 91 371 27 399 56 l 399 817 l 582 817 m 582 895 b 596 881 590 895 596 888 b 582 867 596 873 590 867 l 349 867 l 349 91 b 335 78 349 84 343 78 b 322 91 328 78 322 84 l 322 867 l 89 867 b 75 881 81 867 75 873 b 89 895 75 888 81 895 l 582 895 "},"u":{"ha":790,"x_min":0,"x_max":0,"o":"m 642 972 b 733 881 692 972 733 931 l 733 338 b 395 0 733 152 581 0 b 57 338 209 0 57 152 l 57 881 b 148 972 57 931 98 972 b 240 881 199 972 240 931 l 240 338 b 395 183 240 252 309 183 b 550 338 481 183 550 252 l 550 881 b 642 972 550 931 591 972 m 706 881 b 642 945 706 916 677 945 b 578 881 606 945 578 916 l 578 338 b 395 155 578 237 496 155 b 212 338 294 155 212 237 l 212 881 b 148 945 212 916 184 945 b 84 881 113 945 84 916 l 84 338 b 395 27 84 167 224 27 b 706 338 566 27 706 167 m 642 895 b 655 881 649 895 655 888 l 655 338 b 395 78 655 195 539 78 b 135 338 251 78 135 195 l 135 881 b 148 895 135 888 141 895 b 162 881 156 895 162 888 l 162 338 b 395 105 162 210 267 105 b 628 338 524 105 628 210 l 628 881 b 642 895 628 888 634 895 "},"v":{"ha":789,"x_min":0,"x_max":0,"o":"m 723 966 b 776 849 770 949 794 896 l 480 59 b 394 0 467 24 432 0 b 309 59 356 0 322 24 l 13 849 b 66 966 -5 896 19 949 b 136 964 89 975 114 974 b 184 913 158 954 175 936 l 394 352 l 605 913 b 723 966 623 960 675 984 m 750 858 b 713 941 763 891 746 928 b 630 903 680 953 643 936 l 407 308 b 394 299 405 303 400 299 b 382 308 389 299 384 303 l 158 903 b 125 939 152 919 140 932 b 98 945 116 943 107 945 b 76 941 91 945 83 943 b 38 858 43 928 26 891 l 334 69 b 394 27 344 44 368 27 b 454 69 421 27 445 44 l 750 858 m 695 894 b 703 876 702 891 706 883 l 407 87 b 394 78 405 81 400 78 b 382 87 389 78 384 81 l 86 876 b 94 894 83 883 86 891 b 111 886 101 896 109 893 l 394 130 l 678 886 b 695 894 680 893 688 896 "},"w":{"ha":1382,"x_min":0,"x_max":0,"o":"m 1315 966 b 1368 849 1362 949 1386 896 l 1072 59 b 986 0 1059 24 1024 0 b 901 59 949 0 914 24 l 690 620 l 480 59 b 394 0 467 24 432 0 b 309 59 356 0 322 24 l 13 849 b 66 966 -5 896 19 949 b 184 913 113 984 166 960 l 394 352 l 605 913 b 620 939 608 923 614 931 b 620 939 620 939 620 939 b 624 944 622 941 623 942 b 626 946 625 945 625 945 b 627 947 626 946 627 946 b 631 951 629 948 630 949 b 631 951 631 951 631 951 b 658 966 639 957 648 963 b 680 972 666 969 673 971 b 682 972 681 972 681 972 b 686 972 683 972 684 972 b 687 972 686 972 687 972 b 692 972 689 972 690 972 b 694 972 692 972 693 972 b 697 972 695 972 696 972 b 700 972 698 972 699 972 b 703 971 701 972 702 971 b 709 970 705 971 707 971 b 709 970 709 970 709 970 b 713 969 711 970 712 970 b 714 969 713 969 714 969 b 717 968 715 969 716 968 b 719 968 718 968 718 968 b 722 967 720 967 721 967 b 723 966 722 967 722 967 b 723 966 723 966 723 966 b 726 965 724 966 725 965 b 728 964 726 965 727 965 b 728 964 728 964 728 964 b 730 963 729 964 729 964 b 732 962 730 963 731 963 b 734 961 732 962 733 962 b 736 960 734 961 735 961 b 738 959 736 960 737 959 b 739 958 739 959 739 958 b 742 956 740 957 741 957 b 743 956 743 956 743 956 b 748 952 745 954 746 953 b 749 951 748 952 748 951 b 752 948 750 950 751 949 b 754 946 753 947 754 947 b 756 944 755 945 756 945 b 768 929 761 939 765 934 b 768 928 768 928 768 928 b 772 922 770 926 771 924 b 772 922 772 922 772 922 b 775 916 773 920 774 918 b 775 915 775 916 775 915 b 776 913 775 914 776 914 l 986 352 l 1197 913 b 1315 966 1215 960 1267 984 m 1342 858 b 1305 941 1355 891 1338 928 b 1223 903 1272 953 1235 936 l 999 308 b 986 299 997 303 992 299 b 974 308 981 299 976 303 l 773 842 l 750 903 b 750 904 750 904 750 904 b 748 908 749 905 749 907 b 747 910 748 909 748 909 b 746 913 747 911 746 912 b 744 916 745 914 744 915 b 742 918 743 917 743 918 b 740 921 741 919 741 920 b 738 923 739 922 739 923 b 736 925 738 924 737 925 b 734 928 735 926 735 927 b 732 929 733 928 733 929 b 729 932 731 930 730 931 b 727 933 728 932 728 933 b 723 936 726 934 725 935 b 722 936 723 936 723 936 b 717 939 721 937 719 938 b 716 939 717 939 717 939 b 715 940 716 940 715 940 b 713 941 714 940 714 940 b 712 941 713 941 712 941 b 710 942 711 941 711 942 b 709 942 710 942 709 942 b 704 943 708 942 706 943 b 704 943 704 943 704 943 b 689 945 699 944 694 945 b 686 945 688 945 687 945 b 683 944 685 945 684 944 b 681 944 682 944 681 944 b 678 944 680 944 679 944 b 675 943 677 943 676 943 b 673 942 674 943 673 942 b 669 941 671 942 670 942 b 667 940 668 941 667 940 b 663 938 665 940 664 939 b 661 937 662 938 661 938 b 657 935 659 937 658 936 b 655 934 656 935 656 935 b 651 931 654 933 653 932 b 650 931 651 931 651 931 b 646 927 649 929 647 928 b 646 926 646 927 646 927 b 644 925 645 926 645 925 b 631 903 638 919 634 912 l 607 842 l 407 308 b 394 299 405 303 400 299 b 382 308 389 299 384 303 l 158 903 b 98 945 149 929 124 945 b 76 941 91 945 83 944 b 38 858 43 928 26 891 l 334 69 b 394 27 344 44 368 27 b 454 69 421 27 445 44 l 676 660 l 690 699 l 705 660 l 927 69 b 986 27 936 44 960 27 b 1046 69 1013 27 1037 44 l 1342 858 m 1287 894 b 1295 876 1294 891 1298 883 l 999 87 b 986 78 997 81 992 78 b 974 87 981 78 976 81 l 732 731 l 717 770 l 690 842 l 664 770 l 649 731 l 407 87 b 394 78 405 81 400 78 b 382 87 389 78 384 81 l 86 876 b 94 894 83 883 86 891 b 111 886 101 896 109 893 l 394 130 l 634 770 l 649 809 l 678 886 b 678 886 678 886 678 886 b 678 887 678 886 678 887 b 679 888 679 888 679 888 b 680 889 679 889 680 889 b 681 890 680 890 680 890 b 682 891 681 891 681 891 b 683 892 682 892 682 892 b 684 893 683 892 684 893 b 685 893 684 893 685 893 b 686 894 685 894 685 894 b 686 894 686 894 686 894 b 688 894 687 894 687 894 b 689 894 688 894 689 894 b 690 894 690 894 690 894 b 692 894 691 894 691 894 b 693 894 692 894 693 894 b 694 894 694 894 694 894 b 695 894 695 894 695 894 b 696 893 695 894 695 894 b 697 893 696 893 697 893 b 698 892 697 893 698 892 b 699 891 698 892 699 892 b 700 890 699 891 700 891 b 701 889 700 890 701 890 b 702 888 701 889 702 889 b 702 887 702 888 702 888 b 703 886 703 887 703 886 b 703 886 703 886 703 886 l 732 809 l 747 770 l 986 130 l 1270 886 b 1287 894 1272 893 1280 896 "},"x":{"ha":726,"x_min":0,"x_max":0,"o":"m 687 140 b 658 14 714 97 701 41 b 610 0 644 5 627 0 b 532 43 578 0 549 16 l 363 314 l 194 43 b 116 0 177 16 148 0 b 68 14 99 0 82 5 b 39 140 25 41 12 97 l 255 486 l 39 832 b 68 958 12 875 25 932 b 137 970 89 971 113 975 b 194 929 161 964 181 950 l 363 659 l 532 929 b 658 958 559 972 615 985 b 687 832 701 932 714 875 l 471 486 m 644 37 b 664 125 674 56 683 95 l 455 460 l 439 486 l 455 512 l 664 847 b 644 935 683 877 674 916 b 610 945 633 942 621 945 b 555 915 589 945 568 934 l 379 633 l 363 607 l 347 633 l 171 915 b 131 943 162 929 147 939 b 116 945 126 944 121 945 b 82 935 104 945 93 942 b 62 847 53 916 43 877 l 271 512 l 288 486 l 271 460 l 62 125 b 82 37 43 95 53 56 b 116 27 93 31 104 27 b 171 57 139 27 159 39 l 347 340 l 363 365 l 379 340 l 555 57 b 610 27 567 39 588 27 b 644 37 622 27 633 31 m 621 99 b 617 80 625 92 623 84 b 610 78 615 78 612 78 b 598 84 605 78 601 80 l 409 387 l 393 413 l 363 460 l 333 413 l 317 387 l 128 84 b 116 78 125 80 121 78 b 109 80 114 78 111 78 b 105 99 103 84 101 92 l 301 413 l 317 439 l 347 486 l 317 534 l 301 559 l 105 874 b 109 892 101 880 103 888 b 128 888 116 896 124 895 l 317 585 l 333 559 l 363 512 l 393 559 l 409 585 l 598 888 b 617 892 602 894 611 896 b 621 874 623 888 625 880 l 425 559 l 409 534 l 379 486 l 409 439 l 425 413 "},"y":{"ha":676,"x_min":0,"x_max":0,"o":"m 633 958 b 662 832 676 932 689 875 l 429 460 l 429 91 b 338 0 429 41 388 0 b 247 91 288 0 247 41 l 247 460 l 14 832 b 43 958 -13 875 0 932 b 112 970 64 971 88 975 b 169 929 136 964 156 950 l 338 659 l 507 929 b 633 958 534 972 590 985 m 639 847 b 619 935 658 877 649 916 b 530 915 589 954 549 945 l 350 625 b 338 619 347 621 343 619 b 326 625 333 619 329 621 l 146 915 b 106 943 137 929 122 939 b 91 945 101 944 96 945 b 57 935 79 945 68 942 b 37 847 28 916 18 877 l 249 508 l 274 468 l 274 91 b 338 27 274 56 303 27 b 402 91 373 27 402 56 l 402 468 l 427 508 l 639 847 m 592 892 b 596 874 598 888 600 880 l 398 555 l 383 532 l 352 482 l 352 91 b 338 78 352 84 346 78 b 324 91 330 78 324 84 l 324 482 l 293 532 l 279 555 l 80 874 b 84 892 76 880 78 888 b 103 888 91 896 99 894 l 302 570 l 317 546 l 338 512 l 360 546 l 374 570 l 573 888 b 592 892 577 894 586 896 "},"z":{"ha":718,"x_min":0,"x_max":0,"o":"m 606 183 b 697 91 656 183 697 142 b 606 0 697 41 656 0 l 112 0 b 32 47 79 0 48 18 b 35 140 16 76 17 112 l 441 789 l 112 789 b 21 881 62 789 21 830 b 112 972 21 931 62 972 l 606 972 b 686 925 639 972 669 954 b 683 832 702 896 701 861 l 277 183 l 606 183 m 606 27 b 670 91 641 27 670 56 b 606 155 670 127 641 155 l 252 155 b 240 162 247 155 243 158 b 241 176 238 167 238 172 l 660 847 b 662 912 672 867 673 892 b 606 945 650 932 629 945 l 112 945 b 48 881 77 945 48 916 b 112 817 48 846 77 817 l 465 817 b 477 810 470 817 475 814 b 477 796 480 805 480 800 l 58 125 b 56 60 46 106 45 81 b 112 27 68 40 89 27 l 606 27 m 606 105 b 619 91 613 105 619 99 b 606 78 619 84 613 78 l 112 78 b 100 85 107 78 103 80 b 101 99 98 89 98 94 l 581 867 l 112 867 b 99 881 105 867 99 873 b 112 895 99 888 105 895 l 606 895 b 618 887 611 895 615 892 b 617 874 620 883 620 878 l 137 105 l 606 105 "},"":{"ha":421,"x_min":0,"x_max":0,"o":""},"":{"ha":0,"x_min":0,"x_max":0,"o":""},"":{"ha":789,"x_min":0,"x_max":0,"o":"m 776 124 b 723 6 794 76 770 24 b 690 0 712 2 701 0 b 605 59 653 0 618 24 l 553 197 l 236 197 l 184 59 b 136 8 175 36 158 18 b 98 0 124 3 111 0 b 66 6 88 0 77 2 b 13 124 19 24 -5 76 l 86 320 l 87 320 l 309 913 b 394 972 322 948 356 972 b 480 913 432 972 467 948 l 702 320 l 702 320 l 776 124 m 713 32 b 750 114 746 44 763 81 l 699 250 l 677 311 l 676 311 l 653 372 l 454 903 b 394 945 445 928 421 945 b 334 903 368 945 344 928 l 135 372 l 112 311 l 112 311 l 90 250 l 38 114 b 76 32 26 81 43 44 b 125 33 92 26 109 26 b 158 69 140 40 152 53 l 206 197 l 217 225 l 572 225 l 582 197 l 630 69 b 690 27 640 44 664 27 b 713 32 698 27 706 29 m 514 380 l 524 353 l 265 353 l 275 380 l 382 664 b 394 673 384 670 389 673 b 407 664 400 673 405 670 m 485 380 l 394 621 l 304 380 m 703 96 b 695 79 706 89 702 81 b 690 78 694 78 692 78 b 678 87 685 78 680 81 l 635 199 l 626 225 l 607 275 l 182 275 l 163 225 l 153 199 l 111 87 b 94 79 109 80 101 76 b 86 96 86 81 83 89 l 128 209 l 138 235 l 182 353 l 192 380 l 382 886 b 394 895 384 891 389 895 b 407 886 400 895 405 891 l 597 380 l 607 353 l 651 235 l 661 209 m 597 303 l 578 353 l 567 380 l 394 842 l 221 380 l 211 353 l 192 303 "},"":{"ha":789,"x_min":0,"x_max":0,"o":"m 743 683 b 665 486 743 607 713 538 b 743 289 713 434 743 365 b 454 0 743 130 613 0 l 158 0 b 67 91 108 0 67 41 l 67 881 b 158 972 67 931 108 972 l 454 972 b 743 683 613 972 743 843 m 715 289 b 645 467 715 358 689 420 b 625 486 639 474 632 480 b 645 505 632 492 639 498 b 715 683 689 552 715 615 b 454 945 715 828 598 945 l 158 945 b 94 881 123 945 94 916 l 94 91 b 158 27 94 56 123 27 l 454 27 b 715 289 598 27 715 145 m 523 569 b 454 550 503 557 479 550 l 236 550 b 222 564 228 550 222 556 l 222 803 b 236 817 222 811 228 817 l 454 817 b 587 683 528 817 587 757 b 523 569 587 635 562 593 m 249 578 l 454 578 b 560 683 513 578 560 625 b 454 789 560 742 513 789 l 249 789 m 583 456 b 604 437 590 450 597 444 b 665 289 642 399 665 346 b 454 78 665 172 570 78 l 158 78 b 144 91 151 78 144 84 l 144 881 b 158 895 144 888 151 895 l 454 895 b 665 683 570 895 665 800 b 604 535 665 626 642 573 b 583 516 598 528 590 522 b 529 486 566 504 548 494 b 583 456 548 479 566 469 m 172 500 l 454 500 b 555 530 491 500 526 511 b 579 549 563 536 572 542 b 638 683 615 583 638 630 b 454 867 638 785 555 867 l 172 867 m 454 105 b 638 289 555 105 638 187 b 579 423 638 342 615 390 b 555 442 572 430 563 437 b 454 472 526 461 491 472 l 172 472 l 172 105 l 454 105 m 523 403 b 587 289 562 380 587 337 b 454 155 587 215 528 155 l 236 155 b 222 169 228 155 222 162 l 222 408 b 236 422 222 416 228 422 l 454 422 b 523 403 479 422 503 415 m 454 183 b 560 289 513 183 560 230 b 454 395 560 347 513 395 l 249 395 l 249 183 l 454 183 "},"":{"ha":740,"x_min":0,"x_max":0,"o":"m 651 972 b 743 881 702 972 743 931 b 651 789 743 830 702 789 l 249 789 l 249 91 b 158 0 249 41 208 0 b 67 91 108 0 67 41 l 67 881 b 158 972 67 931 108 972 l 651 972 m 651 817 b 715 881 687 817 715 846 b 651 945 715 916 687 945 l 158 945 b 94 881 123 945 94 916 l 94 91 b 158 27 94 56 123 27 b 222 91 193 27 222 56 l 222 803 b 236 817 222 811 228 817 l 651 817 m 651 895 b 665 881 659 895 665 888 b 651 867 665 873 659 867 l 172 867 l 172 91 b 158 78 172 84 166 78 b 144 91 151 78 144 84 l 144 881 b 158 895 144 888 151 895 l 651 895 "},"":{"ha":789,"x_min":0,"x_max":0,"o":"m 776 123 b 766 39 787 95 783 64 b 690 0 748 15 720 0 l 98 0 b 23 39 68 0 40 15 b 13 123 6 64 2 95 l 309 913 b 394 972 322 948 356 972 b 480 913 432 972 467 948 l 776 123 m 743 55 b 750 114 755 72 758 94 l 454 903 b 394 945 445 928 421 945 b 334 903 368 945 344 928 l 38 114 b 46 55 31 94 34 72 b 98 27 58 38 77 27 l 690 27 b 743 55 711 27 731 38 m 703 96 b 702 84 705 92 704 87 b 690 78 699 80 695 78 l 98 78 b 87 84 94 78 90 80 b 86 96 85 87 84 92 l 382 886 b 394 895 384 891 389 895 b 407 886 400 895 405 891 m 671 105 l 394 842 l 118 105 m 382 664 b 394 673 384 670 389 673 b 407 664 400 673 405 670 l 591 174 b 590 161 593 170 592 165 b 578 155 587 158 583 155 l 210 155 b 199 161 206 155 202 158 b 198 174 197 165 196 170 l 382 664 m 394 621 l 230 183 l 559 183 "},"":{"ha":767,"x_min":0,"x_max":0,"o":"m 636 380 b 728 289 687 380 728 339 b 439 0 728 130 598 0 l 340 0 b 51 289 181 0 51 130 l 51 683 b 340 972 51 843 181 972 l 439 972 b 728 683 598 972 728 843 b 636 592 728 633 687 592 b 545 683 586 592 545 633 b 439 789 545 742 497 789 l 340 789 b 234 683 282 789 234 742 l 234 578 l 538 578 b 629 486 588 578 629 537 b 538 395 629 436 588 395 l 234 395 l 234 289 b 340 183 234 230 282 183 l 439 183 b 545 289 497 183 545 230 b 636 380 545 339 586 380 m 439 27 b 700 289 583 27 700 145 b 636 353 700 324 671 353 b 572 289 601 353 572 324 b 439 155 572 215 512 155 l 340 155 b 207 289 267 155 207 215 l 207 422 l 538 422 b 601 486 573 422 601 451 b 538 550 601 521 573 550 l 207 550 l 207 683 b 340 817 207 757 267 817 l 439 817 b 572 683 512 817 572 757 b 636 619 572 648 601 619 b 700 683 671 619 700 648 b 439 945 700 828 583 945 l 340 945 b 79 683 196 945 79 828 l 79 289 b 340 27 79 145 196 27 l 439 27 m 636 302 b 650 289 644 302 650 296 b 439 78 650 172 555 78 l 340 78 b 129 289 224 78 129 172 l 129 683 b 340 895 129 800 224 895 l 439 895 b 650 683 555 895 650 800 b 636 670 650 676 644 670 b 622 683 629 670 622 676 b 439 867 622 785 540 867 l 340 867 b 156 683 239 867 156 785 l 156 500 l 538 500 b 551 486 545 500 551 494 b 538 472 551 479 545 472 l 156 472 l 156 289 b 340 105 156 187 239 105 l 439 105 b 622 289 540 105 622 187 b 636 302 622 296 629 302 "},"":{"ha":718,"x_min":0,"x_max":0,"o":"m 606 183 b 697 91 656 183 697 142 b 606 0 697 41 656 0 l 112 0 b 32 47 79 0 48 18 b 35 140 16 76 17 112 l 441 789 l 112 789 b 21 881 62 789 21 830 b 112 972 21 931 62 972 l 606 972 b 686 925 639 972 669 954 b 683 832 702 896 701 861 l 277 183 l 606 183 m 606 27 b 670 91 641 27 670 56 b 606 155 670 127 641 155 l 252 155 b 240 162 247 155 243 158 b 241 176 238 167 238 172 l 660 847 b 662 912 672 867 673 892 b 606 945 650 932 629 945 l 112 945 b 48 881 77 945 48 916 b 112 817 48 846 77 817 l 465 817 b 477 810 470 817 475 814 b 477 796 480 805 480 800 l 58 125 b 56 60 46 106 45 81 b 112 27 68 40 89 27 l 606 27 m 606 105 b 619 91 613 105 619 99 b 606 78 619 84 613 78 l 112 78 b 100 85 107 78 103 80 b 101 99 98 89 98 94 l 581 867 l 112 867 b 99 881 105 867 99 873 b 112 895 99 888 105 895 l 606 895 b 618 887 611 895 615 892 b 617 874 620 883 620 878 l 137 105 l 606 105 "},"":{"ha":810,"x_min":0,"x_max":0,"o":"m 651 972 b 743 881 702 972 743 931 l 743 91 b 651 0 743 41 702 0 b 560 91 601 0 560 41 l 560 395 l 249 395 l 249 91 b 158 0 249 41 208 0 b 67 91 108 0 67 41 l 67 881 b 158 972 67 931 108 972 b 249 881 208 972 249 931 l 249 578 l 560 578 l 560 881 b 651 972 560 931 601 972 m 715 881 b 651 945 715 916 687 945 b 587 881 616 945 587 916 l 587 550 l 222 550 l 222 881 b 158 945 222 916 193 945 b 94 881 123 945 94 916 l 94 91 b 158 27 94 56 123 27 b 222 91 193 27 222 56 l 222 422 l 587 422 l 587 91 b 651 27 587 56 616 27 b 715 91 687 27 715 56 m 651 895 b 665 881 659 895 665 888 l 665 91 b 651 78 665 84 659 78 b 638 91 644 78 638 84 l 638 472 l 172 472 l 172 91 b 158 78 172 84 166 78 b 144 91 151 78 144 84 l 144 881 b 158 895 144 888 151 895 b 172 881 166 895 172 888 l 172 500 l 638 500 l 638 881 b 651 895 638 888 644 895 "},"":{"ha":771,"x_min":0,"x_max":0,"o":"m 385 972 b 723 634 572 972 723 821 l 723 338 b 385 0 723 152 572 0 b 47 338 199 0 47 152 l 47 634 b 385 972 47 821 199 972 m 696 634 b 385 945 696 805 557 945 b 75 634 214 945 75 805 l 75 338 b 385 27 75 167 214 27 b 696 338 557 27 696 167 m 385 895 b 646 634 529 895 646 778 l 646 338 b 385 78 646 195 529 78 b 125 338 242 78 125 195 l 125 634 b 385 895 125 778 242 895 m 618 472 l 152 472 l 152 338 b 385 105 152 210 257 105 b 618 338 514 105 618 210 m 618 634 b 385 867 618 763 514 867 b 152 634 257 867 152 763 l 152 500 l 618 500 m 385 817 b 568 634 486 817 568 735 l 568 550 l 203 550 l 203 634 b 385 817 203 735 285 817 m 541 634 b 385 789 541 720 471 789 b 230 634 300 789 230 720 l 230 578 l 541 578 m 568 422 l 568 338 b 385 155 568 237 486 155 b 203 338 285 155 203 237 l 203 422 m 541 395 l 230 395 l 230 338 b 385 183 230 252 300 183 b 541 338 471 183 541 252 "},"":{"ha":317,"x_min":0,"x_max":0,"o":"m 158 972 b 249 881 208 972 249 931 l 249 91 b 158 0 249 41 208 0 b 67 91 108 0 67 41 l 67 881 b 158 972 67 931 108 972 m 222 881 b 158 945 222 916 193 945 b 94 881 123 945 94 916 l 94 91 b 158 27 94 56 123 27 b 222 91 193 27 222 56 m 158 895 b 172 881 166 895 172 888 l 172 91 b 158 78 172 84 166 78 b 144 91 151 78 144 84 l 144 881 b 158 895 144 888 151 895 "},"":{"ha":765,"x_min":0,"x_max":0,"o":"m 729 139 b 740 70 742 118 746 94 b 699 13 735 46 720 26 b 652 0 685 5 668 0 b 573 44 619 0 590 16 l 362 390 l 249 256 l 249 91 b 158 0 249 41 208 0 b 67 91 108 0 67 41 l 67 881 b 158 972 67 931 108 972 b 249 881 208 972 249 931 l 249 541 l 581 939 b 710 951 614 978 671 983 b 742 889 729 935 740 913 b 722 822 745 865 737 841 l 485 539 l 729 139 m 714 76 b 706 125 718 93 715 110 l 467 516 l 452 541 l 470 563 l 701 840 b 715 887 712 853 717 870 b 692 930 714 904 706 919 b 652 945 680 940 666 945 b 602 922 633 945 615 937 l 353 623 l 289 546 l 222 466 l 222 881 b 158 945 222 916 193 945 b 94 881 123 945 94 916 l 94 91 b 158 27 94 56 123 27 b 222 91 193 27 222 56 l 222 266 l 249 298 l 347 415 l 365 437 l 380 413 l 597 58 b 652 27 609 39 629 27 b 685 37 663 27 675 31 b 714 76 699 46 710 60 m 663 99 b 659 80 667 92 665 84 b 651 78 656 78 654 78 b 640 84 647 78 642 80 l 414 453 l 399 478 l 371 523 l 337 483 l 319 460 l 249 377 l 222 344 l 172 284 l 172 91 b 158 78 172 84 166 78 b 144 91 151 78 144 84 l 144 881 b 158 895 144 888 151 895 b 172 881 166 895 172 888 l 172 327 l 222 387 l 304 485 l 323 508 l 397 597 l 416 620 l 641 890 b 660 891 646 895 654 896 b 662 872 666 887 667 878 l 439 605 l 422 584 l 390 545 b 392 543 390 544 391 544 l 418 500 l 433 476 "},"":{"ha":789,"x_min":0,"x_max":0,"o":"m 776 124 b 774 54 785 101 784 76 b 723 6 764 31 745 14 b 690 0 712 2 701 0 b 605 59 653 0 618 24 l 394 621 l 184 59 b 136 8 175 36 158 18 b 98 0 124 3 111 0 b 66 6 88 0 77 2 b 13 124 19 24 -5 76 l 309 913 b 394 972 322 948 356 972 b 480 913 432 972 467 948 l 776 124 m 749 65 b 750 114 756 81 756 98 l 454 903 b 394 945 445 928 421 945 b 334 903 368 945 344 928 l 38 114 b 76 32 26 81 43 44 b 125 33 92 26 109 26 b 158 69 140 40 152 53 l 382 664 b 394 673 384 670 389 673 b 407 664 400 673 405 670 l 630 69 b 690 27 640 44 664 27 b 713 32 698 27 706 29 b 749 65 729 38 742 49 m 703 96 b 695 79 706 89 702 81 b 690 78 694 78 692 78 b 678 87 685 78 680 81 l 394 842 l 111 87 b 94 79 109 80 101 76 b 86 96 86 81 83 89 l 382 886 b 394 895 384 891 389 895 b 407 886 400 895 405 891 "},"":{"ha":1107,"x_min":0,"x_max":0,"o":"m 982 965 b 1039 881 1017 951 1039 918 l 1039 91 b 947 0 1039 41 998 0 b 856 91 897 0 856 41 l 856 660 l 617 421 b 488 421 582 386 524 386 l 249 660 l 249 91 b 158 0 249 41 208 0 b 67 91 108 0 67 41 l 67 881 b 123 965 67 918 89 951 b 223 945 157 979 196 972 l 553 615 l 883 945 b 982 965 909 972 948 979 m 1011 91 l 1011 881 b 972 940 1011 907 996 930 b 902 926 948 950 921 944 l 562 586 b 543 586 557 581 548 581 l 203 926 b 134 940 185 944 158 950 b 94 881 110 930 94 907 l 94 91 b 158 27 94 56 123 27 b 222 91 193 27 222 56 l 222 693 b 231 706 222 699 225 704 b 245 703 236 708 242 707 l 508 441 b 598 441 532 416 573 416 l 860 703 b 870 707 863 706 866 707 b 875 706 872 707 873 707 b 883 693 880 704 883 699 l 883 91 b 947 27 883 56 912 27 b 1011 91 983 27 1011 56 m 953 893 b 961 881 958 891 961 886 l 961 91 b 947 78 961 84 955 78 b 934 91 940 78 934 84 l 934 848 l 562 476 b 543 476 557 471 548 471 l 172 848 l 172 91 b 158 78 172 84 166 78 b 144 91 151 78 144 84 l 144 881 b 153 893 144 886 148 891 b 168 891 158 896 164 894 l 553 505 l 938 891 b 953 893 942 894 948 896 "},"":{"ha":810,"x_min":0,"x_max":0,"o":"m 651 972 b 743 881 702 972 743 931 l 743 91 b 677 4 743 51 716 15 b 651 0 668 1 660 0 b 574 43 620 0 591 16 l 249 562 l 249 91 b 158 0 249 41 208 0 b 67 91 108 0 67 41 l 67 881 b 133 969 67 921 94 958 b 236 929 172 980 214 964 l 560 410 l 560 881 b 651 972 560 931 601 972 m 715 881 b 651 945 715 916 687 945 b 587 881 616 945 587 916 l 587 362 b 578 349 587 356 583 351 b 562 355 572 347 565 350 l 212 915 b 140 942 197 939 168 950 b 94 881 113 935 94 909 l 94 91 b 158 27 94 56 123 27 b 222 91 193 27 222 56 l 222 610 b 232 623 222 616 226 621 b 236 624 233 623 235 624 b 247 617 240 624 245 621 l 597 57 b 651 27 609 39 629 27 b 669 30 657 27 663 28 b 715 91 696 38 715 63 m 651 895 b 665 881 659 895 665 888 l 665 91 b 655 78 665 85 661 80 b 651 78 654 78 653 78 b 640 84 647 78 642 80 l 172 833 l 172 91 b 158 78 172 84 166 78 b 144 91 151 78 144 84 l 144 881 b 154 894 144 887 148 892 b 170 888 160 896 166 893 l 638 139 l 638 881 b 651 895 638 888 644 895 "},"":{"ha":740,"x_min":0,"x_max":0,"o":"m 123 789 b 32 881 73 789 32 830 b 123 972 32 931 73 972 l 617 972 b 708 881 667 972 708 931 b 617 789 708 830 667 789 l 123 789 m 123 945 b 59 881 88 945 59 916 b 123 817 59 846 88 817 l 617 817 b 681 881 652 817 681 846 b 617 945 681 916 652 945 l 123 945 m 123 867 b 110 881 116 867 110 873 b 123 895 110 888 116 895 l 617 895 b 630 881 624 895 630 888 b 617 867 630 873 624 867 l 123 867 m 617 183 b 708 91 667 183 708 142 b 617 0 708 41 667 0 l 123 0 b 32 91 73 0 32 41 b 123 183 32 142 73 183 l 617 183 m 617 27 b 681 91 652 27 681 56 b 617 155 681 127 652 155 l 123 155 b 59 91 88 155 59 127 b 123 27 59 56 88 27 l 617 27 m 617 105 b 630 91 624 105 630 99 b 617 78 630 84 624 78 l 123 78 b 110 91 116 78 110 84 b 123 105 110 99 116 105 l 617 105 m 617 578 b 708 486 667 578 708 537 b 617 395 708 436 667 395 l 123 395 b 32 486 73 395 32 436 b 123 578 32 537 73 578 l 617 578 m 617 422 b 681 486 652 422 681 451 b 617 550 681 521 652 550 l 123 550 b 59 486 88 550 59 521 b 123 422 59 451 88 422 l 617 422 m 617 500 b 630 486 624 500 630 494 b 617 472 630 479 624 472 l 123 472 b 110 486 116 472 110 479 b 123 500 110 494 116 500 l 617 500 "},"":{"ha":771,"x_min":0,"x_max":0,"o":"m 385 972 b 723 634 572 972 723 821 l 723 338 b 385 0 723 152 572 0 b 47 338 199 0 47 152 l 47 634 b 385 972 47 821 199 972 m 696 634 b 385 945 696 805 557 945 b 75 634 214 945 75 805 l 75 338 b 385 27 75 167 214 27 b 696 338 557 27 696 167 m 385 895 b 646 634 529 895 646 778 l 646 338 b 385 78 646 195 529 78 b 125 338 242 78 125 195 l 125 634 b 385 895 125 778 242 895 m 618 634 b 385 867 618 763 514 867 b 152 634 257 867 152 763 l 152 338 b 385 105 152 210 257 105 b 618 338 514 105 618 210 m 385 817 b 568 634 486 817 568 735 l 568 338 b 385 155 568 237 486 155 b 203 338 285 155 203 237 l 203 634 b 385 817 203 735 285 817 m 541 634 b 385 789 541 720 471 789 b 230 634 300 789 230 720 l 230 338 b 385 183 230 252 300 183 b 541 338 471 183 541 252 "},"":{"ha":810,"x_min":0,"x_max":0,"o":"m 651 972 b 743 881 702 972 743 931 l 743 91 b 651 0 743 41 702 0 b 560 91 601 0 560 41 l 560 789 l 249 789 l 249 91 b 158 0 249 41 208 0 b 67 91 108 0 67 41 l 67 881 b 158 972 67 931 108 972 l 651 972 m 715 91 l 715 881 b 651 945 715 916 687 945 l 158 945 b 94 881 123 945 94 916 l 94 91 b 158 27 94 56 123 27 b 222 91 193 27 222 56 l 222 803 b 236 817 222 811 228 817 l 574 817 b 587 803 581 817 587 811 l 587 91 b 651 27 587 56 616 27 b 715 91 687 27 715 56 m 651 895 b 665 881 659 895 665 888 l 665 91 b 651 78 665 84 659 78 b 638 91 644 78 638 84 l 638 867 l 172 867 l 172 91 b 158 78 172 84 166 78 b 144 91 151 78 144 84 l 144 881 b 158 895 144 888 151 895 l 651 895 "},"":{"ha":758,"x_min":0,"x_max":0,"o":"m 454 972 b 743 683 613 972 743 843 b 454 395 743 524 613 395 l 249 395 l 249 91 b 158 0 249 41 208 0 b 67 91 108 0 67 41 l 67 881 b 158 972 67 931 108 972 l 454 972 m 454 422 b 715 683 598 422 715 539 b 454 945 715 828 598 945 l 158 945 b 94 881 123 945 94 916 l 94 91 b 158 27 94 56 123 27 b 222 91 193 27 222 56 l 222 408 b 236 422 222 416 228 422 l 454 422 m 454 817 b 587 683 528 817 587 757 b 454 550 587 610 528 550 l 236 550 b 222 564 228 550 222 556 l 222 803 b 236 817 222 811 228 817 l 454 817 m 454 578 b 560 683 513 578 560 625 b 454 789 560 742 513 789 l 249 789 l 249 578 l 454 578 m 454 895 b 665 683 570 895 665 800 b 454 472 665 567 570 472 l 172 472 l 172 91 b 158 78 172 84 166 78 b 144 91 151 78 144 84 l 144 881 b 158 895 144 888 151 895 l 454 895 m 454 500 b 638 683 555 500 638 582 b 454 867 638 785 555 867 l 172 867 l 172 500 l 454 500 "},"":{"ha":722,"x_min":0,"x_max":0,"o":"m 613 183 b 704 91 663 183 704 142 b 613 0 704 41 663 0 l 119 0 b 42 43 87 0 58 16 b 38 132 25 70 23 104 l 214 486 l 38 840 b 42 929 23 868 25 902 b 119 972 58 956 87 972 l 613 972 b 704 881 663 972 704 931 b 613 789 704 830 663 789 l 267 789 l 398 527 b 398 445 411 501 411 471 l 267 183 l 613 183 m 613 27 b 677 91 648 27 677 56 b 613 155 677 127 648 155 l 245 155 b 233 162 240 155 236 158 b 233 175 231 166 231 171 l 374 457 b 374 515 383 475 383 497 l 233 797 b 233 810 231 801 231 806 b 245 817 236 814 240 817 l 613 817 b 677 881 648 817 677 846 b 613 945 677 916 648 945 l 119 945 b 65 914 97 945 77 933 b 62 852 53 895 52 872 l 242 492 b 242 480 244 488 244 484 l 62 120 b 65 58 52 100 53 77 b 119 27 77 39 97 27 l 613 27 m 613 105 b 626 91 620 105 626 99 b 613 78 626 84 620 78 l 119 78 b 108 84 115 78 110 80 b 107 98 105 88 105 93 l 301 486 l 107 875 b 108 888 105 879 105 884 b 119 895 110 892 115 895 l 613 895 b 626 881 620 895 626 888 b 613 867 626 873 620 867 l 141 867 l 329 492 b 329 480 331 488 331 484 l 141 105 l 613 105 "},"":{"ha":671,"x_min":0,"x_max":0,"o":"m 582 972 b 673 881 632 972 673 931 b 582 789 673 830 632 789 l 427 789 l 427 91 b 335 0 427 41 386 0 b 244 91 285 0 244 41 l 244 789 l 89 789 b -3 881 38 789 -3 830 b 89 972 -3 931 38 972 l 582 972 m 582 817 b 646 881 617 817 646 846 b 582 945 646 916 617 945 l 89 945 b 25 881 53 945 25 916 b 89 817 25 846 53 817 l 271 817 l 271 91 b 335 27 271 56 300 27 b 399 91 371 27 399 56 l 399 817 l 582 817 m 582 895 b 596 881 590 895 596 888 b 582 867 596 873 590 867 l 349 867 l 349 91 b 335 78 349 84 343 78 b 322 91 328 78 322 84 l 322 867 l 89 867 b 75 881 81 867 75 873 b 89 895 75 888 81 895 l 582 895 "},"":{"ha":676,"x_min":0,"x_max":0,"o":"m 633 958 b 662 832 676 932 689 875 l 429 460 l 429 91 b 338 0 429 41 388 0 b 247 91 288 0 247 41 l 247 460 l 14 832 b 43 958 -13 875 0 932 b 112 970 64 971 88 975 b 169 929 136 964 156 950 l 338 659 l 507 929 b 633 958 534 972 590 985 m 639 847 b 619 935 658 877 649 916 b 530 915 589 954 549 945 l 350 625 b 338 619 347 621 343 619 b 326 625 333 619 329 621 l 146 915 b 106 943 137 929 122 939 b 91 945 101 944 96 945 b 57 935 79 945 68 942 b 37 847 28 916 18 877 l 249 508 l 274 468 l 274 91 b 338 27 274 56 303 27 b 402 91 373 27 402 56 l 402 468 l 427 508 l 639 847 m 592 892 b 596 874 598 888 600 880 l 398 555 l 383 532 l 352 482 l 352 91 b 338 78 352 84 346 78 b 324 91 330 78 324 84 l 324 482 l 293 532 l 279 555 l 80 874 b 84 892 76 880 78 888 b 103 888 91 896 99 894 l 302 570 l 317 546 l 338 512 l 360 546 l 374 570 l 573 888 b 592 892 577 894 586 896 "},"":{"ha":735,"x_min":0,"x_max":0,"o":"m 459 861 b 705 535 601 821 705 690 l 705 437 b 459 111 705 282 601 151 l 459 91 b 367 0 459 41 418 0 b 276 91 317 0 276 41 l 276 111 b 29 437 134 151 29 282 l 29 535 b 276 861 29 690 134 821 l 276 881 b 367 972 276 931 317 972 b 459 881 418 972 459 931 l 459 861 m 678 535 b 459 832 678 675 586 793 b 431 839 450 835 441 838 l 431 881 b 367 945 431 916 403 945 b 303 881 332 945 303 916 l 303 839 b 276 832 294 838 285 835 b 57 535 149 793 57 675 l 57 437 b 276 140 57 297 149 179 b 303 133 285 137 294 135 l 303 91 b 367 27 303 56 332 27 b 431 91 403 27 431 56 l 431 133 b 459 140 441 135 450 137 b 678 437 586 179 678 297 m 459 779 b 628 535 557 742 628 647 l 628 437 b 459 193 628 325 557 230 b 431 184 450 190 441 187 b 381 177 415 180 398 178 l 381 91 b 367 78 381 84 375 78 b 354 91 360 78 354 84 l 354 177 b 303 184 336 178 319 180 b 276 193 294 187 285 190 b 107 437 177 230 107 325 l 107 535 b 276 779 107 647 177 742 b 303 788 285 783 294 786 b 354 795 319 792 336 795 l 354 881 b 367 895 354 888 360 895 b 381 881 375 895 381 888 l 381 795 b 431 788 398 795 415 792 b 459 779 441 786 450 783 m 354 768 b 303 759 336 767 319 764 b 276 750 294 757 285 754 b 134 535 193 714 134 631 l 134 437 b 276 222 134 341 193 258 b 303 213 285 219 294 215 b 354 204 319 208 336 205 m 600 535 b 459 750 600 631 542 714 b 431 759 450 754 441 757 b 381 768 415 764 398 767 l 381 204 b 431 213 398 205 415 208 b 459 222 441 215 450 219 b 600 437 542 258 600 341 m 185 535 b 276 694 185 603 221 662 b 303 707 285 699 294 703 l 303 266 b 276 279 294 269 285 274 b 185 437 221 310 185 369 l 185 535 m 276 661 b 212 535 237 633 212 587 l 212 437 b 276 311 212 385 237 340 m 459 694 b 550 535 513 662 550 603 l 550 437 b 459 279 550 369 513 310 b 431 266 450 274 441 269 l 431 707 b 459 694 441 703 450 699 m 523 535 b 459 661 523 587 497 633 l 459 311 b 523 437 497 340 523 385 "},"":{"ha":726,"x_min":0,"x_max":0,"o":"m 687 140 b 658 14 714 97 701 41 b 610 0 644 5 627 0 b 532 43 578 0 549 16 l 363 314 l 194 43 b 116 0 177 16 148 0 b 68 14 99 0 82 5 b 39 140 25 41 12 97 l 255 486 l 39 832 b 68 958 12 875 25 932 b 137 970 89 971 113 975 b 194 929 161 964 181 950 l 363 659 l 532 929 b 658 958 559 972 615 985 b 687 832 701 932 714 875 l 471 486 m 644 37 b 664 125 674 56 683 95 l 455 460 l 439 486 l 455 512 l 664 847 b 644 935 683 877 674 916 b 610 945 633 942 621 945 b 555 915 589 945 568 934 l 379 633 l 363 607 l 347 633 l 171 915 b 131 943 162 929 147 939 b 116 945 126 944 121 945 b 82 935 104 945 93 942 b 62 847 53 916 43 877 l 271 512 l 288 486 l 271 460 l 62 125 b 82 37 43 95 53 56 b 116 27 93 31 104 27 b 171 57 139 27 159 39 l 347 340 l 363 365 l 379 340 l 555 57 b 610 27 567 39 588 27 b 644 37 622 27 633 31 m 621 99 b 617 80 625 92 623 84 b 610 78 615 78 612 78 b 598 84 605 78 601 80 l 409 387 l 393 413 l 363 460 l 333 413 l 317 387 l 128 84 b 116 78 125 80 121 78 b 109 80 114 78 111 78 b 105 99 103 84 101 92 l 301 413 l 317 439 l 347 486 l 317 534 l 301 559 l 105 874 b 109 892 101 880 103 888 b 128 888 116 896 124 895 l 317 585 l 333 559 l 363 512 l 393 559 l 409 585 l 598 888 b 617 892 602 895 611 896 b 621 874 623 888 625 880 l 425 559 l 409 534 l 379 486 l 409 439 l 425 413 "},"":{"ha":754,"x_min":0,"x_max":0,"o":"m 624 972 b 715 881 674 972 715 931 l 715 535 b 468 210 715 381 611 250 l 468 91 b 377 0 468 41 427 0 b 286 91 327 0 286 41 l 286 210 b 39 535 143 250 39 381 l 39 881 b 130 972 39 931 80 972 b 222 881 181 972 222 931 l 222 535 b 286 410 222 484 247 438 l 286 881 b 377 972 286 931 327 972 b 468 881 427 972 468 931 l 468 410 b 532 535 507 438 532 484 l 532 881 b 624 972 532 931 573 972 m 688 535 l 688 881 b 624 945 688 916 659 945 b 560 881 588 945 560 916 l 560 535 b 468 377 560 468 523 409 b 441 364 460 372 451 368 l 441 881 b 377 945 441 916 412 945 b 313 881 342 945 313 916 l 313 364 b 286 377 303 368 294 372 b 194 535 231 409 194 468 l 194 881 b 130 945 194 916 166 945 b 66 881 95 945 66 916 l 66 535 b 286 238 66 396 159 278 b 313 231 295 236 304 233 l 313 91 b 377 27 313 56 342 27 b 441 91 412 27 441 56 l 441 231 b 468 238 450 233 459 236 b 688 535 595 278 688 396 m 624 895 b 637 881 631 895 637 888 l 637 535 b 468 292 637 424 567 329 b 441 283 459 288 450 285 b 391 275 425 279 408 276 l 391 91 b 377 78 391 84 385 78 b 363 91 369 78 363 84 l 363 275 b 313 283 346 276 329 279 b 286 292 304 285 295 288 b 117 535 187 329 117 424 l 117 881 b 130 895 117 888 123 895 b 144 881 138 895 144 888 l 144 535 b 286 321 144 439 202 357 b 313 311 294 317 304 314 b 363 303 329 307 346 304 l 363 881 b 377 895 363 888 369 895 b 391 881 385 895 391 888 l 391 303 b 441 311 408 304 425 307 b 468 321 450 314 460 317 b 610 535 552 357 610 439 l 610 881 b 624 895 610 888 616 895 "},"":{"ha":765,"x_min":0,"x_max":0,"o":"m 383 972 b 721 634 569 972 721 821 l 721 535 b 383 197 721 349 569 197 b 44 535 196 197 44 349 l 44 634 b 383 972 44 821 196 972 m 693 634 b 383 945 693 805 554 945 b 72 634 211 945 72 805 l 72 535 b 383 225 72 364 211 225 b 693 535 554 225 693 364 m 383 895 b 643 634 526 895 643 778 l 643 535 b 383 275 643 392 526 275 b 122 535 239 275 122 392 l 122 634 b 383 895 122 778 239 895 m 616 634 b 383 867 616 763 511 867 b 150 634 254 867 150 763 l 150 535 b 383 302 150 407 254 302 b 616 535 511 302 616 407 m 383 817 b 565 634 483 817 565 735 l 565 535 b 383 353 565 435 483 353 b 200 535 282 353 200 435 l 200 634 b 383 817 200 735 282 817 m 538 634 b 383 789 538 720 468 789 b 227 634 297 789 227 720 l 227 535 b 383 380 227 450 297 380 b 538 535 468 380 538 450 m 629 183 b 721 91 680 183 721 142 b 629 0 721 41 680 0 l 136 0 b 44 91 85 0 44 41 b 136 183 44 142 85 183 l 629 183 m 629 27 b 693 91 665 27 693 56 b 629 155 693 127 665 155 l 136 155 b 72 91 101 155 72 127 b 136 27 72 56 101 27 l 629 27 m 629 105 b 643 91 637 105 643 99 b 629 78 643 84 637 78 l 136 78 b 122 91 128 78 122 84 b 136 105 122 99 128 105 l 629 105 "},"":{"ha":789,"x_min":0,"x_max":0,"o":"m 776 124 b 723 6 794 76 770 24 b 690 0 712 2 701 0 b 605 59 653 0 618 24 l 553 197 l 236 197 l 184 59 b 136 8 175 36 158 18 b 98 0 124 3 111 0 b 66 6 88 0 77 2 b 13 124 19 24 -5 76 l 86 320 l 87 320 l 309 913 b 394 972 322 948 356 972 b 480 913 432 972 467 948 l 702 320 l 702 320 l 776 124 m 713 32 b 750 114 746 44 763 81 l 699 250 l 677 311 l 676 311 l 653 372 l 454 903 b 394 945 445 928 421 945 b 334 903 368 945 344 928 l 135 372 l 112 311 l 112 311 l 90 250 l 38 114 b 76 32 26 81 43 44 b 125 33 92 26 109 26 b 158 69 140 40 152 53 l 206 197 l 217 225 l 572 225 l 582 197 l 630 69 b 690 27 640 44 664 27 b 713 32 698 27 706 29 m 514 380 l 524 353 l 265 353 l 275 380 l 382 664 b 394 673 384 670 389 673 b 407 664 400 673 405 670 m 485 380 l 394 621 l 304 380 m 703 96 b 695 79 706 89 702 81 b 690 78 694 78 692 78 b 678 87 685 78 680 81 l 635 199 l 626 225 l 607 275 l 182 275 l 163 225 l 153 199 l 111 87 b 94 79 109 80 101 76 b 86 96 86 81 83 89 l 128 209 l 138 235 l 182 353 l 192 380 l 382 886 b 394 895 384 891 389 895 b 407 886 400 895 405 891 l 597 380 l 607 353 l 651 235 l 661 209 m 597 303 l 578 353 l 567 380 l 394 842 l 221 380 l 211 353 l 192 303 "},"":{"ha":789,"x_min":0,"x_max":0,"o":"m 743 683 b 665 486 743 607 713 538 b 743 289 713 434 743 365 b 454 0 743 130 613 0 l 158 0 b 67 91 108 0 67 41 l 67 881 b 158 972 67 931 108 972 l 454 972 b 743 683 613 972 743 843 m 715 289 b 645 467 715 358 689 420 b 625 486 639 474 632 480 b 645 505 632 492 639 498 b 715 683 689 552 715 615 b 454 945 715 828 598 945 l 158 945 b 94 881 123 945 94 916 l 94 91 b 158 27 94 56 123 27 l 454 27 b 715 289 598 27 715 145 m 523 569 b 454 550 503 557 479 550 l 236 550 b 222 564 228 550 222 556 l 222 803 b 236 817 222 811 228 817 l 454 817 b 587 683 528 817 587 757 b 523 569 587 635 562 593 m 249 578 l 454 578 b 560 683 513 578 560 625 b 454 789 560 742 513 789 l 249 789 m 583 456 b 604 437 590 450 597 444 b 665 289 642 399 665 346 b 454 78 665 172 570 78 l 158 78 b 144 91 151 78 144 84 l 144 881 b 158 895 144 888 151 895 l 454 895 b 665 683 570 895 665 800 b 604 535 665 626 642 573 b 583 516 598 528 590 522 b 529 486 566 504 548 494 b 583 456 548 479 566 469 m 172 500 l 454 500 b 555 530 491 500 526 511 b 579 549 563 536 572 542 b 638 683 615 583 638 630 b 454 867 638 785 555 867 l 172 867 m 454 105 b 638 289 555 105 638 187 b 579 423 638 342 615 390 b 555 442 572 430 563 437 b 454 472 526 461 491 472 l 172 472 l 172 105 l 454 105 m 523 403 b 587 289 562 380 587 337 b 454 155 587 215 528 155 l 236 155 b 222 169 228 155 222 162 l 222 408 b 236 422 222 416 228 422 l 454 422 b 523 403 479 422 503 415 m 454 183 b 560 289 513 183 560 230 b 454 395 560 347 513 395 l 249 395 l 249 183 l 454 183 "},"":{"ha":740,"x_min":0,"x_max":0,"o":"m 651 972 b 743 881 702 972 743 931 b 651 789 743 830 702 789 l 249 789 l 249 91 b 158 0 249 41 208 0 b 67 91 108 0 67 41 l 67 881 b 158 972 67 931 108 972 l 651 972 m 651 817 b 715 881 687 817 715 846 b 651 945 715 916 687 945 l 158 945 b 94 881 123 945 94 916 l 94 91 b 158 27 94 56 123 27 b 222 91 193 27 222 56 l 222 803 b 236 817 222 811 228 817 l 651 817 m 651 895 b 665 881 659 895 665 888 b 651 867 665 873 659 867 l 172 867 l 172 91 b 158 78 172 84 166 78 b 144 91 151 78 144 84 l 144 881 b 158 895 144 888 151 895 l 651 895 "},"":{"ha":789,"x_min":0,"x_max":0,"o":"m 776 123 b 766 39 787 95 783 64 b 690 0 748 15 720 0 l 98 0 b 23 39 68 0 40 15 b 13 123 6 64 2 95 l 309 913 b 394 972 322 948 356 972 b 480 913 432 972 467 948 l 776 123 m 743 55 b 750 114 755 72 758 94 l 454 903 b 394 945 445 928 421 945 b 334 903 368 945 344 928 l 38 114 b 46 55 31 94 34 72 b 98 27 58 38 77 27 l 690 27 b 743 55 711 27 731 38 m 703 96 b 702 84 705 92 704 87 b 690 78 699 80 695 78 l 98 78 b 87 84 94 78 90 80 b 86 96 85 87 84 92 l 382 886 b 394 895 384 891 389 895 b 407 886 400 895 405 891 m 671 105 l 394 842 l 118 105 m 382 664 b 394 673 384 670 389 673 b 407 664 400 673 405 670 l 591 174 b 590 161 593 170 592 165 b 578 155 587 158 583 155 l 210 155 b 199 161 206 155 202 158 b 198 174 197 165 196 170 l 382 664 m 394 621 l 230 183 l 559 183 "},"":{"ha":767,"x_min":0,"x_max":0,"o":"m 636 380 b 728 289 687 380 728 339 b 439 0 728 130 598 0 l 340 0 b 51 289 181 0 51 130 l 51 683 b 340 972 51 843 181 972 l 439 972 b 728 683 598 972 728 843 b 636 592 728 633 687 592 b 545 683 586 592 545 633 b 439 789 545 742 497 789 l 340 789 b 234 683 282 789 234 742 l 234 578 l 538 578 b 629 486 588 578 629 537 b 538 395 629 436 588 395 l 234 395 l 234 289 b 340 183 234 230 282 183 l 439 183 b 545 289 497 183 545 230 b 636 380 545 339 586 380 m 439 27 b 700 289 583 27 700 145 b 636 353 700 324 671 353 b 572 289 601 353 572 324 b 439 155 572 215 512 155 l 340 155 b 207 289 267 155 207 215 l 207 422 l 538 422 b 601 486 573 422 601 451 b 538 550 601 521 573 550 l 207 550 l 207 683 b 340 817 207 757 267 817 l 439 817 b 572 683 512 817 572 757 b 636 619 572 648 601 619 b 700 683 671 619 700 648 b 439 945 700 828 583 945 l 340 945 b 79 683 196 945 79 828 l 79 289 b 340 27 79 145 196 27 l 439 27 m 636 302 b 650 289 644 302 650 296 b 439 78 650 172 555 78 l 340 78 b 129 289 224 78 129 172 l 129 683 b 340 895 129 800 224 895 l 439 895 b 650 683 555 895 650 800 b 636 670 650 676 644 670 b 622 683 629 670 622 676 b 439 867 622 785 540 867 l 340 867 b 156 683 239 867 156 785 l 156 500 l 538 500 b 551 486 545 500 551 494 b 538 472 551 479 545 472 l 156 472 l 156 289 b 340 105 156 187 239 105 l 439 105 b 622 289 540 105 622 187 b 636 302 622 296 629 302 "},"":{"ha":718,"x_min":0,"x_max":0,"o":"m 606 183 b 697 91 656 183 697 142 b 606 0 697 41 656 0 l 112 0 b 32 47 79 0 48 18 b 35 140 16 76 17 112 l 441 789 l 112 789 b 21 881 62 789 21 830 b 112 972 21 931 62 972 l 606 972 b 686 925 639 972 669 954 b 683 832 702 896 701 861 l 277 183 l 606 183 m 606 27 b 670 91 641 27 670 56 b 606 155 670 127 641 155 l 252 155 b 240 162 247 155 243 158 b 241 176 238 167 238 172 l 660 847 b 662 912 672 867 673 892 b 606 945 650 932 629 945 l 112 945 b 48 881 77 945 48 916 b 112 817 48 846 77 817 l 465 817 b 477 810 470 817 475 814 b 477 796 480 805 480 800 l 58 125 b 56 60 46 106 45 81 b 112 27 68 40 89 27 l 606 27 m 606 105 b 619 91 613 105 619 99 b 606 78 619 84 613 78 l 112 78 b 100 85 107 78 103 80 b 101 99 98 89 98 94 l 581 867 l 112 867 b 99 881 105 867 99 873 b 112 895 99 888 105 895 l 606 895 b 618 887 611 895 615 892 b 617 874 620 883 620 878 l 137 105 l 606 105 "},"":{"ha":810,"x_min":0,"x_max":0,"o":"m 651 972 b 743 881 702 972 743 931 l 743 91 b 651 0 743 41 702 0 b 560 91 601 0 560 41 l 560 395 l 249 395 l 249 91 b 158 0 249 41 208 0 b 67 91 108 0 67 41 l 67 881 b 158 972 67 931 108 972 b 249 881 208 972 249 931 l 249 578 l 560 578 l 560 881 b 651 972 560 931 601 972 m 715 881 b 651 945 715 916 687 945 b 587 881 616 945 587 916 l 587 550 l 222 550 l 222 881 b 158 945 222 916 193 945 b 94 881 123 945 94 916 l 94 91 b 158 27 94 56 123 27 b 222 91 193 27 222 56 l 222 422 l 587 422 l 587 91 b 651 27 587 56 616 27 b 715 91 687 27 715 56 m 651 895 b 665 881 659 895 665 888 l 665 91 b 651 78 665 84 659 78 b 638 91 644 78 638 84 l 638 472 l 172 472 l 172 91 b 158 78 172 84 166 78 b 144 91 151 78 144 84 l 144 881 b 158 895 144 888 151 895 b 172 881 166 895 172 888 l 172 500 l 638 500 l 638 881 b 651 895 638 888 644 895 "},"":{"ha":771,"x_min":0,"x_max":0,"o":"m 385 972 b 723 634 572 972 723 821 l 723 338 b 385 0 723 152 572 0 b 47 338 199 0 47 152 l 47 634 b 385 972 47 821 199 972 m 696 634 b 385 945 696 805 557 945 b 75 634 214 945 75 805 l 75 338 b 385 27 75 167 214 27 b 696 338 557 27 696 167 m 385 895 b 646 634 529 895 646 778 l 646 338 b 385 78 646 195 529 78 b 125 338 242 78 125 195 l 125 634 b 385 895 125 778 242 895 m 618 472 l 152 472 l 152 338 b 385 105 152 210 257 105 b 618 338 514 105 618 210 m 618 634 b 385 867 618 763 514 867 b 152 634 257 867 152 763 l 152 500 l 618 500 m 385 817 b 568 634 486 817 568 735 l 568 550 l 203 550 l 203 634 b 385 817 203 735 285 817 m 541 634 b 385 789 541 720 471 789 b 230 634 300 789 230 720 l 230 578 l 541 578 m 568 422 l 568 338 b 385 155 568 237 486 155 b 203 338 285 155 203 237 l 203 422 m 541 395 l 230 395 l 230 338 b 385 183 230 252 300 183 b 541 338 471 183 541 252 "},"":{"ha":317,"x_min":0,"x_max":0,"o":"m 158 972 b 249 881 208 972 249 931 l 249 91 b 158 0 249 41 208 0 b 67 91 108 0 67 41 l 67 881 b 158 972 67 931 108 972 m 222 881 b 158 945 222 916 193 945 b 94 881 123 945 94 916 l 94 91 b 158 27 94 56 123 27 b 222 91 193 27 222 56 m 158 895 b 172 881 166 895 172 888 l 172 91 b 158 78 172 84 166 78 b 144 91 151 78 144 84 l 144 881 b 158 895 144 888 151 895 "},"":{"ha":765,"x_min":0,"x_max":0,"o":"m 729 139 b 740 70 742 118 746 94 b 699 13 735 46 720 26 b 652 0 685 5 668 0 b 573 44 619 0 590 16 l 362 390 l 249 256 l 249 91 b 158 0 249 41 208 0 b 67 91 108 0 67 41 l 67 881 b 158 972 67 931 108 972 b 249 881 208 972 249 931 l 249 541 l 581 939 b 710 951 614 978 671 983 b 742 889 729 935 740 913 b 722 822 745 865 737 841 l 485 539 l 729 139 m 714 76 b 706 125 718 93 715 110 l 467 516 l 452 541 l 470 563 l 701 840 b 715 887 712 853 717 870 b 692 930 714 904 706 919 b 652 945 680 940 666 945 b 602 922 633 945 615 937 l 353 623 l 289 546 l 222 466 l 222 881 b 158 945 222 916 193 945 b 94 881 123 945 94 916 l 94 91 b 158 27 94 56 123 27 b 222 91 193 27 222 56 l 222 266 l 249 298 l 347 415 l 365 437 l 380 413 l 597 58 b 652 27 609 39 629 27 b 685 37 663 27 675 31 b 714 76 699 46 710 60 m 663 99 b 659 80 667 92 665 84 b 651 78 656 78 654 78 b 640 84 647 78 642 80 l 414 453 l 399 478 l 371 523 l 337 483 l 319 460 l 249 377 l 222 344 l 172 284 l 172 91 b 158 78 172 84 166 78 b 144 91 151 78 144 84 l 144 881 b 158 895 144 888 151 895 b 172 881 166 895 172 888 l 172 327 l 222 387 l 304 485 l 323 508 l 397 597 l 416 620 l 641 890 b 660 891 646 895 654 896 b 662 872 666 887 667 878 l 439 605 l 422 584 l 390 545 b 392 543 390 544 391 544 l 418 500 l 433 476 "},"":{"ha":789,"x_min":0,"x_max":0,"o":"m 776 124 b 774 54 785 101 784 76 b 723 6 764 31 745 14 b 690 0 712 2 701 0 b 605 59 653 0 618 24 l 394 621 l 184 59 b 136 8 175 36 158 18 b 98 0 124 3 111 0 b 66 6 88 0 77 2 b 13 124 19 24 -5 76 l 309 913 b 394 972 322 948 356 972 b 480 913 432 972 467 948 l 776 124 m 749 65 b 750 114 756 81 756 98 l 454 903 b 394 945 445 928 421 945 b 334 903 368 945 344 928 l 38 114 b 76 32 26 81 43 44 b 125 33 92 26 109 26 b 158 69 140 40 152 53 l 382 664 b 394 673 384 670 389 673 b 407 664 400 673 405 670 l 630 69 b 690 27 640 44 664 27 b 713 32 698 27 706 29 b 749 65 729 38 742 49 m 703 96 b 695 79 706 89 702 81 b 690 78 694 78 692 78 b 678 87 685 78 680 81 l 394 842 l 111 87 b 94 79 109 80 101 76 b 86 96 86 81 83 89 l 382 886 b 394 895 384 891 389 895 b 407 886 400 895 405 891 "},"":{"ha":1107,"x_min":0,"x_max":0,"o":"m 982 965 b 1039 881 1017 951 1039 918 l 1039 91 b 947 0 1039 41 998 0 b 856 91 897 0 856 41 l 856 660 l 617 421 b 488 421 582 386 524 386 l 249 660 l 249 91 b 158 0 249 41 208 0 b 67 91 108 0 67 41 l 67 881 b 123 965 67 918 89 951 b 223 945 157 979 196 972 l 553 615 l 883 945 b 982 965 909 972 948 979 m 1011 91 l 1011 881 b 972 940 1011 907 996 930 b 902 926 948 950 921 944 l 562 586 b 543 586 557 581 548 581 l 203 926 b 134 940 185 944 158 950 b 94 881 110 930 94 907 l 94 91 b 158 27 94 56 123 27 b 222 91 193 27 222 56 l 222 693 b 231 706 222 699 225 704 b 245 703 236 708 242 707 l 508 441 b 598 441 532 416 573 416 l 860 703 b 870 707 863 706 866 707 b 875 706 872 707 873 707 b 883 693 880 704 883 699 l 883 91 b 947 27 883 56 912 27 b 1011 91 983 27 1011 56 m 953 893 b 961 881 958 891 961 886 l 961 91 b 947 78 961 84 955 78 b 934 91 940 78 934 84 l 934 848 l 562 476 b 543 476 557 471 548 471 l 172 848 l 172 91 b 158 78 172 84 166 78 b 144 91 151 78 144 84 l 144 881 b 153 893 144 886 148 891 b 168 891 158 896 164 894 l 553 505 l 938 891 b 953 893 942 894 948 896 "},"":{"ha":810,"x_min":0,"x_max":0,"o":"m 651 972 b 743 881 702 972 743 931 l 743 91 b 677 4 743 51 716 15 b 651 0 668 1 660 0 b 574 43 620 0 591 16 l 249 562 l 249 91 b 158 0 249 41 208 0 b 67 91 108 0 67 41 l 67 881 b 133 969 67 921 94 958 b 236 929 172 980 214 964 l 560 410 l 560 881 b 651 972 560 931 601 972 m 715 881 b 651 945 715 916 687 945 b 587 881 616 945 587 916 l 587 362 b 578 349 587 356 583 351 b 562 355 572 347 565 350 l 212 915 b 140 942 197 939 168 950 b 94 881 113 935 94 909 l 94 91 b 158 27 94 56 123 27 b 222 91 193 27 222 56 l 222 610 b 232 623 222 616 226 621 b 236 624 233 623 235 624 b 247 617 240 624 245 621 l 597 57 b 651 27 609 39 629 27 b 669 30 657 27 663 28 b 715 91 696 38 715 63 m 651 895 b 665 881 659 895 665 888 l 665 91 b 655 78 665 85 661 80 b 651 78 654 78 653 78 b 640 84 647 78 642 80 l 172 833 l 172 91 b 158 78 172 84 166 78 b 144 91 151 78 144 84 l 144 881 b 154 894 144 887 148 892 b 170 888 160 896 166 893 l 638 139 l 638 881 b 651 895 638 888 644 895 "},"":{"ha":740,"x_min":0,"x_max":0,"o":"m 123 789 b 32 881 73 789 32 830 b 123 972 32 931 73 972 l 617 972 b 708 881 667 972 708 931 b 617 789 708 830 667 789 l 123 789 m 123 945 b 59 881 88 945 59 916 b 123 817 59 846 88 817 l 617 817 b 681 881 652 817 681 846 b 617 945 681 916 652 945 l 123 945 m 123 867 b 110 881 116 867 110 873 b 123 895 110 888 116 895 l 617 895 b 630 881 624 895 630 888 b 617 867 630 873 624 867 l 123 867 m 617 183 b 708 91 667 183 708 142 b 617 0 708 41 667 0 l 123 0 b 32 91 73 0 32 41 b 123 183 32 142 73 183 l 617 183 m 617 27 b 681 91 652 27 681 56 b 617 155 681 127 652 155 l 123 155 b 59 91 88 155 59 127 b 123 27 59 56 88 27 l 617 27 m 617 105 b 630 91 624 105 630 99 b 617 78 630 84 624 78 l 123 78 b 110 91 116 78 110 84 b 123 105 110 99 116 105 l 617 105 m 617 578 b 708 486 667 578 708 537 b 617 395 708 436 667 395 l 123 395 b 32 486 73 395 32 436 b 123 578 32 537 73 578 l 617 578 m 617 422 b 681 486 652 422 681 451 b 617 550 681 521 652 550 l 123 550 b 59 486 88 550 59 521 b 123 422 59 451 88 422 l 617 422 m 617 500 b 630 486 624 500 630 494 b 617 472 630 479 624 472 l 123 472 b 110 486 116 472 110 479 b 123 500 110 494 116 500 l 617 500 "},"":{"ha":771,"x_min":0,"x_max":0,"o":"m 385 972 b 723 634 572 972 723 821 l 723 338 b 385 0 723 152 572 0 b 47 338 199 0 47 152 l 47 634 b 385 972 47 821 199 972 m 696 634 b 385 945 696 805 557 945 b 75 634 214 945 75 805 l 75 338 b 385 27 75 167 214 27 b 696 338 557 27 696 167 m 385 895 b 646 634 529 895 646 778 l 646 338 b 385 78 646 195 529 78 b 125 338 242 78 125 195 l 125 634 b 385 895 125 778 242 895 m 618 634 b 385 867 618 763 514 867 b 152 634 257 867 152 763 l 152 338 b 385 105 152 210 257 105 b 618 338 514 105 618 210 m 385 817 b 568 634 486 817 568 735 l 568 338 b 385 155 568 237 486 155 b 203 338 285 155 203 237 l 203 634 b 385 817 203 735 285 817 m 541 634 b 385 789 541 720 471 789 b 230 634 300 789 230 720 l 230 338 b 385 183 230 252 300 183 b 541 338 471 183 541 252 "},"":{"ha":810,"x_min":0,"x_max":0,"o":"m 651 972 b 743 881 702 972 743 931 l 743 91 b 651 0 743 41 702 0 b 560 91 601 0 560 41 l 560 789 l 249 789 l 249 91 b 158 0 249 41 208 0 b 67 91 108 0 67 41 l 67 881 b 158 972 67 931 108 972 l 651 972 m 715 91 l 715 881 b 651 945 715 916 687 945 l 158 945 b 94 881 123 945 94 916 l 94 91 b 158 27 94 56 123 27 b 222 91 193 27 222 56 l 222 803 b 236 817 222 811 228 817 l 574 817 b 587 803 581 817 587 811 l 587 91 b 651 27 587 56 616 27 b 715 91 687 27 715 56 m 651 895 b 665 881 659 895 665 888 l 665 91 b 651 78 665 84 659 78 b 638 91 644 78 638 84 l 638 867 l 172 867 l 172 91 b 158 78 172 84 166 78 b 144 91 151 78 144 84 l 144 881 b 158 895 144 888 151 895 l 651 895 "},"":{"ha":758,"x_min":0,"x_max":0,"o":"m 454 972 b 743 683 613 972 743 843 b 454 395 743 524 613 395 l 249 395 l 249 91 b 158 0 249 41 208 0 b 67 91 108 0 67 41 l 67 881 b 158 972 67 931 108 972 l 454 972 m 454 422 b 715 683 598 422 715 539 b 454 945 715 828 598 945 l 158 945 b 94 881 123 945 94 916 l 94 91 b 158 27 94 56 123 27 b 222 91 193 27 222 56 l 222 408 b 236 422 222 416 228 422 l 454 422 m 454 817 b 587 683 528 817 587 757 b 454 550 587 610 528 550 l 236 550 b 222 564 228 550 222 556 l 222 803 b 236 817 222 811 228 817 l 454 817 m 454 578 b 560 683 513 578 560 625 b 454 789 560 742 513 789 l 249 789 l 249 578 l 454 578 m 454 895 b 665 683 570 895 665 800 b 454 472 665 567 570 472 l 172 472 l 172 91 b 158 78 172 84 166 78 b 144 91 151 78 144 84 l 144 881 b 158 895 144 888 151 895 l 454 895 m 454 500 b 638 683 555 500 638 582 b 454 867 638 785 555 867 l 172 867 l 172 500 l 454 500 "},"":{"ha":722,"x_min":0,"x_max":0,"o":"m 613 183 b 704 91 663 183 704 142 b 613 0 704 41 663 0 l 119 0 b 42 43 87 0 58 16 b 38 132 25 70 23 104 l 214 486 l 38 840 b 42 929 23 868 25 902 b 119 972 58 956 87 972 l 613 972 b 704 881 663 972 704 931 b 613 789 704 830 663 789 l 267 789 l 398 527 b 398 445 411 501 411 471 l 267 183 l 613 183 m 613 27 b 677 91 648 27 677 56 b 613 155 677 127 648 155 l 245 155 b 233 162 240 155 236 158 b 233 175 231 166 231 171 l 374 457 b 374 515 383 475 383 497 l 233 797 b 233 810 231 801 231 806 b 245 817 236 814 240 817 l 613 817 b 677 881 648 817 677 846 b 613 945 677 916 648 945 l 119 945 b 65 914 97 945 77 933 b 62 852 53 895 52 872 l 242 492 b 242 480 244 488 244 484 l 62 120 b 65 58 52 100 53 77 b 119 27 77 39 97 27 l 613 27 m 613 105 b 626 91 620 105 626 99 b 613 78 626 84 620 78 l 119 78 b 108 84 115 78 110 80 b 107 98 105 88 105 93 l 301 486 l 107 875 b 108 888 105 879 105 884 b 119 895 110 892 115 895 l 613 895 b 626 881 620 895 626 888 b 613 867 626 873 620 867 l 141 867 l 329 492 b 329 480 331 488 331 484 l 141 105 l 613 105 "},"":{"ha":722,"x_min":0,"x_max":0,"o":"m 613 183 b 704 91 663 183 704 142 b 613 0 704 41 663 0 l 119 0 b 42 43 87 0 58 16 b 38 132 25 70 23 104 l 214 486 l 38 840 b 42 929 23 868 25 902 b 119 972 58 956 87 972 l 613 972 b 704 881 663 972 704 931 b 613 789 704 830 663 789 l 267 789 l 398 527 b 398 445 411 501 411 471 l 267 183 l 613 183 m 613 27 b 677 91 648 27 677 56 b 613 155 677 127 648 155 l 245 155 b 233 162 240 155 236 158 b 233 175 231 166 231 171 l 374 457 b 374 515 383 475 383 497 l 233 797 b 233 810 231 801 231 806 b 245 817 236 814 240 817 l 613 817 b 677 881 648 817 677 846 b 613 945 677 916 648 945 l 119 945 b 65 914 97 945 77 933 b 62 852 53 895 52 872 l 242 492 b 242 480 244 488 244 484 l 62 120 b 65 58 52 100 53 77 b 119 27 77 39 97 27 l 613 27 m 613 105 b 626 91 620 105 626 99 b 613 78 626 84 620 78 l 119 78 b 108 84 115 78 110 80 b 107 98 105 88 105 93 l 301 486 l 107 875 b 108 888 105 879 105 884 b 119 895 110 892 115 895 l 613 895 b 626 881 620 895 626 888 b 613 867 626 873 620 867 l 141 867 l 329 492 b 329 480 331 488 331 484 l 141 105 l 613 105 "},"":{"ha":671,"x_min":0,"x_max":0,"o":"m 582 972 b 673 881 632 972 673 931 b 582 789 673 830 632 789 l 427 789 l 427 91 b 335 0 427 41 386 0 b 244 91 285 0 244 41 l 244 789 l 89 789 b -3 881 38 789 -3 830 b 89 972 -3 931 38 972 l 582 972 m 582 817 b 646 881 617 817 646 846 b 582 945 646 916 617 945 l 89 945 b 25 881 53 945 25 916 b 89 817 25 846 53 817 l 271 817 l 271 91 b 335 27 271 56 300 27 b 399 91 371 27 399 56 l 399 817 l 582 817 m 582 895 b 596 881 590 895 596 888 b 582 867 596 873 590 867 l 349 867 l 349 91 b 335 78 349 84 343 78 b 322 91 328 78 322 84 l 322 867 l 89 867 b 75 881 81 867 75 873 b 89 895 75 888 81 895 l 582 895 "},"":{"ha":676,"x_min":0,"x_max":0,"o":"m 633 958 b 662 832 676 932 689 875 l 429 460 l 429 91 b 338 0 429 41 388 0 b 247 91 288 0 247 41 l 247 460 l 14 832 b 43 958 -13 875 0 932 b 112 970 64 971 88 975 b 169 929 136 964 156 950 l 338 659 l 507 929 b 633 958 534 972 590 985 m 639 847 b 619 935 658 877 649 916 b 530 915 589 954 549 945 l 350 625 b 338 619 347 621 343 619 b 326 625 333 619 329 621 l 146 915 b 106 943 137 929 122 939 b 91 945 101 944 96 945 b 57 935 79 945 68 942 b 37 847 28 916 18 877 l 249 508 l 274 468 l 274 91 b 338 27 274 56 303 27 b 402 91 373 27 402 56 l 402 468 l 427 508 l 639 847 m 592 892 b 596 874 598 888 600 880 l 398 555 l 383 532 l 352 482 l 352 91 b 338 78 352 84 346 78 b 324 91 330 78 324 84 l 324 482 l 293 532 l 279 555 l 80 874 b 84 892 76 880 78 888 b 103 888 91 896 99 894 l 302 570 l 317 546 l 338 512 l 360 546 l 374 570 l 573 888 b 592 892 577 894 586 896 "},"":{"ha":735,"x_min":0,"x_max":0,"o":"m 459 861 b 705 535 601 821 705 690 l 705 437 b 459 111 705 282 601 151 l 459 91 b 367 0 459 41 418 0 b 276 91 317 0 276 41 l 276 111 b 29 437 134 151 29 282 l 29 535 b 276 861 29 690 134 821 l 276 881 b 367 972 276 931 317 972 b 459 881 418 972 459 931 l 459 861 m 678 535 b 459 832 678 675 586 793 b 431 839 450 835 441 838 l 431 881 b 367 945 431 916 403 945 b 303 881 332 945 303 916 l 303 839 b 276 832 294 838 285 835 b 57 535 149 793 57 675 l 57 437 b 276 140 57 297 149 179 b 303 133 285 137 294 135 l 303 91 b 367 27 303 56 332 27 b 431 91 403 27 431 56 l 431 133 b 459 140 441 135 450 137 b 678 437 586 179 678 297 m 459 779 b 628 535 557 742 628 647 l 628 437 b 459 193 628 325 557 230 b 431 184 450 190 441 187 b 381 177 415 180 398 178 l 381 91 b 367 78 381 84 375 78 b 354 91 360 78 354 84 l 354 177 b 303 184 336 178 319 180 b 276 193 294 187 285 190 b 107 437 177 230 107 325 l 107 535 b 276 779 107 647 177 742 b 303 788 285 783 294 786 b 354 795 319 792 336 795 l 354 881 b 367 895 354 888 360 895 b 381 881 375 895 381 888 l 381 795 b 431 788 398 795 415 792 b 459 779 441 786 450 783 m 354 768 b 303 759 336 767 319 764 b 276 750 294 757 285 754 b 134 535 193 714 134 631 l 134 437 b 276 222 134 341 193 258 b 303 213 285 219 294 215 b 354 204 319 208 336 205 m 600 535 b 459 750 600 631 542 714 b 431 759 450 754 441 757 b 381 768 415 764 398 767 l 381 204 b 431 213 398 205 415 208 b 459 222 441 215 450 219 b 600 437 542 258 600 341 m 185 535 b 276 694 185 603 221 662 b 303 707 285 699 294 703 l 303 266 b 276 279 294 269 285 274 b 185 437 221 310 185 369 l 185 535 m 276 661 b 212 535 237 633 212 587 l 212 437 b 276 311 212 385 237 340 m 459 694 b 550 535 513 662 550 603 l 550 437 b 459 279 550 369 513 310 b 431 266 450 274 441 269 l 431 707 b 459 694 441 703 450 699 m 523 535 b 459 661 523 587 497 633 l 459 311 b 523 437 497 340 523 385 "},"":{"ha":726,"x_min":0,"x_max":0,"o":"m 687 140 b 658 14 714 97 701 41 b 610 0 644 5 627 0 b 532 43 578 0 549 16 l 363 314 l 194 43 b 116 0 177 16 148 0 b 68 14 99 0 82 5 b 39 140 25 41 12 97 l 255 486 l 39 832 b 68 958 12 875 25 932 b 137 970 89 971 113 975 b 194 929 161 964 181 950 l 363 659 l 532 929 b 658 958 559 972 615 985 b 687 832 701 932 714 875 l 471 486 m 644 37 b 664 125 674 56 683 95 l 455 460 l 439 486 l 455 512 l 664 847 b 644 935 683 877 674 916 b 610 945 633 942 621 945 b 555 915 589 945 568 934 l 379 633 l 363 607 l 347 633 l 171 915 b 131 943 162 929 147 939 b 116 945 126 944 121 945 b 82 935 104 945 93 942 b 62 847 53 916 43 877 l 271 512 l 288 486 l 271 460 l 62 125 b 82 37 43 95 53 56 b 116 27 93 31 104 27 b 171 57 139 27 159 39 l 347 340 l 363 365 l 379 340 l 555 57 b 610 27 567 39 588 27 b 644 37 622 27 633 31 m 621 99 b 617 80 625 92 623 84 b 610 78 615 78 612 78 b 598 84 605 78 601 80 l 409 387 l 393 413 l 363 460 l 333 413 l 317 387 l 128 84 b 116 78 125 80 121 78 b 109 80 114 78 111 78 b 105 99 103 84 101 92 l 301 413 l 317 439 l 347 486 l 317 534 l 301 559 l 105 874 b 109 892 101 880 103 888 b 128 888 116 896 124 895 l 317 585 l 333 559 l 363 512 l 393 559 l 409 585 l 598 888 b 617 892 602 895 611 896 b 621 874 623 888 625 880 l 425 559 l 409 534 l 379 486 l 409 439 l 425 413 "},"":{"ha":754,"x_min":0,"x_max":0,"o":"m 624 972 b 715 881 674 972 715 931 l 715 535 b 468 210 715 381 611 250 l 468 91 b 377 0 468 41 427 0 b 286 91 327 0 286 41 l 286 210 b 39 535 143 250 39 381 l 39 881 b 130 972 39 931 80 972 b 222 881 181 972 222 931 l 222 535 b 286 410 222 484 247 438 l 286 881 b 377 972 286 931 327 972 b 468 881 427 972 468 931 l 468 410 b 532 535 507 438 532 484 l 532 881 b 624 972 532 931 573 972 m 688 535 l 688 881 b 624 945 688 916 659 945 b 560 881 588 945 560 916 l 560 535 b 468 377 560 468 523 409 b 441 364 460 372 451 368 l 441 881 b 377 945 441 916 412 945 b 313 881 342 945 313 916 l 313 364 b 286 377 303 368 294 372 b 194 535 231 409 194 468 l 194 881 b 130 945 194 916 166 945 b 66 881 95 945 66 916 l 66 535 b 286 238 66 396 159 278 b 313 231 295 236 304 233 l 313 91 b 377 27 313 56 342 27 b 441 91 412 27 441 56 l 441 231 b 468 238 450 233 459 236 b 688 535 595 278 688 396 m 624 895 b 637 881 631 895 637 888 l 637 535 b 468 292 637 424 567 329 b 441 283 459 288 450 285 b 391 275 425 279 408 276 l 391 91 b 377 78 391 84 385 78 b 363 91 369 78 363 84 l 363 275 b 313 283 346 276 329 279 b 286 292 304 285 295 288 b 117 535 187 329 117 424 l 117 881 b 130 895 117 888 123 895 b 144 881 138 895 144 888 l 144 535 b 286 321 144 439 202 357 b 313 311 294 317 304 314 b 363 303 329 307 346 304 l 363 881 b 377 895 363 888 369 895 b 391 881 385 895 391 888 l 391 303 b 441 311 408 304 425 307 b 468 321 450 314 460 317 b 610 535 552 357 610 439 l 610 881 b 624 895 610 888 616 895 "},"":{"ha":765,"x_min":0,"x_max":0,"o":"m 383 972 b 721 634 569 972 721 821 l 721 535 b 383 197 721 349 569 197 b 44 535 196 197 44 349 l 44 634 b 383 972 44 821 196 972 m 693 634 b 383 945 693 805 554 945 b 72 634 211 945 72 805 l 72 535 b 383 225 72 364 211 225 b 693 535 554 225 693 364 m 383 895 b 643 634 526 895 643 778 l 643 535 b 383 275 643 392 526 275 b 122 535 239 275 122 392 l 122 634 b 383 895 122 778 239 895 m 616 634 b 383 867 616 763 511 867 b 150 634 254 867 150 763 l 150 535 b 383 302 150 407 254 302 b 616 535 511 302 616 407 m 383 817 b 565 634 483 817 565 735 l 565 535 b 383 353 565 435 483 353 b 200 535 282 353 200 435 l 200 634 b 383 817 200 735 282 817 m 538 634 b 383 789 538 720 468 789 b 227 634 297 789 227 720 l 227 535 b 383 380 227 450 297 380 b 538 535 468 380 538 450 m 629 183 b 721 91 680 183 721 142 b 629 0 721 41 680 0 l 136 0 b 44 91 85 0 44 41 b 136 183 44 142 85 183 l 629 183 m 629 27 b 693 91 665 27 693 56 b 629 155 693 127 665 155 l 136 155 b 72 91 101 155 72 127 b 136 27 72 56 101 27 l 629 27 m 629 105 b 643 91 637 105 643 99 b 629 78 643 84 637 78 l 136 78 b 122 91 128 78 122 84 b 136 105 122 99 128 105 l 629 105 "}}}
